<svg width="92" height="43" viewBox="0 0 92 43" fill="none" xmlns="http://www.w3.org/2000/svg">
<path d="M26.2593 28.552C27.2984 28.5722 28.3278 28.3491 29.2583 27.9017C28.9825 27.7485 28.7248 27.5671 28.488 27.3615C28.0005 27.7041 27.4085 27.8815 26.8053 27.864C26.1827 27.8869 25.5823 27.649 25.1575 27.211C24.7118 26.7917 24.468 26.2112 24.4875 25.6106C24.4875 25.37 24.4875 17.2793 24.4011 17.4029C24.1866 16.1882 23.3314 15.5728 21.8159 15.5728C21.6668 15.5728 21.5178 15.5808 21.3701 15.5969V24.3891C21.3632 26.2166 22.9929 28.552 26.2593 28.552Z" fill="#C20E1A"/>
<path d="M32.5316 28.5517V28.2802C32.0789 28.2802 30.8726 27.998 30.8768 25.6169C30.8768 25.3764 30.8768 17.2897 30.7919 17.416C30.5732 16.1878 29.7221 15.5791 28.2024 15.5791C28.0353 15.5791 27.9461 15.5791 27.7609 15.6033V24.3968C27.7455 26.1988 29.3404 28.5073 32.5316 28.5517Z" fill="#C20E1A"/>
<path d="M10.4663 27.6501C11.5806 28.3892 12.9122 28.7614 14.2634 28.7103C15.7705 28.7103 16.9587 28.4563 17.8293 27.9497C19.459 27.0172 20.2725 25.7245 20.2752 24.0529C20.317 22.3853 19.4102 20.8306 17.9114 20.0001L13.5502 18.1041C11.9734 17.4161 11.1878 16.5212 11.1892 15.4179C11.1613 14.6775 11.5109 13.9707 12.1238 13.5259C12.7465 13.0946 13.4973 12.8715 14.2634 12.893C15.0267 12.8823 15.7803 13.0556 16.4558 13.3956V12.1983C15.7413 12.0115 15.0044 11.9202 14.2634 11.9269C12.8746 11.8785 11.5165 12.3287 10.4509 13.1887C9.40623 14.0581 8.83792 15.3467 8.91453 16.677C8.93125 18.2573 9.79904 19.7166 11.2045 20.5296L15.3262 22.4323C16.7846 23.1203 17.5186 24.0072 17.5159 25.0916C17.5242 25.8978 17.1049 26.6517 16.4029 27.0897C15.719 27.5574 14.8958 27.7992 14.0572 27.7777C13.1532 27.7872 12.2743 27.5009 11.5611 26.9661C10.9245 26.5482 10.5025 25.8884 10.4022 25.1534H8.85742C9.02318 26.1612 9.60264 27.0615 10.4663 27.6501Z" fill="#C20E1A"/>
<path d="M37.6241 15.6009C36.5864 15.5767 35.557 15.7971 34.6279 16.2432C34.9023 16.3991 35.1586 16.5819 35.3954 16.7874C35.8857 16.4434 36.4791 16.2647 37.0851 16.2782C37.7077 16.258 38.3094 16.4972 38.7357 16.9353C39.1744 17.3572 39.4126 17.935 39.3959 18.5316C39.3959 18.7749 39.3959 26.8669 39.4879 26.7419C39.6982 27.958 40.5576 28.5681 42.0703 28.5721C42.2375 28.5721 42.3266 28.5721 42.5119 28.5479V19.7598C42.523 17.939 40.8905 15.6036 37.6241 15.6009Z" fill="#C20E1A"/>
<path d="M31.3516 15.5967V15.8654C31.8043 15.8654 33.005 16.1476 33.005 18.5247C33.005 18.7652 33.005 26.8586 33.0941 26.735C33.3044 27.9498 34.1639 28.5625 35.6766 28.5625C35.827 28.5639 35.9761 28.5558 36.1251 28.5383V19.7489C36.1363 17.9536 34.5428 15.6477 31.3516 15.5967Z" fill="#C20E1A"/>
<path d="M43.2002 15.4141V15.6868C43.664 15.6868 44.8842 15.9784 44.8801 18.3905C44.8801 18.631 44.8801 26.8427 44.9734 26.719C45.1893 27.9539 46.0627 28.5734 47.5935 28.5761C47.7648 28.5761 47.854 28.5761 48.0364 28.5519V19.6281C48.0545 17.8127 46.4387 15.4799 43.2002 15.4141Z" fill="#2E3465"/>
<path d="M62.7312 27.7364C63.5307 28.4419 64.5893 28.8114 65.6716 28.7603C66.7553 28.7093 67.7722 28.243 68.4965 27.465L68.4645 26.3644C68.4213 26.437 68.3753 26.5082 68.3293 26.5781C67.9923 27.2379 67.2916 27.6531 66.5283 27.6437C65.5156 27.6437 65.0086 26.6762 65.0086 24.7412C65.0086 23.8046 65.2301 23.0991 65.6619 22.6248C66.109 22.2136 66.623 21.875 67.1844 21.6237C67.6371 21.4073 68.0675 21.1493 68.4686 20.8537V19.729C68.073 20.1106 67.5939 20.4009 67.066 20.5783L63.5892 21.8615C62.3885 22.4514 61.6475 23.6568 61.6893 24.9575C61.6377 25.9801 62.0124 26.9812 62.7312 27.7364Z" fill="#2E3465"/>
<path d="M49.5863 15.4209C48.4552 15.3483 47.3297 15.6292 46.377 16.2231C46.6374 16.3844 46.877 16.5725 47.0901 16.7875L47.1695 16.7257C47.6891 16.3118 48.3466 16.0941 49.0193 16.1089C49.6489 16.0901 50.2563 16.3319 50.6881 16.774C51.138 17.1987 51.3831 17.7859 51.3664 18.3933C51.3664 18.6378 51.3664 26.8495 51.4556 26.7191C51.6715 27.9567 52.5448 28.5775 54.0757 28.5789C54.2512 28.5789 54.3361 28.5789 54.5297 28.5587V19.6389C54.5576 17.798 52.9 15.4209 49.5863 15.4209Z" fill="#2E3465"/>
<path d="M72.0522 19.824C72.0522 17.9844 70.4016 15.614 67.085 15.6032C66.0069 15.5791 64.9385 15.8156 63.9802 16.2912C63.4564 16.5587 63.0191 16.9591 62.7168 17.4509H64.1863C64.3131 17.2413 64.4802 17.0572 64.678 16.9067C65.1976 16.4928 65.8551 16.2738 66.5292 16.2912C67.1602 16.2711 67.7703 16.5143 68.2021 16.9591C68.6521 17.3837 68.8986 17.9682 68.8833 18.5756C68.8833 18.8162 68.8833 27.0278 68.9752 26.9002C69.1897 28.1391 70.045 28.7545 71.5897 28.7612C71.7388 28.7612 71.8892 28.7518 72.0383 28.7344L72.0522 19.824Z" fill="#2E3465"/>
<path d="M81.8577 16.1368C80.9008 15.6624 79.8352 15.4259 78.7598 15.4488C75.4433 15.4488 73.7676 17.8151 73.7676 19.6561V28.5759C73.9598 28.5759 74.0489 28.6027 74.2203 28.6027C75.7511 28.6027 76.6273 27.9846 76.8487 26.7497C76.9198 26.8733 76.9518 18.6657 76.9616 18.4212C76.9532 17.8165 77.1956 17.2333 77.6371 16.8033C78.0787 16.3733 78.6818 16.1327 79.3086 16.1368C79.9814 16.122 80.6361 16.3437 81.1515 16.7589C81.3562 16.9067 81.5276 17.0922 81.6585 17.3032H83.1378C82.8244 16.8127 82.3828 16.4109 81.8577 16.1368Z" fill="#2E3465"/>
<path d="M55.7922 15.4207C54.7377 15.4005 53.693 15.6276 52.75 16.0818C53.0272 16.2404 53.2891 16.4231 53.5314 16.6287C54.0259 16.282 54.6235 16.1006 55.235 16.1127C55.8729 16.0952 56.4858 16.3465 56.9149 16.8007C57.3648 17.224 57.6085 17.8112 57.5848 18.4172C57.5848 18.6618 57.5848 26.8735 57.6782 26.7418C57.8927 27.9807 58.7647 28.6002 60.2955 28.6002C60.4459 28.6002 60.5964 28.5921 60.7454 28.576V19.6562C60.7593 17.8018 59.1004 15.4207 55.7922 15.4207Z" fill="#2E3465"/>
<path d="M67.1235 9.17755C71.3107 8.02864 73.343 5.80339 77.1972 4.79558C77.9619 4.57252 78.7698 4.52146 79.5582 4.64777C80.1349 4.82649 80.6948 5.04955 81.2339 5.31427L78.0037 3.15083C76.8907 2.40774 75.4867 2.06374 73.6466 2.51389C69.4985 3.50558 67.3422 5.81011 62.8166 6.94558C50.7107 9.97574 40.1593 6.87974 28.0199 2.03955L27.999 2.06374C42.2417 7.97086 53.4631 12.9414 67.1235 9.17755Z" fill="#C20E1A"/>
<path d="M63.1595 5.30095C66.2435 4.3966 67.8161 3.04076 70.8011 2.18076C71.4015 1.99935 72.0269 1.91201 72.6551 1.91873C73.0841 1.95501 73.5076 2.03832 73.9171 2.16732L71.5032 1.17967C70.6618 0.835666 69.5781 0.756385 68.1225 1.15951C64.9132 2.04639 63.2988 3.48151 59.985 4.42079C51.5133 6.82879 43.9887 5.94057 35.0781 4.2797C45.5223 6.3531 53.5985 8.09729 63.1595 5.30095Z" fill="#2E3465"/>
<path d="M18.8604 35.4736H19.5234V39.8381H18.8604V35.4736Z" fill="#2E3465"/>
<path d="M17.9682 38.4971C17.9682 37.6438 17.3079 37.1896 16.0571 37.1896C15.8997 37.1896 15.7214 37.1896 15.5069 37.2205H15.3829V35.4629H14.7227V39.8314H16.0668C17.3121 39.8422 17.9682 39.3745 17.9682 38.4971ZM15.3829 39.384V37.6989H15.486C15.6726 37.6787 15.8593 37.668 16.0459 37.668C16.8984 37.668 17.2982 37.9394 17.2982 38.528C17.2982 39.1165 16.8984 39.3947 16.0459 39.3947L15.3829 39.384Z" fill="#2E3465"/>
<path d="M24.2761 35.4736H21.3203V39.8422H21.9806V36.0098H24.0839L24.2761 35.4736Z" fill="#2E3465"/>
<path d="M27.5102 35.3564C26.2342 35.3564 25.3428 36.3024 25.3428 37.6543C25.3428 39.0061 26.2301 39.9386 27.5004 39.9386C28.7694 39.9386 29.665 38.9994 29.665 37.6543C29.665 36.3092 28.7582 35.3564 27.5102 35.3564ZM27.5102 39.4535C26.634 39.4535 26.0448 38.7266 26.0448 37.6543C26.0448 36.5806 26.6368 35.8442 27.5213 35.8442C28.4058 35.8442 28.9839 36.5699 28.9839 37.6543C28.9839 38.7373 28.3807 39.4535 27.5004 39.4535H27.5102Z" fill="#2E3465"/>
<path d="M35.5009 41.4318V39.3678H34.8239V35.4736H32.449C32.0924 37.4476 31.7358 38.4594 31.0226 39.3221L30.9864 39.3638H30.751V41.4278H31.3611V39.8381H34.8991V41.4278L35.5009 41.4318ZM34.1609 39.3678H31.7929V39.1676C32.3751 38.2122 32.7401 37.1493 32.8627 36.0474V35.9547H34.1609V39.3678Z" fill="#2E3465"/>
<path d="M40.712 39.8422V35.4736H40.0475V37.242H37.6406V35.4736H36.9775V39.8422H37.6406V37.7647H40.0475V39.8422H40.712Z" fill="#2E3465"/>
<path d="M45.76 38.4971C45.76 37.6438 45.097 37.1896 43.8461 37.1896C43.6943 37.1896 43.5118 37.2004 43.3001 37.2205H43.172V35.4629H42.5117V39.8314H43.8601C45.1012 39.8422 45.76 39.3745 45.76 38.4971ZM43.172 39.384V37.6989H43.275C43.4617 37.6787 43.6483 37.668 43.835 37.668C44.6903 37.668 45.0872 37.9394 45.0872 38.528C45.0872 39.1165 44.6903 39.3947 43.835 39.3947L43.172 39.384Z" fill="#2E3465"/>
<path d="M46.6484 35.4736H47.3115V39.8381H46.6484V35.4736Z" fill="#2E3465"/>
<path d="M51.1747 39.4606C50.7318 39.4714 50.3056 39.3007 49.9991 38.993C49.6927 38.6839 49.5353 38.266 49.5659 37.8401V37.7299H52.6582V37.6264C52.6582 36.202 51.945 35.3501 50.7959 35.3501C49.6481 35.3501 48.8848 36.2612 48.8848 37.617C48.8848 38.735 49.4628 39.9309 51.0926 39.9309C51.5898 39.9363 52.0815 39.8181 52.5189 39.5869L52.3364 39.1919C51.9771 39.3706 51.5787 39.4633 51.1747 39.4606ZM49.5659 37.2031C49.5659 36.3888 50.0827 35.8271 50.7959 35.8271C51.5884 35.8271 51.9548 36.5151 51.9659 37.2031V37.3173H49.5659V37.2031Z" fill="#2E3465"/>
<path d="M60.1352 35.4736H56.2559V35.9789H57.763V39.8422H58.4274V35.9789H59.9499L60.1352 35.4736Z" fill="#2E3465"/>
<path d="M65.3124 35.4736H64.6243L63.3971 39.0332H63.2188L63.1868 38.9687L61.6462 35.4736H60.9331L63.0085 39.9456V39.9833C62.6519 41.108 62.1533 41.6347 61.4401 41.6347C61.2311 41.6334 61.0236 41.5971 60.8258 41.5272L60.6768 42.0029C60.9275 42.0916 61.1935 42.1346 61.461 42.1292C62.1742 42.1292 62.8873 41.9787 63.5727 40.1929L65.3124 35.4736Z" fill="#2E3465"/>
<path d="M68.1292 35.3564C67.6068 35.3618 67.0887 35.4465 66.5928 35.6077V42.1437H67.253V39.7357L67.409 39.7935C67.6556 39.8849 67.9161 39.9306 68.1793 39.9306C69.5736 39.9306 70.5083 39.0061 70.5083 37.626C70.5083 36.1882 69.6419 35.3564 68.1292 35.3564ZM68.1292 39.432C67.845 39.4374 67.565 39.3783 67.3101 39.2574L67.2419 39.2264V35.9894L67.3268 35.9652C67.5734 35.8913 67.8297 35.855 68.0874 35.855C69.1572 35.855 69.8063 36.5148 69.8063 37.6234C69.8063 38.7306 69.178 39.432 68.1403 39.432H68.1292Z" fill="#2E3465"/>
<path d="M76.1816 35.4736H76.8447V39.8381H76.1816V35.4736Z" fill="#2E3465"/>
<path d="M75.2935 38.4971C75.2935 37.6438 74.6305 37.1896 73.3796 37.1896C73.225 37.1896 73.0425 37.2004 72.8336 37.2205H72.7082V35.4629H72.0312V39.8314H73.3754C74.6346 39.8422 75.2935 39.3745 75.2935 38.4971ZM72.7082 39.384V37.6989H72.8085C72.9952 37.6787 73.1818 37.668 73.3685 37.668C74.2209 37.668 74.6207 37.9394 74.6207 38.528C74.6207 39.1165 74.2209 39.3947 73.3685 39.3947L72.7082 39.384Z" fill="#2E3465"/>
<path d="M11.8813 36.6804C11.7309 36.6428 11.6599 36.6293 11.4997 36.5944L11.8563 36.4372C12.3494 36.2034 12.653 35.7102 12.6307 35.1808C12.6307 34.4484 12.1195 33.6704 10.6862 33.6704H9.12891V39.8423H10.8868C12.231 39.8423 13.0653 39.1811 13.0653 38.1223C13.0806 37.4302 12.5834 36.8242 11.8813 36.6804ZM9.7989 34.1663H10.6152C11.4746 34.1663 11.9663 34.5788 11.9663 35.295C11.9663 36.0099 11.4537 36.4439 10.5943 36.4439H9.7989V34.1663ZM10.8366 39.3464H9.7989V36.9384H10.9397C11.8103 36.9384 12.3661 37.406 12.3661 38.129C12.373 38.6826 12.1237 39.3464 10.8366 39.3464Z" fill="#2E3465"/>
</svg>
