<svg width="72" height="34" viewBox="0 0 72 34" fill="none" xmlns="http://www.w3.org/2000/svg">
<g clip-path="url(#clip0_300_4118)">
<path d="M38.5834 11.7405C37.9631 12.3631 37.9631 13.3725 38.5834 13.9952C39.2037 14.6178 40.2095 14.6178 40.8298 13.9952L52.0618 2.72167C52.6822 2.09905 52.6822 1.08958 52.0618 0.466964C51.4415 -0.155655 50.4358 -0.155655 49.8154 0.466964L38.5834 11.7405Z" fill="#FFCD00"/>
<path d="M38.5834 1.97156C37.9631 2.59418 37.9631 3.60365 38.5834 4.22626C39.2037 4.84888 40.2095 4.84888 40.8298 4.22626L42.3274 2.72313C42.9477 2.10051 42.9477 1.09105 42.3274 0.468428C41.7071 -0.15419 40.7013 -0.154189 40.081 0.468429L38.5834 1.97156Z" fill="#FFCD00"/>
<path d="M51.6889 18.1282C51.0685 18.7507 51.0685 19.7601 51.6889 20.3826C52.3094 21.0052 53.3153 21.0052 53.9357 20.3826L71.5347 2.72327C72.1552 2.10073 72.1552 1.09139 71.5347 0.468857C70.9144 -0.153681 69.9085 -0.153682 69.2881 0.468857L51.6889 18.1282Z" fill="#FFCD00"/>
<path d="M46.0717 13.9952C45.4513 14.6176 45.4513 15.627 46.0717 16.2496C46.6921 16.8721 47.698 16.8721 48.3185 16.2496L61.7986 2.72325C62.419 2.10071 62.419 1.09139 61.7986 0.468853C61.1782 -0.153681 60.1723 -0.15368 59.5519 0.468854L46.0717 13.9952Z" fill="#FFCD00"/>
<path d="M55.8081 26.0186C55.1877 25.396 55.1877 24.3867 55.8081 23.7642L69.2882 10.2379C69.9087 9.61536 70.9146 9.61536 71.535 10.2379C72.1553 10.8604 72.1553 11.8697 71.535 12.4923L58.0548 26.0186C57.4344 26.6411 56.4285 26.6411 55.8081 26.0186Z" fill="#FFCD00"/>
<path d="M67.7905 33.5333C67.1701 32.9108 67.1701 31.9015 67.7905 31.279L69.2883 29.776C69.9087 29.1534 70.9146 29.1534 71.5351 29.776C72.1554 30.3985 72.1554 31.4078 71.5351 32.0304L70.0372 33.5333C69.4168 34.1559 68.4109 34.1559 67.7905 33.5333Z" fill="#FFCD00"/>
<path d="M58.0542 33.5333C57.4338 32.9108 57.4338 31.9015 58.0542 31.279L69.2878 20.0069C69.9082 19.3844 70.914 19.3844 71.5344 20.0069C72.1548 20.6295 72.1548 21.6389 71.5344 22.2614L60.3009 33.5333C59.6805 34.1559 58.6746 34.1559 58.0542 33.5333Z" fill="#FFCD00"/>
<path d="M51.166 34C52.5676 34.0026 53.6694 32.8292 53.4397 31.4409C52.3558 24.891 47.1946 19.7119 40.6674 18.6243C39.2838 18.3938 38.1146 19.4994 38.1172 20.9059V31.4326C38.1199 32.8391 39.2742 33.9974 40.6758 34H51.166Z" fill="#FFCD00"/>
<path fill-rule="evenodd" clip-rule="evenodd" d="M16.352 15.7448C16.7316 15.4492 16.9593 15.1969 16.9593 14.7911C16.9593 14.3089 16.5581 14.0133 16.07 14.0133C15.5822 14.0133 15.2352 14.2872 15.2352 14.8022C15.2352 15.2409 15.5279 15.5588 15.7882 15.8104L15.9942 16.0081L16.352 15.7448ZM17.5992 19.2634L15.723 17.3014L15.4088 17.5096C14.9425 17.8276 14.7147 18.2222 14.7147 18.7156C14.7147 19.5044 15.2895 19.9209 16.1135 19.9209C16.6991 19.9209 17.1982 19.7016 17.5992 19.2634ZM19.2369 17.0933C19.5962 17.0933 19.8735 17.4183 19.7781 17.7685C19.6308 18.3088 19.407 18.8167 19.1069 19.2524L19.6986 19.8621C19.9046 20.0744 19.9044 20.4143 19.698 20.6262C19.4867 20.8431 19.1405 20.8431 18.9292 20.626L18.3658 20.0472L18.2281 20.1732C17.6102 20.6994 16.8618 20.9844 16.07 20.9844C14.5626 20.9844 13.5 20.206 13.5 18.7485C13.5 17.6741 14.1831 17.0605 14.8339 16.6329L14.977 16.541L14.8339 16.3701C14.3676 15.8106 14.1073 15.438 14.1073 14.7807C14.1073 13.7612 14.8663 13.0156 16.0374 13.0156C17.1981 13.0156 18.0872 13.6733 18.0872 14.7583C18.0872 15.6023 17.5123 16.0956 16.6448 16.7096L18.2932 18.4306C18.4414 18.1809 18.553 17.8892 18.6337 17.5862C18.7085 17.3054 18.9492 17.0933 19.2369 17.0933Z" fill="#E73C3E"/>
<path fill-rule="evenodd" clip-rule="evenodd" d="M0.264649 1.85938C0.264649 0.83247 1.09424 0 2.11759 0H7.41171C8.28886 0 8.99994 0.713546 8.99994 1.59375C8.99994 2.47395 8.28886 3.1875 7.41171 3.1875H4.23524C3.79666 3.1875 3.44112 3.54427 3.44112 3.98438V5.84316C3.44112 6.28326 3.79666 6.64003 4.23524 6.64003H7.04692C7.77805 6.64003 8.37075 7.23478 8.37075 7.96845C8.37075 8.70213 7.77805 9.29688 7.04692 9.29688H4.23524C3.79666 9.29688 3.44112 9.65362 3.44112 10.0938V13.8125C3.44112 14.6927 2.73004 15.4062 1.85288 15.4062C0.975729 15.4062 0.264648 14.6927 0.264648 13.8125L0.264649 1.85938Z" fill="#E73C3E"/>
<path fill-rule="evenodd" clip-rule="evenodd" d="M12.4408 0C13.3179 0 14.029 0.713546 14.029 1.59375V5.84375C14.029 7.01735 14.8231 8.23438 16.1467 8.23438C17.4702 8.23438 18.2643 7.01735 18.2643 5.84375V1.59375C18.2643 0.713546 18.9753 0 19.8525 0C20.7297 0 21.4408 0.713546 21.4408 1.59375V5.84375C21.4408 8.77778 19.0705 10.8906 16.1467 10.8906C13.2228 10.8906 10.8525 8.77778 10.8525 5.84375V1.59375C10.8525 0.713546 11.5636 0 12.4408 0Z" fill="#E73C3E"/>
<path fill-rule="evenodd" clip-rule="evenodd" d="M23.2939 1.59375C23.2939 0.713546 24.0051 0 24.8822 0H24.9189C25.4916 0 26.02 0.309452 26.3017 0.809868L30.7055 8.63277C30.7055 8.63277 30.7057 4.64984 30.7057 1.59353C30.7057 0.713323 31.4168 0 32.2939 0C33.1711 0 33.8822 0.713546 33.8822 1.59375V13.8125C33.8822 14.6927 33.1711 15.4062 32.2939 15.4062H32.257C31.6842 15.4062 31.1558 15.0968 30.8742 14.5964L26.4702 6.77344C26.4702 6.77344 26.4704 10.6406 26.4704 13.8129C26.4704 14.6932 25.7593 15.4062 24.8822 15.4062C24.0051 15.4062 23.2939 14.6927 23.2939 13.8125V1.59375Z" fill="#E73C3E"/>
<path fill-rule="evenodd" clip-rule="evenodd" d="M23.2939 20.1875C23.2939 19.3073 24.0051 18.5938 24.8822 18.5938H24.9189C25.4916 18.5938 26.02 18.9032 26.3017 19.4036L30.7055 27.2265C30.7055 27.2265 30.7057 23.2436 30.7057 20.1872C30.7057 19.3071 31.4168 18.5938 32.2939 18.5938C33.1711 18.5938 33.8822 19.3073 33.8822 20.1875V32.4062C33.8822 33.2864 33.1711 34 32.2939 34H32.257C31.6842 34 31.1558 33.6905 30.8742 33.1901L26.4702 25.3672C26.4702 25.3672 26.4704 29.2344 26.4704 32.4067C26.4704 33.2869 25.7593 34 24.8822 34C24.0051 34 23.2939 33.2864 23.2939 32.4062V20.1875Z" fill="#E73C3E"/>
<path fill-rule="evenodd" clip-rule="evenodd" d="M12.4418 23.1094C13.3189 23.1094 14.03 23.823 14.03 24.7031V28.9531C14.03 30.1267 14.8241 31.3438 16.1476 31.3438C17.4712 31.3438 18.2653 30.1267 18.2653 28.9531V24.7031C18.2653 23.823 18.9763 23.1094 19.8535 23.1094C20.7306 23.1094 21.4418 23.823 21.4418 24.7031V28.9531C21.4418 31.8872 19.0714 34 16.1476 34C13.2238 34 10.8535 31.8872 10.8535 28.9531V24.7031C10.8535 23.823 11.5645 23.1094 12.4418 23.1094Z" fill="#E73C3E"/>
<path d="M9.52941 29.6334C9.52941 30.9864 9.05277 32.0524 8.0995 32.8315C7.15289 33.6105 5.83297 34 4.13975 34C2.90243 34 1.77837 33.8108 0.767537 33.4325C0.286819 33.2525 0 32.7727 0 32.2578C0 31.2692 1.01698 30.6216 1.95211 30.9328C2.14458 30.9969 2.32716 31.0523 2.49985 31.0991C3.18647 31.2837 3.69991 31.3232 4.26654 31.3232C4.9465 31.3232 5.46647 31.1899 5.82644 30.9234C6.19309 30.6569 6.37641 30.2605 6.37641 29.7344C6.37641 29.4405 6.29642 29.1808 6.13642 28.9553C5.97644 28.723 5.73978 28.5009 5.42647 28.289C5.11983 28.0772 4.60305 27.7917 3.64977 27.3271C2.7565 26.8966 2.08653 26.4831 1.6399 26.0868C1.19326 25.6904 0.836615 25.2291 0.569965 24.703C0.303315 24.1768 0.169989 23.5617 0.169989 22.8579C0.169989 21.5322 0.60663 20.4901 1.4799 19.7316C2.35985 18.973 3.57311 18.5938 5.11968 18.5938C5.87964 18.5938 6.60292 18.686 7.28955 18.8705C7.60389 18.9541 7.9244 19.0533 8.25106 19.1678C8.9352 19.4078 9.24277 20.1849 8.97001 20.8587C8.68896 21.5529 7.90044 21.8724 7.19242 21.634C6.94722 21.5515 6.72294 21.4845 6.5196 21.4331C6.01297 21.3033 5.65507 21.25 5.16176 21.25C4.57513 21.25 4.12516 21.3901 3.81185 21.6702C3.49853 21.9504 3.34188 22.3161 3.34188 22.7671C3.34188 23.0472 3.40521 23.2932 3.53186 23.5051C3.65852 23.7101 3.85851 23.9117 4.13183 24.1098C4.41181 24.3012 4.92637 24.638 5.95963 25.1437C7.32621 25.8134 8.26282 26.4865 8.76943 27.163C9.27606 27.8327 9.52941 28.6561 9.52941 29.6334Z" fill="#E73C3E"/>
</g>
<defs>
<clipPath id="clip0_300_4118">
<rect width="72" height="34" fill="white"/>
</clipPath>
</defs>
</svg>
