<svg width="118" height="31" viewBox="0 0 118 31" fill="none" xmlns="http://www.w3.org/2000/svg">
<g clip-path="url(#clip0_300_4180)">
<path d="M84.8266 7.05373L84.7297 7.16394L84.628 7.26937L84.5166 7.35084L87.8199 6.7087V5.01709L85.9019 5.31899L84.9138 6.93392L84.8266 7.05373Z" fill="#C6B585"/>
<path d="M22.7553 15.6939L22.6197 16.1348L22.4598 16.5709L22.2661 16.9878L22.0433 17.3903L21.7963 17.7689L21.525 18.1379L21.2344 18.4829L20.9196 18.8184L20.5805 19.1298L20.2172 19.4317L19.8394 19.7193L19.4326 19.9828L19.1855 20.1314L24.2326 19.1394V15.1045L22.8376 15.3297L22.7553 15.6939Z" fill="#C6B585"/>
<path d="M53.1484 12.6318H56.631L55.4346 10.1543L54.2237 10.3508L53.1484 12.6318Z" fill="#C6B585"/>
<path d="M109.679 0C109.679 0.996754 108.177 1.79224 107.417 1.91683L106.661 2.03664V3.02381L118 0.785902L109.679 0Z" fill="#C6B585"/>
<path d="M46.5274 11.5679L44.7982 11.8458L44.6723 12.1381L44.4834 12.5119L44.2751 12.8713L44.0426 13.2211L43.7956 13.5518L43.5243 13.8729L43.2289 14.1796L42.9189 14.4671L42.5895 14.7402L42.2456 14.999L41.8823 15.2386L41.4997 15.4638L41.0977 15.6747L40.6763 15.8616L40.376 15.9862L44.8515 15.1092L46.5274 11.5679Z" fill="#C6B585"/>
<path d="M35.5911 16.782H30.917V17.8362L36.3709 16.7676L36.1723 16.782H35.5911Z" fill="#C6B585"/>
<path d="M65.0935 11.1511L65.0887 10.8827L65.1032 10.322L65.1419 9.76137L65.2098 9.21507L65.3066 8.67836L65.326 8.58252L62.0469 9.10965L63.2239 11.5201L65.0935 11.1511Z" fill="#C6B585"/>
<path d="M83.0196 7.4564L82.8937 7.37973L82.7048 7.26472L82.4965 7.14971L82.2688 7.04907L82.0218 6.94365L81.4551 6.74717L80.8448 6.58424L80.1861 6.45006L79.5031 6.34464L79.4692 6.33984L74.0056 7.20721L73.8071 7.3366L73.5939 7.47557L73.4002 7.62412L73.2258 7.77747L73.0611 7.9404L72.911 8.10333L72.7657 8.27585L72.6349 8.45315L72.5138 8.64005L72.4073 8.83173L72.3055 9.033L72.2135 9.24385L72.1409 9.45949L72.0779 9.67514L72.0488 9.79494L83.3683 7.5762L83.2957 7.56183L83.1552 7.5187L83.0196 7.4564Z" fill="#C6B585"/>
<path d="M20.8275 16.6622C21.3404 15.7903 21.6002 14.7954 21.5783 13.7869C21.5783 10.5539 19.2873 8.93733 14.7052 8.93733H7.57056C5.79296 8.93733 4.90173 8.37666 4.8872 7.25531C4.89076 6.95158 4.97066 6.65351 5.11969 6.38794C5.32357 6.05828 5.61289 5.78858 5.95764 5.60683C6.46161 5.33295 7.00585 5.13891 7.57056 5.03178C8.42746 4.86977 9.29945 4.79909 10.1716 4.82093C10.8968 4.8233 11.6213 4.8665 12.3415 4.95032C13.0487 5.03178 13.7316 5.14679 14.4 5.29056C15.0685 5.43432 15.703 5.59725 16.3084 5.76977C16.8876 5.95261 17.4567 6.16535 18.0134 6.40711L19.6651 3.38331C18.9887 3.08514 18.2948 2.8275 17.5871 2.61178C16.8258 2.36897 16.0512 2.16898 15.2671 2.01277C14.4476 1.84074 13.6199 1.70959 12.7871 1.61982C11.9472 1.53212 11.1033 1.48733 10.2588 1.48564C9.21696 1.4759 8.17635 1.55768 7.14917 1.73004C6.32582 1.86304 5.52003 2.08645 4.74674 2.39614C4.11206 2.64257 3.51663 2.97828 2.97882 3.39289C2.517 3.75531 2.1136 4.18513 1.78245 4.66759C1.48095 5.10763 1.25357 5.59314 1.10919 6.10521C0.971425 6.59998 0.902976 7.11111 0.905755 7.6243C0.905755 10.819 3.19194 12.4164 7.76431 12.4164H13.1262C16.0905 12.4164 17.5742 13.0378 17.5775 14.2805C17.577 14.6931 17.4577 15.097 17.2336 15.445C16.9581 15.8446 16.5781 16.1626 16.1341 16.3651C15.521 16.6586 14.8685 16.8635 14.1966 16.9737C13.2446 17.1319 12.2799 17.2041 11.3147 17.1893C10.4237 17.1942 9.53344 17.1366 8.65069 17.0168C7.85036 16.921 7.05745 16.7722 6.27732 16.5711C5.53625 16.3666 4.80972 16.1137 4.10254 15.814C3.39053 15.4689 2.71726 15.1287 2.02947 14.7453L0 17.8027C0.749538 18.2187 1.52438 18.5884 2.32009 18.9097C3.18712 19.2539 4.07527 19.5436 4.97923 19.777C5.93524 20.0223 6.90587 20.208 7.8854 20.3329C8.91151 20.467 9.94543 20.5343 10.9805 20.5342C12.4461 20.5476 13.9085 20.3965 15.3397 20.0837C16.5224 19.8392 17.6543 19.3967 18.6866 18.7755C19.5632 18.2536 20.298 17.5282 20.8275 16.6622Z" fill="#005991"/>
<path d="M43.5002 11.2279C43.8346 10.3592 43.999 9.43547 43.9846 8.50599C43.9988 7.53654 43.8245 6.57341 43.4712 5.66908C43.1398 4.84026 42.6055 4.10586 41.9164 3.53181C41.1435 2.90844 40.2478 2.45145 39.2863 2.19003C38.0662 1.86493 36.8053 1.71485 35.5422 1.74436H25.6709V20.2801H29.478V15.3347H35.5906C36.8564 15.3724 38.1203 15.2106 39.3347 14.8555C40.3003 14.5598 41.194 14.0704 41.96 13.4179C42.6409 12.8184 43.1687 12.068 43.5002 11.2279ZM39.7174 9.97717C39.5458 10.4143 39.27 10.804 38.9133 11.1129C38.5162 11.4446 38.0547 11.6925 37.5571 11.8413C36.9438 12.0188 36.3071 12.1044 35.6681 12.0953H29.478V4.9934H35.6633C37.1002 4.9934 38.1836 5.2921 38.9133 5.88952C39.2844 6.21452 39.5751 6.6194 39.7632 7.07299C39.9513 7.52659 40.0317 8.01683 39.9983 8.50599C40 9.00959 39.9046 9.50889 39.7174 9.97717Z" fill="#005991"/>
<path d="M61.9154 20.2799H65.9114L56.8296 1.71533H52.7949L43.9844 20.2799H47.9755L49.4286 17.1458H60.3945L61.9154 20.2799ZM50.901 14.0502L54.8534 5.61609L58.9269 14.0502H50.901Z" fill="#005991"/>
<path d="M93.0649 11.8218H103.847V8.72136H93.0649V5.01708H105.237V1.71533H89.2578V20.2799H105.494V16.9877H93.0649V11.8218Z" fill="#005991"/>
<path d="M69.4626 17.7309C70.5361 18.6534 71.7864 19.3526 73.1389 19.7867C74.7797 20.3097 76.4963 20.5622 78.2199 20.5342C79.6674 20.5393 81.1091 20.3523 82.5065 19.9783C83.7611 19.6488 84.9581 19.1335 86.0568 18.4497L84.2792 15.6032C83.3924 16.0946 82.4471 16.4745 81.4651 16.7341C80.9464 16.8762 80.4189 16.985 79.8861 17.06C79.3427 17.1423 78.7938 17.1839 78.2441 17.1846C77.1371 17.2058 76.0337 17.0538 74.9746 16.7341C74.0791 16.4607 73.2464 16.0162 72.5238 15.4259C71.8732 14.8792 71.3578 14.1924 71.0174 13.418C70.6593 12.622 70.4792 11.7589 70.4895 10.8878C70.4761 10.0461 70.6498 9.2118 70.998 8.44379C71.3405 7.70031 71.8509 7.04453 72.4899 6.52695C73.2074 5.95956 74.0301 5.53632 74.9117 5.28101C75.9676 4.97019 77.0651 4.81992 78.1666 4.83535C78.6729 4.8306 79.1791 4.8546 79.6826 4.90723C80.186 4.97026 80.6856 5.05984 81.1793 5.17559C81.6407 5.2849 82.0939 5.42581 82.5355 5.59729C82.9333 5.7458 83.3133 5.93703 83.6689 6.16755L85.4078 3.35459C84.2993 2.71674 83.1035 2.24061 81.8574 1.94093C80.4774 1.6261 79.0644 1.47488 77.6483 1.49047C76.0548 1.46566 74.4688 1.71205 72.9597 2.21887C71.6717 2.64543 70.4816 3.31966 69.4578 4.20279C68.5212 5.02892 67.7789 6.04794 67.283 7.18826C66.7727 8.36378 66.5185 9.6325 66.5371 10.9117C66.5275 12.2114 66.7794 13.4999 67.2781 14.7023C67.7663 15.8618 68.5131 16.8971 69.4626 17.7309Z" fill="#005991"/>
<path d="M92.1644 27.2382H96.8384V25.8916H92.1644V24.2863H97.4439V22.8486H90.5127V30.9089H97.5553V29.4809H92.1644V27.2382Z" fill="#005991"/>
<path d="M85.1266 29.0878L82.5643 22.9443H80.7334L84.308 30.9998H85.9451L89.51 22.9443H87.684L85.1266 29.0878Z" fill="#005991"/>
<path d="M100.752 22.8486H99.1006V30.9089H105.494V29.4761H100.752V22.8486Z" fill="#005991"/>
<path d="M55.1494 24.2863H58.1573V30.9089H59.809V24.2863H62.8168V22.8486H55.1494V24.2863Z" fill="#005991"/>
<path d="M76.5286 22.8389L72.7021 30.8992H74.441L75.0707 29.5574H79.8319L80.481 30.8992H82.2198L78.2965 22.8389H76.5286ZM75.7052 28.2108L77.415 24.5496L79.2023 28.2108H75.7052Z" fill="#005991"/>
<path d="M71.2499 27.2862C71.4028 27.0567 71.5173 26.8042 71.589 26.5387C71.6575 26.2595 71.6901 25.9729 71.6859 25.6857C71.6946 25.2786 71.6187 24.8741 71.4631 24.4972C71.3231 24.1447 71.0907 23.8354 70.7898 23.6011C70.4541 23.3376 70.0664 23.1466 69.6516 23.0404C69.1206 22.9028 68.5729 22.8383 68.0241 22.8488H63.8828V30.8995H65.5345V28.6136H68.0822L69.6128 30.8995H71.6374L69.8598 28.3213C70.1514 28.2103 70.4254 28.0586 70.6736 27.8709C70.8934 27.7047 71.0875 27.5078 71.2499 27.2862ZM69.8405 26.3278C69.7627 26.513 69.6415 26.6773 69.4869 26.807C69.3119 26.9462 69.1112 27.0504 68.896 27.1137C68.6279 27.1873 68.3507 27.2228 68.0725 27.2191H65.5442V24.272H68.0725C68.5722 24.2377 69.0693 24.3674 69.4869 24.641C69.64 24.7676 69.7606 24.9283 69.8389 25.1098C69.9172 25.2914 69.9509 25.4887 69.9373 25.6857C69.9467 25.8992 69.9138 26.1124 69.8405 26.3134V26.3278Z" fill="#005991"/>
</g>
<defs>
<clipPath id="clip0_300_4180">
<rect width="118" height="31" fill="white"/>
</clipPath>
</defs>
</svg>
