<svg width="151" height="51" viewBox="0 0 151 51" fill="none" xmlns="http://www.w3.org/2000/svg">
<mask id="mask0_300_4080" style="mask-type:alpha" maskUnits="userSpaceOnUse" x="9" y="11" width="30" height="29">
<path d="M23.5901 39.6804C31.5859 39.6804 38.0679 33.3316 38.0679 25.4999C38.0679 17.6682 31.5859 11.3193 23.5901 11.3193C15.5942 11.3193 9.1123 17.6682 9.1123 25.4999C9.1123 33.3316 15.5942 39.6804 23.5901 39.6804Z" fill="#D9D9D9"/>
</mask>
<g mask="url(#mask0_300_4080)">
<path d="M38.9126 10.917H8.26758V15.5181H38.9126V10.917Z" fill="#EE772D"/>
<path d="M38.9126 23.3354H8.26758V28.9643H38.9126V23.3354Z" fill="#E84E0E"/>
<path d="M38.9126 28.9644H8.26758V35.0495H38.9126V28.9644Z" fill="#77ABDC"/>
<path d="M38.9126 35.0498H8.26758V40.0415H38.9126V35.0498Z" fill="#1077B1"/>
<path d="M38.9126 18.7764H8.26758V23.3355H38.9126V18.7764Z" fill="#F9B515"/>
<path d="M38.9126 15.5181H8.26758V18.7763H38.9126V15.5181Z" fill="#FCCE86"/>
</g>
<path d="M94.5967 28.4605C94.5967 32.0302 97.009 32.7135 98.6372 32.3956V31.6068C97.4032 31.7912 95.5188 31.284 95.5188 28.4462V22.7267H98.3946V21.9096H95.5188V18.9619H94.5967V28.4605Z" fill="#1C8BCB"/>
<path d="M105.177 22.7067C102.927 22.2837 101.071 24.8263 101.071 27.6823V32.3498H100.15V21.9209H101.071V24.5387C101.64 22.9414 103.091 21.4043 105.177 21.8038V22.7067Z" fill="#1C8BCB"/>
<path d="M141.888 32.4193C140.937 32.59 139.342 32.2266 139.342 30.2042V18.3901H140.263V29.9743C140.263 31.4807 141.092 31.6807 141.888 31.5802V32.4193Z" fill="#1C8BCB"/>
<path d="M49.6467 32.6009C45.6219 32.6009 42.7002 29.7328 42.7002 25.7806C42.7002 21.8295 45.6219 18.9614 49.6467 18.9614C52.5601 18.9614 54.1488 20.4612 54.483 20.8154L53.2006 22.8457C52.8116 22.4918 51.5541 21.491 49.8254 21.491C47.4457 21.491 45.7188 23.2847 45.7188 25.755C45.7188 26.9116 46.1245 27.9854 46.8612 28.7815C47.6316 29.6123 48.7214 30.0699 49.9277 30.0699C51.7199 30.0699 53.1235 29.0049 53.689 28.5C53.8421 29.3307 54.1404 30.1076 54.5747 30.8118C53.9415 31.3664 52.2404 32.6009 49.6467 32.6009Z" fill="#1C8BCB"/>
<path d="M92.5188 32.3942C90.4304 32.6824 88.4033 32.0886 88.4033 29.1017V18.3906H91.0359V28.713C91.0359 29.8589 91.5472 30.3139 92.5188 30.2247V32.3942Z" fill="#1C8BCB"/>
<path d="M60.7915 30.391C59.0586 30.391 57.6168 29.0832 57.6168 27.1395C57.6168 25.217 59.0586 23.8876 60.7915 23.8876C62.504 23.8876 63.9453 25.217 63.9453 27.1395C63.9453 29.0832 62.504 30.391 60.7915 30.391ZM60.7696 21.6782C57.534 21.6782 54.9238 23.9488 54.9238 27.1395C54.9238 30.351 57.534 32.6007 60.7915 32.6007C64.0281 32.6007 66.6388 30.351 66.6388 27.1395C66.6388 23.9488 64.0281 21.6782 60.7696 21.6782Z" fill="#1C8BCB"/>
<path d="M74.3922 21.8203V24.3768C71.4362 23.8419 70.6344 26.716 70.6344 28.2224V32.3533H67.9814V21.9221H70.5292V24.3875C71.0098 22.8954 72.7739 21.4834 74.3922 21.8203Z" fill="#1C8BCB"/>
<path d="M80.5588 30.3429C78.8249 30.3429 77.3836 29.0332 77.3836 27.0901C77.3836 25.1683 78.8249 23.8379 80.5588 23.8379C82.2708 23.8379 83.7126 25.1683 83.7126 27.0901C83.7126 29.0332 82.2708 30.3429 80.5588 30.3429ZM83.6965 21.9241V22.8094C82.7629 22.0792 81.5788 21.6738 80.3333 21.6738C77.0624 21.6738 74.6875 23.9787 74.6875 27.1527C74.6875 28.5839 75.2228 29.9252 76.1949 30.9297C77.23 32.0018 78.6911 32.5912 80.3104 32.5912C81.6361 32.5912 82.7722 32.2248 83.6965 31.4985V32.3553H86.2458V21.9241H83.6965Z" fill="#1C8BCB"/>
<path d="M110.563 31.8088C107.928 31.8088 105.941 29.8181 105.941 27.175C105.941 24.5762 107.971 22.5409 110.563 22.5409C113.082 22.5409 115.065 24.482 115.157 26.9936V27.3617C115.066 29.9103 113.121 31.8088 110.563 31.8088ZM115.157 21.9215V24.2414C114.226 22.7273 112.566 21.7407 110.563 21.7407C107.434 21.7407 104.983 24.1282 104.983 27.175C104.983 28.6585 105.549 30.0311 106.576 31.0356C107.61 32.0498 109.026 32.6096 110.563 32.6096C112.094 32.6096 113.504 32.0498 114.536 31.0346C114.777 30.7976 114.982 30.5416 115.157 30.2681V32.3503H116.078V21.9215H115.157Z" fill="#1C8BCB"/>
<path d="M132.475 22.4038C134.774 22.4038 136.316 24.1083 136.29 26.2671H128.218C128.539 24.0454 130.161 22.4038 132.475 22.4038ZM132.476 21.5947C129.347 21.5947 127.2 24.0108 127.2 27.0946C127.2 28.596 127.766 29.9843 128.792 31.0024C129.827 32.0286 131.242 32.5951 132.78 32.5951C134.262 32.5951 135.63 32.0652 136.651 31.0993L136.149 30.3511C135.322 31.2447 134.137 31.7849 132.78 31.7849C130.149 31.7849 128.164 29.7749 128.158 27.1062H137.228C137.572 23.852 135.548 21.5947 132.476 21.5947Z" fill="#1C8BCB"/>
<path d="M125.861 21.9209L122.609 30.0275C122.412 30.5451 122.236 31.1878 122.236 31.1878H122.191C122.191 31.1878 122.016 30.5451 121.818 30.0275L118.567 21.9209H117.58L121.775 32.3497H122.654L126.828 21.9209H125.861Z" fill="#1C8BCB"/>
</svg>
