<svg width="150" height="28" viewBox="0 0 150 28" fill="none" xmlns="http://www.w3.org/2000/svg">
<path d="M7.11291 14.2935C7.1094 14.4221 7.09961 14.5482 7.09961 14.6766C7.09961 19.5902 11.1716 23.573 16.1952 23.573C19.1752 23.573 21.8175 22.168 23.4762 19.9996C23.3218 19.8953 22.8066 19.6779 22.653 19.5699C20.9876 21.421 18.9143 22.7053 16.1953 22.7053C11.3381 22.7053 7.37266 18.9811 7.11291 14.2935Z" fill="#2B9ED9"/>
<path d="M16.3226 24.306C10.6901 24.306 6.10751 19.6829 6.10751 14.0005C6.10751 10.7413 7.6011 7.75263 10.1056 5.82382C11.4509 7.2455 13.2908 9.93317 13.2908 14.0005L13.274 17.177L16.4183 17.0584H16.4878C17.0198 17.0584 21.228 17.1487 24.6895 19.916C22.7986 22.633 19.6938 24.306 16.3226 24.306ZM16.4877 13.9977C16.3801 13.9977 16.3226 14.0002 16.3226 14.0002C16.3226 6.14188 10.7939 2.32236 10.39 2.05273C6.05168 4.24865 3.07422 8.77125 3.07422 14.0002C3.07422 21.3822 9.00583 27.3637 16.3226 27.3637C21.7564 27.3637 26.4217 24.0646 28.4682 19.3444L28.4341 19.3035C24.0147 14.2239 17.5934 13.9977 16.4877 13.9977Z" fill="#004391"/>
<path d="M18.5139 11.7694C18.5139 11.7694 18.5719 11.767 18.6795 11.767C18.8777 11.767 19.2505 11.7736 19.7524 11.8158C21.6199 11.4695 24.0769 11.5488 26.7641 12.4969C27.2183 12.657 27.6779 12.8378 28.1432 13.0491C27.2486 11.9683 24.2932 9.92378 19.7914 11.2423C19.5473 11.3138 19.3001 11.3935 19.0447 11.485C19.0447 11.485 21.0342 9.99058 24.0571 9.96809C25.5919 9.95772 27.3902 10.3263 29.33 11.4605C28.1553 5.29477 22.7797 0.63623 16.3227 0.63623C15.4833 0.63623 14.6605 0.717126 13.8652 0.868502C15.6184 2.51062 18.5139 6.08167 18.5139 11.7694Z" fill="#EC680F"/>
<path d="M19.045 11.4863C19.3004 11.3934 19.5476 11.3137 19.7917 11.2422C24.2938 9.92373 27.249 11.9683 28.1435 13.049C27.6782 12.8378 27.2186 12.657 26.7644 12.4968C24.0772 11.5487 21.6202 11.4695 19.7527 11.8157C21.7943 11.9864 25.9848 12.726 29.442 15.8638C29.5259 15.2546 29.5725 14.6328 29.5725 14C29.5725 13.1317 29.4869 12.2842 29.3303 11.4603C27.3904 10.3238 25.5923 9.95762 24.0574 9.96799C21.0346 9.99048 19.045 11.4863 19.045 11.4863Z" fill="#FFD500"/>
<path d="M38.343 10.917V13.184H41.5677C42.2773 13.184 42.6651 12.8068 42.6651 12.0499C42.6651 11.2955 42.2773 10.917 41.5677 10.917H38.343ZM41.5677 9.05415C43.5755 9.05415 45.1267 9.97152 45.1267 12.0499C45.1267 14.1285 43.5755 15.0469 41.5677 15.0469H36.4698C36.1353 15.0469 35.8809 14.7772 35.8809 14.4402V6.22116C35.8809 5.86906 36.149 5.59863 36.4972 5.59863H43.8563C44.1908 5.59863 44.4729 5.86906 44.4729 6.22116V6.83949C44.4729 7.17801 44.2046 7.46218 43.8708 7.46218H38.3431V9.05432L41.5677 9.05415Z" fill="#004391"/>
<path d="M50.884 8.29859C51.0316 8.02814 51.3523 7.82582 51.6193 7.82582H53.4525C53.6805 7.82582 53.8547 8.00081 53.8547 8.23162V14.6411C53.8547 14.8717 53.6805 15.0469 53.4525 15.0469H52.0896C51.8603 15.0469 51.6875 14.8717 51.6875 14.6411V10.3224L49.3856 14.5738C49.2377 14.8305 48.9164 15.0468 48.6483 15.0468H46.8157C46.5893 15.0468 46.4141 14.8716 46.4141 14.641V8.23148C46.4141 8.00068 46.5893 7.82568 46.8157 7.82568H48.181C48.4073 7.82568 48.5832 8.00068 48.5832 8.23148V12.5638L50.884 8.29859Z" fill="#004391"/>
<path d="M60.9125 11.943C60.9125 10.8361 60.3095 10.2145 59.2388 10.2145C58.169 10.2145 57.5676 10.8361 57.5676 11.943C57.5676 13.05 58.169 13.6828 59.2388 13.6828C60.3095 13.6828 60.9125 13.05 60.9125 11.943ZM59.6403 8.71638C61.6741 8.71638 63.1738 9.83607 63.1738 11.943C63.1738 14.0078 61.8216 15.1822 59.2391 15.1822C56.6561 15.1822 55.3057 13.994 55.3057 11.5375V10.5919C55.3057 7.70518 56.1483 6.03103 58.7846 5.78823L62.3843 5.46315C62.6128 5.43712 62.8132 5.57216 62.8132 5.80085V6.66681C62.8132 6.93498 62.6128 7.24615 62.3309 7.27218L59.5876 7.50074C57.7536 7.64986 57.1128 8.28385 57.1128 9.85011C57.6872 9.04192 58.5157 8.71652 59.6407 8.71652L59.6403 8.71638Z" fill="#004391"/>
<path d="M66.3738 14.5616C66.3068 14.8447 66.0387 15.0472 65.7717 15.0472H64.4332C64.2053 15.0472 64.0456 14.8447 64.0993 14.6155L65.277 9.82381C65.6786 8.20448 67.0828 7.82617 68.5543 7.82617H71.6472C71.8739 7.82617 72.048 8.00117 72.048 8.23197V14.6424C72.048 14.8708 71.8739 15.0471 71.6472 15.0471H70.1877C69.9599 15.0471 69.7856 14.8708 69.7856 14.6424V9.41814H68.5543C67.966 9.41814 67.5778 9.67528 67.4029 10.3912L66.3738 14.5616Z" fill="#004391"/>
<path d="M78.2054 8.29859C78.353 8.02814 78.6756 7.82582 78.9421 7.82582H80.7754C81.0031 7.82582 81.1766 8.00081 81.1766 8.23162V14.6411C81.1766 14.8717 81.0031 15.0469 80.7754 15.0469H79.41C79.1835 15.0469 79.0101 14.8717 79.0101 14.6411V10.3224L76.7072 14.5738C76.561 14.8305 76.2396 15.0468 75.9725 15.0468H74.1378C73.9108 15.0468 73.7373 14.8716 73.7373 14.641V8.23148C73.7373 8.00068 73.9108 7.82568 74.1378 7.82568H75.5033C75.7313 7.82568 75.9045 8.00068 75.9045 8.23148V12.5638L78.2054 8.29859Z" fill="#004391"/>
<path d="M88.015 11.4295C88.015 9.83616 87.465 9.18938 86.3282 9.18938C85.1904 9.18938 84.642 9.83616 84.642 11.4295C84.642 13.0226 85.1904 13.6829 86.3282 13.6829C87.465 13.6829 88.015 13.0226 88.015 11.4295ZM90.2752 11.4295C90.2752 13.9126 88.8572 15.1824 86.328 15.1824C83.7978 15.1824 82.3809 13.9128 82.3809 11.4295C82.3809 8.94629 83.798 7.69043 86.328 7.69043C88.857 7.69043 90.2752 8.94632 90.2752 11.4295Z" fill="#004391"/>
<path d="M97.4522 6.22069C97.4522 5.86858 97.7193 5.59912 98.0679 5.59912H104.384C104.731 5.59912 104.999 5.86858 104.999 6.22069V6.83901C104.999 7.19129 104.731 7.46171 104.384 7.46171H99.9147V14.4399C99.9147 14.777 99.6329 15.0466 99.2993 15.0466H98.0679C97.7334 15.0466 97.4521 14.777 97.4521 14.4399L97.4522 6.22069Z" fill="#004391"/>
<path d="M105.734 14.5616C105.666 14.8447 105.399 15.0472 105.131 15.0472H103.793C103.567 15.0472 103.406 14.8447 103.458 14.6155L104.637 9.82381C105.038 8.20448 106.443 7.82617 107.915 7.82617H111.006C111.233 7.82617 111.407 8.00117 111.407 8.23197V14.6424C111.407 14.8708 111.233 15.0471 111.006 15.0471H109.548C109.32 15.0471 109.146 14.8708 109.146 14.6424V9.41814H107.915C107.326 9.41814 106.937 9.67528 106.764 10.3912L105.734 14.5616Z" fill="#004391"/>
<path d="M118.328 11.4295C118.328 9.83616 117.779 9.18938 116.642 9.18938C115.505 9.18938 114.956 9.83616 114.956 11.4295C114.956 13.0226 115.505 13.6829 116.642 13.6829C117.779 13.6829 118.328 13.0226 118.328 11.4295ZM120.589 11.4295C120.589 13.9126 119.171 15.1824 116.642 15.1824C114.113 15.1824 112.694 13.9128 112.694 11.4295C112.694 8.94629 114.113 7.69043 116.642 7.69043C119.171 7.69043 120.589 8.94632 120.589 11.4295Z" fill="#004391"/>
<path d="M127.411 11.943C127.411 10.8361 126.809 10.2145 125.74 10.2145C124.667 10.2145 124.066 10.8361 124.066 11.943C124.066 13.05 124.667 13.6828 125.74 13.6828C126.809 13.6828 127.411 13.05 127.411 11.943ZM126.142 8.71638C128.174 8.71638 129.672 9.83607 129.672 11.943C129.672 14.0078 128.322 15.1822 125.739 15.1822C123.156 15.1822 121.805 13.994 121.805 11.5375V10.5919C121.805 7.70518 122.648 6.03103 125.284 5.78823L128.883 5.46315C129.111 5.43712 129.312 5.57216 129.312 5.80085V6.66681C129.312 6.93498 129.111 7.24615 128.831 7.27218L126.087 7.50074C124.253 7.64986 123.611 8.28385 123.611 9.85011C124.186 9.04192 125.017 8.71638 126.142 8.71638Z" fill="#004391"/>
<path d="M134.487 14.4804C133.108 14.4804 132.104 13.8318 131.355 11.4023L130.378 8.21658C130.312 8.01538 130.472 7.82582 130.686 7.82582H132.052C132.293 7.82582 132.559 8.01538 132.64 8.27107L133.496 11.0648C133.937 12.4818 134.353 12.8874 134.929 12.8874L136.228 8.27093C136.293 8.01525 136.534 7.82568 136.776 7.82568H138.154C138.368 7.82568 138.515 8.01525 138.462 8.21645L136.749 14.3715C136.146 16.5185 135.344 17.4091 133.805 17.4091C133.27 17.4091 132.533 17.3548 132.104 17.2739C131.877 17.2341 131.703 17.0698 131.703 16.8683V16.1391C131.703 15.9098 131.877 15.7348 132.104 15.7348H132.345C132.64 15.7348 132.896 15.8429 133.202 15.8429C133.832 15.8429 134.247 15.3838 134.487 14.4804Z" fill="#004391"/>
<path d="M141.614 11.4432C141.614 12.9273 142.055 13.5886 143.394 13.5886C144.076 13.5886 144.571 13.3331 144.799 12.968C144.985 12.6719 145.213 12.4819 145.548 12.4819H146.526C146.752 12.4819 146.927 12.6582 146.927 12.8875C146.927 14.4263 145.536 15.1824 143.234 15.1824C140.691 15.1824 139.286 13.9137 139.286 11.443C139.286 8.95841 140.705 7.69043 143.166 7.69043C145.468 7.69043 146.859 8.44608 146.859 9.98631C146.859 10.2158 146.686 10.3897 146.459 10.3897H145.481C145.147 10.3897 144.919 10.2009 144.732 9.9035C144.505 9.54103 144.01 9.2826 143.327 9.2826C142.055 9.2826 141.614 9.94547 141.614 11.4432Z" fill="#004391"/>
<path d="M36.9212 23.1616V20.0907H35.8809V19.7114H38.412V20.0907H37.3678V23.1616H36.9212Z" fill="#004391"/>
<path d="M41.4298 19.7114L42.1104 21.1853C42.198 21.3892 42.2784 21.5924 42.3593 21.7938H42.3678C42.4297 21.6214 42.4954 21.415 42.5828 21.1748L43.1155 19.7114H43.5811L42.8667 21.4873C42.6784 21.952 42.4651 22.4793 42.2272 22.7969C42.0039 23.0788 41.7553 23.2208 41.4503 23.2208C41.3392 23.2208 41.258 23.211 41.2017 23.1907L41.2476 22.827C41.2824 22.8375 41.3343 22.8432 41.4111 22.8432C41.7658 22.8432 41.974 22.4991 42.0801 22.2491C42.1155 22.1736 42.1056 22.1265 42.0646 22.0451L40.9277 19.7114L41.4298 19.7114Z" fill="#004391"/>
<path d="M46.6973 21.4155C46.7922 21.4404 46.9155 21.4511 47.0625 21.4511C47.5944 21.4511 47.9193 21.1909 47.9193 20.715C47.9193 20.2584 47.5994 20.0389 47.1126 20.0389C46.92 20.0389 46.7728 20.0546 46.6973 20.0758V21.4155ZM46.2559 19.7532C46.4678 19.7169 46.7483 19.6855 47.1033 19.6855C47.5378 19.6855 47.8585 19.7881 48.062 19.972C48.2496 20.136 48.3618 20.3865 48.3618 20.6937C48.3618 21.007 48.2701 21.2521 48.0966 21.431C47.8647 21.6817 47.4833 21.81 47.052 21.81C46.92 21.81 46.7984 21.8043 46.6973 21.7781V23.1619H46.2559V19.7532Z" fill="#004391"/>
<path d="M51.6788 19.7114V21.1648C51.6788 21.7063 51.6706 22.1629 51.639 22.6219L51.6496 22.6281C51.822 22.2703 52.0335 21.8964 52.2833 21.4873L53.3887 19.7114H53.8311V23.1613H53.4132V21.6905C53.4132 21.1333 53.4188 20.7238 53.4544 20.2879L53.4389 20.2846C53.2721 20.6631 53.039 21.0633 52.8052 21.4459L51.7353 23.1613H51.2646V19.7114L51.6788 19.7114Z" fill="#004391"/>
<path d="M59.2974 23.0484C59.1345 23.1297 58.8101 23.2172 58.3948 23.2172C57.4308 23.2172 56.7061 22.5974 56.7061 21.4671C56.7061 20.3862 57.4308 19.6553 58.4921 19.6553C58.9161 19.6553 59.1864 19.7467 59.3012 19.8079L59.1964 20.1719C59.0285 20.0905 58.7891 20.0292 58.5058 20.0292C57.7049 20.0292 57.173 20.5463 57.173 21.4507C57.173 22.2955 57.6545 22.8376 58.4846 22.8376C58.7545 22.8376 59.0285 22.7813 59.2076 22.6943L59.2974 23.0484Z" fill="#004391"/>
<path d="M62.985 23.1616V20.0907H61.9473V19.7114H64.4758V20.0907H63.4316V23.1616H62.985Z" fill="#004391"/>
<path d="M67.5824 19.7118V21.1651C67.5824 21.7066 67.5714 22.1632 67.5409 22.6222L67.5508 22.6284C67.725 22.2706 67.9371 21.8967 68.1856 21.4876L69.2911 19.7118H69.7331V23.1616H69.3165V21.6908C69.3165 21.1336 69.3226 20.7241 69.3573 20.2882L69.3419 20.285C69.1751 20.6634 68.9409 21.0636 68.7082 21.4462L67.6382 23.1616H67.166V19.7114L67.5824 19.7118Z" fill="#004391"/>
<path d="M73.1976 19.7115V20.8171C73.1976 21.2867 73.4407 21.5587 73.9241 21.5587C74.1618 21.5587 74.4202 21.4706 74.5969 21.3586V19.7115H75.0443V23.1802H74.5969V21.7063H74.587C74.3497 21.8451 74.0656 21.9227 73.766 21.9227C73.3148 21.9227 72.7568 21.7275 72.7568 20.8845V19.7114L73.1976 19.7115Z" fill="#004391"/>
<path d="M79.9656 19.7114V20.0847H78.5602V21.1748H79.8901V21.5438H78.5602V22.787H80.0412V23.1616H78.1201V19.7114H79.9656Z" fill="#004391"/>
<path d="M85.3154 23.0484C85.1519 23.1297 84.8264 23.2172 84.4111 23.2172C83.4464 23.2172 82.7217 22.5974 82.7217 21.4671C82.7217 20.3862 83.4464 19.6553 84.5079 19.6553C84.9351 19.6553 85.2022 19.7467 85.3199 19.8079L85.2124 20.1719C85.0457 20.0905 84.8068 20.0292 84.5233 20.0292C83.7203 20.0292 83.1889 20.5463 83.1889 21.4507C83.1889 22.2955 83.6709 22.8376 84.5028 22.8376C84.7718 22.8376 85.0457 22.7813 85.2233 22.6943L85.3154 23.0484Z" fill="#004391"/>
<path d="M88.6093 19.7114V21.2423H88.7475L89.9174 19.7114H90.4514L89.1567 21.2923C89.7211 21.3692 89.9379 21.7163 90.1165 22.1828C90.2429 22.5362 90.3391 22.8532 90.4917 23.1614H90.0149C89.8934 22.9258 89.7965 22.6174 89.7045 22.3466C89.548 21.8907 89.3299 21.5787 88.7507 21.5787H88.6093V23.1614H88.1729V19.7116L88.6093 19.7114Z" fill="#004391"/>
<path d="M93.646 19.7118V21.1651C93.646 21.7066 93.6361 22.1632 93.6057 22.6222L93.6146 22.6284C93.7875 22.2706 94.0007 21.8967 94.2493 21.4876L95.3557 19.7118H95.7966V23.1616H95.3813V21.6908C95.3813 21.1336 95.3864 20.7241 95.4211 20.2882L95.4057 20.285C95.2389 20.6634 95.0051 21.0636 94.7733 21.4462L93.7015 23.1616H93.2295V19.7114L93.646 19.7118Z" fill="#004391"/>
<path d="M99.8532 18.9839C99.8737 19.1489 99.9237 19.3079 100.162 19.3079C100.396 19.3079 100.453 19.1534 100.472 18.9839H100.813C100.786 19.3265 100.583 19.5372 100.152 19.5372C99.7364 19.5372 99.5389 19.3227 99.5132 18.9839H99.8532ZM99.2952 19.7117V21.1651C99.2952 21.7066 99.2852 22.1632 99.2551 22.6222L99.2647 22.6283C99.4366 22.2706 99.6502 21.8966 99.899 21.4876L101.005 19.7117H101.447V23.1616H101.03V21.6907C101.03 21.1336 101.035 20.7241 101.071 20.2881L101.056 20.2849C100.888 20.6634 100.654 21.0635 100.421 21.4462L99.3516 23.1616H98.8799V19.7114L99.2952 19.7117Z" fill="#004391"/>
<path d="M108.177 21.4564C108.177 22.1929 108.571 22.8533 109.267 22.8533C109.966 22.8533 110.362 22.2041 110.362 21.4213C110.362 20.7345 110.007 20.0192 109.271 20.0192C108.541 20.0192 108.177 20.6996 108.177 21.4564ZM110.829 21.3988C110.829 22.5871 110.113 23.2172 109.24 23.2172C108.338 23.2172 107.704 22.5106 107.704 21.4671C107.704 20.3706 108.379 19.6553 109.292 19.6553C110.225 19.6553 110.829 20.3769 110.829 21.3988Z" fill="#004391"/>
<path d="M113.711 19.7114H116.184V23.1616H115.74V20.0847H114.151V23.1616H113.711V19.7114Z" fill="#004391"/>
<path d="M121.11 19.7114V20.0847H119.704V21.1748H121.034V21.5438H119.704V22.787H121.185V23.1616H119.261V19.7114H121.11Z" fill="#004391"/>
<path d="M124.508 21.4155C124.605 21.4404 124.726 21.4511 124.874 21.4511C125.406 21.4511 125.731 21.1909 125.731 20.715C125.731 20.2584 125.413 20.0389 124.925 20.0389C124.732 20.0389 124.585 20.0546 124.508 20.0758V21.4155ZM124.067 19.7532C124.281 19.7169 124.56 19.6855 124.916 19.6855C125.35 19.6855 125.67 19.7881 125.873 19.972C126.062 20.136 126.174 20.3865 126.174 20.6937C126.174 21.007 126.082 21.2521 125.91 21.431C125.677 21.6817 125.294 21.81 124.864 21.81C124.732 21.81 124.61 21.8043 124.508 21.7781V23.1619H124.067V19.7532Z" fill="#004391"/>
<path d="M130.32 21.7278L129.986 20.7347C129.909 20.5085 129.858 20.3045 129.808 20.1051H129.796C129.747 20.3095 129.691 20.5209 129.625 20.7299L129.291 21.7278H130.32ZM129.2 22.0762L128.844 23.1618H128.387L129.548 19.7119H130.082L131.248 23.1618H130.776L130.412 22.0762H129.2Z" fill="#004391"/>
<path d="M134.487 23.1616V20.0907H133.446V19.7114H135.978V20.0907H134.934V23.1616H134.487Z" fill="#004391"/>
<path d="M138.757 21.4564C138.757 22.1929 139.151 22.8533 139.848 22.8533C140.548 22.8533 140.943 22.2041 140.943 21.4213C140.943 20.7345 140.588 20.0192 139.852 20.0192C139.121 20.0192 138.757 20.6996 138.757 21.4564ZM141.41 21.3988C141.41 22.5871 140.694 23.2172 139.823 23.2172C138.919 23.2172 138.285 22.5106 138.285 21.4671C138.285 20.3706 138.959 19.6553 139.874 19.6553C140.805 19.6553 141.41 20.3769 141.41 21.3988Z" fill="#004391"/>
<path d="M144.733 21.4155C144.83 21.4404 144.951 21.4511 145.1 21.4511C145.631 21.4511 145.957 21.1909 145.957 20.715C145.957 20.2584 145.637 20.0389 145.15 20.0389C144.957 20.0389 144.81 20.0546 144.733 20.0758V21.4155ZM144.292 19.7532C144.506 19.7169 144.784 19.6855 145.141 19.6855C145.576 19.6855 145.895 19.7881 146.098 19.972C146.287 20.136 146.397 20.3865 146.397 20.6937C146.397 21.007 146.306 21.2521 146.134 21.431C145.902 21.6817 145.52 21.81 145.089 21.81C144.957 21.81 144.837 21.8043 144.733 21.7781V23.1619H144.292V19.7532Z" fill="#004391"/>
<path fill-rule="evenodd" clip-rule="evenodd" d="M93.7903 9.95264C94.5792 9.95264 95.2184 10.5975 95.2184 11.3931C95.2184 12.1885 94.5792 12.8335 93.7903 12.8335C93.0018 12.8335 92.3623 12.1885 92.3623 11.3931C92.3623 10.5975 93.0018 9.95264 93.7903 9.95264Z" fill="#004391"/>
</svg>
