<svg width="147" height="40" viewBox="0 0 147 40" fill="none" xmlns="http://www.w3.org/2000/svg">
<path d="M16.3839 36.6067C16.5085 36.6709 16.5711 36.7577 16.5711 36.8694C16.5711 37.0429 16.4737 37.1312 16.2779 37.1312C16.2779 37.1312 16.2245 37.1154 16.1178 37.0845L2.75005 30.772V36.7275C2.75005 36.9335 2.64251 37.0369 2.42974 37.0369C2.23477 37.0369 2.13574 36.9335 2.13574 36.7275V21.4354C2.13574 21.2445 2.234 21.1486 2.42974 21.1486C2.64251 21.1486 2.75005 21.2445 2.75005 21.4354V30.0814L16.0381 21.1977C16.1093 21.1494 16.1804 21.1252 16.2516 21.1252C16.4288 21.1252 16.5185 21.2128 16.5185 21.3886C16.5185 21.4512 16.4737 21.5229 16.3847 21.6045L3.17557 30.4135L16.3839 36.6067ZM19.5854 32.1539C20.5641 32.2014 21.5599 32.2248 22.5742 32.2248C24.7799 32.2248 26.417 32.0897 27.484 31.8203C30.099 31.0905 31.4065 29.4218 31.4065 26.818C31.4065 25.135 30.7829 23.8565 29.5381 22.9841C28.7729 22.412 27.8662 22.0384 26.8163 21.8648C26.3714 21.8014 25.9002 21.7539 25.402 21.7222C24.9037 21.6897 24.3792 21.6746 23.8283 21.6746H19.5854V32.1539ZM19.5854 36.7501C19.5854 36.9403 19.4786 37.0369 19.2651 37.0369C19.0701 37.0369 18.9719 36.9403 18.9719 36.7501V21.7441C18.9719 21.538 19.016 21.3803 19.105 21.2694C19.1939 21.1901 19.3719 21.1486 19.638 21.1486H23.8291C25.7316 21.1486 27.1992 21.3312 28.2306 21.698C29.7075 22.206 30.7659 23.0316 31.4065 24.175C31.8336 24.969 32.0464 25.8573 32.0464 26.8414C32.0464 27.8912 31.8243 28.8271 31.3795 29.6528C30.9346 30.4792 30.2855 31.129 29.4313 31.6067C28.5779 32.098 27.5907 32.415 26.4704 32.5584C25.9188 32.6218 25.3316 32.6701 24.7095 32.7018C24.0867 32.7328 23.4368 32.7494 22.7614 32.7494C21.7115 32.7494 20.6531 32.7245 19.5862 32.6769L19.5854 36.7501ZM48.963 22.0777L35.5156 37.0128C35.4274 37.1078 35.3291 37.1546 35.2223 37.1546C35.0096 37.1546 34.902 37.0437 34.902 36.8218V21.4354C34.902 21.2445 35.0096 21.1486 35.2223 21.1486C35.4189 21.1486 35.5156 21.2445 35.5156 21.4354V36.1312L48.9908 21.1743C49.062 21.0641 49.151 21.0067 49.2578 21.0067C49.4705 21.0067 49.5781 21.1252 49.5781 21.3645V36.7275C49.5781 36.9335 49.4798 37.0369 49.2848 37.0369C49.0713 37.0369 48.9637 36.9335 48.9637 36.7275L48.963 22.0777ZM66.6007 21.1486C66.8134 21.1486 66.9217 21.2445 66.9217 21.4354V36.7501C66.9217 36.9403 66.8142 37.0369 66.6007 37.0369C66.4057 37.0369 66.3074 36.9403 66.3074 36.7501V21.6731H54.4329V36.7501C54.4329 36.9403 54.3362 37.0369 54.1397 37.0369C53.9262 37.0369 53.8194 36.9403 53.8194 36.7501V21.6731H52.6194C52.4059 21.6731 52.2983 21.5863 52.2983 21.4112C52.2983 21.2361 52.4059 21.1478 52.6194 21.1478L66.6007 21.1486ZM75.6195 36.7501C75.6195 36.9403 75.5212 37.0369 75.3263 37.0369C75.1305 37.0369 75.0323 36.9403 75.0323 36.7501V21.6731H69.1623C68.9666 21.6731 68.8691 21.5863 68.8691 21.4112C68.8691 21.2361 68.9658 21.1478 69.1623 21.1478H81.4902C81.6852 21.1478 81.7827 21.2361 81.7827 21.4112C81.7827 21.5863 81.6852 21.6731 81.4902 21.6731H75.6195V36.7501ZM91.7083 21.4354C90.6243 21.4354 89.5613 21.6309 88.5207 22.0188C87.4793 22.4075 86.5586 22.9584 85.7586 23.6731C84.9594 24.3894 84.3397 25.218 83.9049 26.1629C83.4693 27.1071 83.2503 28.0875 83.2503 29.1041C83.2503 30.1033 83.4685 31.0769 83.9049 32.0226C84.3397 32.966 84.9586 33.7954 85.7586 34.5116C87.4306 36.0037 89.4499 36.7494 91.8158 36.7494C94.1825 36.7494 96.201 36.0037 97.873 34.5116C98.673 33.7803 99.2911 32.9516 99.7267 32.0226C100.162 31.0935 100.381 30.1199 100.381 29.1041C100.381 28.0867 100.163 27.1026 99.7267 26.1501C99.2911 25.1984 98.673 24.3811 97.873 23.6965C96.1469 22.1894 94.092 21.4354 91.7083 21.4354ZM91.9218 20.9116C93.5937 20.9116 95.1682 21.3154 96.6444 22.126C98.1399 22.9516 99.2695 24.0377 100.034 25.3878C100.71 26.5637 101.048 27.8014 101.048 29.1041C101.048 30.1682 100.813 31.2045 100.343 32.212C99.8699 33.2211 99.2068 34.1048 98.3534 34.8686C97.4823 35.6467 96.4811 36.2414 95.3515 36.6543C94.222 37.0671 93.0444 37.2731 91.8166 37.2731C90.5895 37.2731 89.412 37.0671 88.2808 36.6543C87.1513 36.2414 86.1509 35.6467 85.2797 34.8686C84.4256 34.1048 83.7633 33.2211 83.2913 32.212C82.8209 31.2045 82.5857 30.1682 82.5857 29.1041C82.5857 27.5629 83.0391 26.135 83.9459 24.8165C84.8348 23.5139 86.0542 22.5131 87.6023 21.815C88.9153 21.2128 90.3566 20.9116 91.9218 20.9116ZM104.756 32.2482V36.7501C104.756 36.9403 104.659 37.0369 104.462 37.0369C104.25 37.0369 104.142 36.9403 104.142 36.7501V32.2482H102.942C102.728 32.2482 102.622 32.1607 102.622 31.9863C102.622 31.812 102.728 31.7245 102.942 31.7245H104.142V21.4354C104.142 21.2445 104.25 21.1486 104.462 21.1486C104.659 21.1486 104.756 21.2445 104.756 21.4354V31.7252H116.63V21.4354C116.63 21.2445 116.728 21.1486 116.923 21.1486C117.138 21.1486 117.244 21.2445 117.244 21.4354V36.7501C117.244 36.9403 117.138 37.0369 116.923 37.0369C116.728 37.0369 116.63 36.9403 116.63 36.7501V32.2482H104.756Z" fill="black" stroke="black" stroke-width="0.216" stroke-miterlimit="22.9256"/>
<path d="M64.9521 9.18272H69.4171V9.86725H67.6477V14.0605H66.7216V9.86725H64.9521V9.18272ZM70.3819 15.9382L70.2782 15.1631C70.484 15.2114 70.6604 15.2363 70.812 15.2363C71.0186 15.2363 71.1842 15.2046 71.3072 15.1427C71.4333 15.0823 71.5339 14.9971 71.6136 14.8854C71.6739 14.8046 71.7668 14.5993 71.8983 14.2718C71.9153 14.2242 71.9439 14.1586 71.9811 14.0695L69.8975 9.18197H70.901L72.0445 12.0054C72.1915 12.3646 72.3261 12.7412 72.4422 13.1367C72.5505 12.7578 72.6774 12.3872 72.8252 12.025L73.9996 9.18197H74.9303L72.8414 14.1427C72.6186 14.6786 72.4422 15.0469 72.3199 15.2491C72.1536 15.5216 71.9656 15.7208 71.7513 15.8484C71.5362 15.9752 71.2809 16.0393 70.9846 16.0393C70.8027 16.0401 70.6031 16.0061 70.3819 15.9382ZM75.6019 15.9284V9.18272H76.4491V9.81668C76.6487 9.56838 76.8754 9.38272 77.1268 9.25819C77.3775 9.13442 77.6839 9.07253 78.0413 9.07253C78.511 9.07253 78.9241 9.1797 79.2823 9.39329C79.6429 9.60838 79.9121 9.91102 80.0939 10.3012C80.2781 10.6914 80.3693 11.1193 80.3693 11.5842C80.3693 12.0839 80.2688 12.5329 80.0653 12.9329C79.8641 13.3329 79.5709 13.6386 79.1864 13.8506C78.8011 14.0627 78.3965 14.1691 77.974 14.1691C77.6638 14.1691 77.386 14.111 77.1392 13.9956C76.8924 13.8793 76.6905 13.7322 76.5311 13.5548V15.9284H75.6019ZM76.4437 11.6491C76.4437 12.2756 76.586 12.7397 76.8731 13.0416C77.1586 13.3405 77.5067 13.4914 77.9129 13.4914C78.3261 13.4914 78.6804 13.3352 78.9752 13.0235C79.2699 12.7133 79.4185 12.2325 79.4185 11.5797C79.4185 10.9578 79.273 10.4937 78.9852 10.1835C78.6974 9.87404 78.3539 9.71857 77.9547 9.71857C77.5578 9.71857 77.205 9.88385 76.9009 10.2122C76.5961 10.542 76.4437 11.022 76.4437 11.6491ZM81.1454 11.6205C81.1454 10.7178 81.4262 10.0484 81.9933 9.61366C82.4645 9.25291 83.0409 9.07178 83.7202 9.07178C84.4753 9.07178 85.0927 9.2914 85.5724 9.7314C86.0521 10.1714 86.2904 10.7774 86.2904 11.5518C86.2904 12.1797 86.1844 12.674 85.9724 13.0325C85.7612 13.3933 85.4517 13.6725 85.0486 13.8718C84.6416 14.071 84.2006 14.1691 83.7209 14.1691C82.9519 14.1691 82.3306 13.951 81.8556 13.5125C81.3813 13.0756 81.1454 12.4446 81.1454 11.6205ZM82.1016 11.6205C82.1016 12.2461 82.2548 12.7133 82.562 13.0227C82.8691 13.3344 83.2552 13.4906 83.7209 13.4906C84.1828 13.4906 84.5681 13.3329 84.8745 13.022C85.1801 12.7095 85.3333 12.234 85.3333 11.5933C85.3333 10.9895 85.1801 10.5322 84.8714 10.222C84.5627 9.91102 84.1782 9.75631 83.7209 9.75631C83.2552 9.75631 82.8691 9.91178 82.562 10.2197C82.2548 10.5299 82.1016 10.9971 82.1016 11.6205ZM87.3867 9.18272H91.7216V14.0597H90.7901V9.86649H88.319V14.0597H87.3874L87.3867 9.18272ZM96.8751 12.4891L97.8376 12.594C97.6859 13.0944 97.4051 13.4816 96.9958 13.7578C96.585 14.0318 96.0604 14.1699 95.4237 14.1699C94.6191 14.1699 93.9831 13.951 93.5127 13.5118C93.0423 13.0725 92.8071 12.4567 92.8071 11.6635C92.8071 10.8423 93.0454 10.2054 93.5204 9.75253C93.9962 9.2997 94.6129 9.07253 95.3719 9.07253C96.1061 9.07253 96.7072 9.29517 97.1707 9.73895C97.6372 10.182 97.8693 10.8076 97.8693 11.6122C97.8693 11.662 97.8678 11.7359 97.8639 11.8333H93.7703C93.8028 12.3691 93.9746 12.7797 94.281 13.0635C94.5881 13.3488 94.9695 13.4914 95.4291 13.4914C95.7688 13.4914 96.0604 13.4114 96.3026 13.2514C96.544 13.0929 96.7351 12.8386 96.8751 12.4891ZM93.8198 11.1525H96.8875C96.8457 10.7435 96.7281 10.434 96.5355 10.2303C96.2392 9.91253 95.8539 9.75178 95.3827 9.75178C94.9548 9.75178 94.5959 9.87857 94.3034 10.1322C94.0133 10.3865 93.8523 10.7269 93.8198 11.1525ZM99.0082 15.9284V9.18272H99.8554V9.81668C100.055 9.56838 100.282 9.38272 100.534 9.25819C100.785 9.13442 101.089 9.07253 101.448 9.07253C101.917 9.07253 102.331 9.1797 102.689 9.39329C103.049 9.60838 103.318 9.91102 103.5 10.3012C103.684 10.6914 103.776 11.1193 103.776 11.5842C103.776 12.0839 103.675 12.5329 103.472 12.9329C103.27 13.3329 102.977 13.6386 102.593 13.8506C102.208 14.0627 101.804 14.1691 101.38 14.1691C101.069 14.1691 100.792 14.111 100.546 13.9956C100.299 13.8793 100.098 13.7322 99.9381 13.5548V15.9284H99.0082ZM99.8499 11.6491C99.8499 12.2756 99.9931 12.7397 100.279 13.0416C100.566 13.3405 100.913 13.4914 101.319 13.4914C101.732 13.4914 102.087 13.3352 102.381 13.0235C102.677 12.7133 102.825 12.2325 102.825 11.5797C102.825 10.9578 102.68 10.4937 102.392 10.1835C102.104 9.87404 101.76 9.71857 101.361 9.71857C100.964 9.71857 100.612 9.88385 100.308 10.2122C100.002 10.542 99.8499 11.022 99.8499 11.6491ZM108.482 13.4589C108.136 13.7193 107.804 13.9012 107.485 14.0099C107.167 14.1171 106.825 14.1699 106.46 14.1699C105.855 14.1699 105.393 14.0401 105.069 13.7774C104.745 13.5156 104.583 13.1797 104.583 12.7744C104.583 12.5344 104.643 12.3171 104.765 12.1193C104.887 11.9216 105.049 11.7631 105.246 11.6439C105.446 11.5246 105.668 11.434 105.916 11.3729C106.098 11.3306 106.374 11.2884 106.743 11.2491C107.494 11.1691 108.049 11.0756 108.403 10.9639C108.406 10.8506 108.408 10.7782 108.408 10.7488C108.408 10.4122 108.32 10.1737 108.143 10.0371C107.907 9.84838 107.552 9.75631 107.085 9.75631C106.647 9.75631 106.325 9.82272 106.114 9.96008C105.906 10.0959 105.752 10.3382 105.651 10.6846L104.741 10.5729C104.824 10.228 104.96 9.94725 105.15 9.73593C105.338 9.52234 105.613 9.35857 105.972 9.24385C106.33 9.12914 106.746 9.07178 107.219 9.07178C107.688 9.07178 108.067 9.12159 108.36 9.21819C108.654 9.31706 108.869 9.43932 109.008 9.58876C109.147 9.73819 109.241 9.92385 109.298 10.1525C109.328 10.2929 109.344 10.5457 109.344 10.9133V12.0159C109.344 12.785 109.364 13.2718 109.404 13.474C109.443 13.6778 109.522 13.8733 109.639 14.0597H108.667C108.572 13.8891 108.509 13.6884 108.482 13.4589ZM108.405 11.6114C108.066 11.7352 107.559 11.8378 106.885 11.9254C106.502 11.9737 106.229 12.0288 106.072 12.0899C105.914 12.151 105.791 12.2408 105.705 12.3593C105.619 12.4771 105.574 12.6069 105.574 12.7518C105.574 12.9722 105.67 13.1556 105.857 13.3035C106.044 13.4491 106.319 13.5231 106.68 13.5231C107.039 13.5231 107.359 13.4544 107.638 13.314C107.916 13.1744 108.122 12.9835 108.253 12.742C108.354 12.5548 108.403 12.2793 108.403 11.9156V11.6114H108.405ZM110.053 9.18272H114.518V9.86725H112.749V14.0605H111.823V9.86725H110.054L110.053 9.18272ZM114.941 11.6205C114.941 10.7178 115.223 10.0484 115.791 9.61366C116.261 9.25291 116.838 9.07178 117.517 9.07178C118.272 9.07178 118.89 9.2914 119.368 9.7314C119.849 10.1714 120.087 10.7774 120.087 11.5518C120.087 12.1797 119.981 12.674 119.769 13.0325C119.558 13.3933 119.248 13.6725 118.845 13.8718C118.439 14.071 117.997 14.1691 117.518 14.1691C116.75 14.1691 116.128 13.951 115.653 13.5125C115.178 13.0756 114.941 12.4446 114.941 11.6205ZM115.898 11.6205C115.898 12.2461 116.05 12.7133 116.359 13.0227C116.665 13.3344 117.052 13.4906 117.517 13.4906C117.978 13.4906 118.364 13.3329 118.671 13.022C118.977 12.7095 119.13 12.234 119.13 11.5933C119.13 10.9895 118.977 10.5322 118.667 10.222C118.36 9.91102 117.975 9.75631 117.517 9.75631C117.052 9.75631 116.664 9.91178 116.359 10.2197C116.051 10.5299 115.898 10.9971 115.898 11.6205ZM121.179 15.9284V9.18272H122.026V9.81668C122.226 9.56838 122.452 9.38272 122.704 9.25819C122.955 9.13442 123.261 9.07253 123.619 9.07253C124.089 9.07253 124.503 9.1797 124.86 9.39329C125.221 9.60838 125.49 9.91102 125.672 10.3012C125.856 10.6914 125.948 11.1193 125.948 11.5842C125.948 12.0839 125.847 12.5329 125.644 12.9329C125.442 13.3329 125.149 13.6386 124.764 13.8506C124.38 14.0627 123.974 14.1691 123.551 14.1691C123.242 14.1691 122.965 14.111 122.716 13.9956C122.47 13.8793 122.268 13.7322 122.11 13.5548V15.9284H121.179ZM122.021 11.6491C122.021 12.2756 122.165 12.7397 122.45 13.0416C122.736 13.3405 123.084 13.4914 123.49 13.4914C123.903 13.4914 124.259 13.3352 124.553 13.0235C124.847 12.7133 124.996 12.2325 124.996 11.5797C124.996 10.9578 124.851 10.4937 124.562 10.1835C124.275 9.87404 123.931 9.71857 123.532 9.71857C123.135 9.71857 122.783 9.88385 122.478 10.2122C122.174 10.542 122.021 11.022 122.021 11.6491Z" fill="black"/>
<path fill-rule="evenodd" clip-rule="evenodd" d="M118.051 2.48457C118.18 2.48457 118.192 2.56608 118.193 2.56457C118.278 2.49362 118.228 2.2574 118.308 2.13664L118.444 2.04004L118.623 2.12004L118.73 2.34344L118.842 2.54268C118.895 2.39551 118.901 2.29664 118.901 2.15928C118.901 2.11174 119.04 2.0491 119.04 2.0491L119.138 2.08004L119.259 2.3057L119.288 2.37287L119.334 2.49061L119.382 2.64532L119.464 2.45966C119.592 2.27853 119.759 2.31777 119.908 2.40457C120 2.4574 119.99 2.43928 119.99 2.54645C119.99 2.59853 119.994 2.64079 119.997 2.67174C120.001 2.69664 120.01 2.71551 120.047 2.73589C120.12 2.71702 120.218 2.63325 120.251 2.63702C120.284 2.64155 120.336 2.64155 120.336 2.64155L120.439 2.69287L120.451 2.80306L120.442 2.88985C120.442 2.88985 120.451 2.87777 120.455 2.91325C120.459 2.94872 120.501 2.98494 120.501 2.98494L120.574 3.03627L120.672 3.06796C122.994 3.37211 125.738 3.97287 127.791 5.10645L127.964 5.20985L128.099 5.30042L128.598 5.66344L128.646 5.69815L128.786 5.80985L128.879 5.88834L129.362 6.26344L129.679 6.56004L129.753 6.63928L130.341 7.29438L130.687 7.73966L131.125 8.46419L131.281 8.74042L131.565 9.30193L131.9 9.92683L132.066 10.3283L132.243 10.7955L132.317 11L132.464 11.4348L132.677 12.1782L132.742 12.4385L132.79 12.6672L132.888 13.1729L132.986 13.6393L133.011 13.797L133.05 14.0182L133.19 15.0461L133.231 15.3389L133.265 15.631L133.281 15.8763L133.288 16.7215L133.281 17.2189L133.273 17.4876L133.26 17.9442C133.257 18.0732 133.254 18.1993 133.24 18.1985L132.147 18.1668C132.106 17.9978 132.082 17.954 131.926 17.8589C131.713 17.7306 131.518 17.671 131.281 17.6144L130.879 17.5427L129.925 17.4559L129.622 17.4717L128.944 17.5585L128.725 17.6061L128.007 17.8385L127.263 18.1751L126.944 18.3638L126.43 18.751L126.12 19.114L125.899 19.477L125.655 19.9034L125.482 20.2657L125.169 21.0989L124.968 21.9585L124.841 22.9804L124.812 23.92L124.841 24.3208L125.029 25.3683L125.124 25.7578L125.245 26.2053L125.377 26.6129L125.548 27.0951L125.682 27.4906L125.818 27.8212L125.949 28.1216L126.136 28.4974L126.326 28.8295L126.781 29.48L127.149 29.9631L127.487 30.3744L127.826 30.7397L128.166 31.0966L128.569 31.508L128.994 31.8914L129.316 32.1442L129.75 32.4936L130.401 32.9336L130.927 33.2544L131.935 33.7412L133.422 34.2687L134.009 34.428L134.541 34.5223L135.134 34.5751L135.862 34.6008L136.667 34.5683L137.137 34.5465L137.651 34.4989L138.133 34.4121L138.648 34.2748L139.091 34.1329L139.447 33.9925L139.897 33.788L140.332 33.5578L140.734 33.3019L141.686 32.6461L142.156 32.2529L142.572 31.874L142.901 31.5397L143.15 31.2665L143.383 30.9834L143.713 30.5163L144.019 30.0415L144.272 29.6219L144.536 29.1766L144.765 28.7261L144.976 28.2476L145.147 27.7495L145.322 27.1615L145.426 26.7797L145.524 26.3132L145.564 26.0114L145.597 25.5615L145.618 25.1117L145.616 24.7646L145.599 24.4287L145.568 24.0785L145.53 23.714L145.497 23.4431L145.452 23.1434L145.387 22.8076L145.318 22.4483L145.261 22.1329L145.196 21.84L145.103 21.52L144.987 21.1729L144.861 20.8355L144.69 20.4725L144.429 20.0627L144.222 19.7736L143.969 19.4582L143.65 19.1419L143.373 18.9132L143.051 18.6793L142.735 18.4755L142.466 18.3314L142.177 18.2046L141.862 18.1351L141.536 18.1065L141.218 18.1148L140.901 18.1593L140.597 18.234L140.279 18.3487L140.001 18.4785L139.772 18.6121L139.483 18.7993L139.25 18.9759L139.004 19.1804L138.772 19.3872L138.563 19.6265L138.375 19.8597L138.189 20.1291L137.989 20.437L137.821 20.7366L137.657 21.0302L137.507 21.3329L137.38 21.6015L137.265 21.9261L137.184 22.2151L137.11 22.4982L137.037 22.8272L136.957 23.1948L136.907 23.4785L136.867 23.8498L136.861 24.2891L136.906 24.6234L137.018 24.9804L137.141 25.2476L137.345 25.5676L137.525 25.8249L137.753 26.0891L137.982 26.3178L138.185 26.4936L138.419 26.668L138.663 26.8204L138.915 26.9231L139.173 26.9948L139.5 27.0378L139.929 27.0582L140.345 27.0665L140.68 27.0582L141.097 27.074L141.432 27.1495C141.483 27.1721 141.532 27.1948 141.583 27.2189C141.623 27.237 141.662 27.2566 141.7 27.2763L141.929 27.437L142.074 27.6355L142.191 27.9042L142.255 28.1532L142.285 28.4808L142.279 28.7487L142.262 29.0091L142.229 29.2846L142.174 29.5729L142.107 29.8355L142.003 30.1193L141.838 30.4559L141.686 30.7125L141.52 30.9472L141.34 31.1472L141.039 31.3721L140.765 31.5034L140.364 31.6287L140.034 31.714L139.692 31.7759L139.16 31.828L138.624 31.8272L138.039 31.7668L137.554 31.6491L137.063 31.4702L136.581 31.2076L136.221 30.9729L135.849 30.6899L135.419 30.2378L135.165 29.9102L134.984 29.6325L134.793 29.2921L134.615 28.9012L134.459 28.5163L134.322 28.12L134.189 27.6642L134.076 27.268L133.97 26.7291L133.915 26.2212L133.881 25.754L133.825 25.0725L133.864 23.9397L133.937 23.0332L134.032 22.3638L134.129 21.7419L134.267 21.1849L134.453 20.6566L134.68 20.1125L134.882 19.6642L135.087 19.2046L135.316 18.7487L135.55 18.4091L135.962 17.9246L136.351 17.5321L136.786 17.1344L137.203 16.8023L137.578 16.5578L137.933 16.3668L138.329 16.1706L138.654 16.0332L139.015 15.9472L139.652 15.8966L140.174 15.9027L140.769 15.9532L141.309 16.0755L141.752 16.2393L142.134 16.4076L142.6 16.668L142.941 16.8491L143.451 17.1766L143.76 17.4053L144.006 17.5948L144.299 17.8559L144.679 18.2687L144.913 18.5646L145.246 19.0144L145.522 19.4174L145.719 19.757L145.894 20.1019L146.078 20.5004L146.224 20.8868L146.315 21.1955L146.441 21.7012L146.535 22.2144L146.614 22.7019L146.674 23.1434L146.703 23.474L146.752 24.2415L146.769 24.8778L146.751 25.5661L146.686 26.1736L146.637 26.6453L146.536 27.1955L146.429 27.6287L146.243 28.3042L146.03 28.9412L145.804 29.5336L145.478 30.1925L145.225 30.6106L144.933 31.1268L144.575 31.6657L144.244 32.0966L143.903 32.4997L143.408 33.0091L142.995 33.3872L142.518 33.7668L142 34.1404L141.373 34.5253L140.66 34.9246L139.992 35.2514L139.381 35.5034L138.607 35.7744L137.946 35.9532L137.235 36.1223L136.696 36.2423L136.12 36.3268L135.675 36.3751L134.916 36.4476L134.338 36.477L133.627 36.4936L132.973 36.4702L132.375 36.4182L131.837 36.3593L130.916 36.2566L129.848 36.031L128.158 35.4431L127.01 34.8868L126.318 34.4815L125.562 33.994L124.885 33.4189L124.34 32.9631L123.701 32.3812L123.196 31.7321L122.687 31.0008L122.291 30.3215L121.951 29.6446L121.715 29.0665L121.495 28.4378L121.306 27.7231L121.199 27.1548L121.125 26.3842L121.094 25.6778L121.094 24.9887L121.129 24.3653L121.199 23.8597L121.301 23.3442L121.466 22.6582L121.657 21.9857L121.91 21.2997L122.229 20.6589L122.718 19.8438L123.171 19.1555L123.896 18.3744L124.582 17.7555L125.302 17.2332L125.99 16.8627L126.615 16.5827L127.326 16.3208L128.038 16.1306L128.868 16.0046L129.62 15.9887L130.386 16.0868L131.244 16.3283L131.678 16.4785L132.184 16.6763L132.37 16.7314L132.392 16.0438V15.5615L132.321 14.8582L132.223 14.1706L132.117 13.6257L131.987 12.9782L131.875 12.4415L131.733 11.8159L131.538 11.1283L131.374 10.6861L131.207 10.2883L130.769 9.47702L130.324 8.68985L129.871 8.11023L129.204 7.26042L128.616 6.65211L127.665 5.91777L126.818 5.47174L126.082 5.16155L125.144 4.91853L124.229 4.72079C123.483 4.57211 122.438 4.34796 121.682 4.4823L121.559 4.50419L121.436 4.52532L121.315 4.54721L121.193 4.56834L121.07 4.59023L120.947 4.61136L120.825 4.63325L120.67 4.66419L120.39 4.56532L120.197 5.02042L120.154 5.09891L119.919 5.12079L119.713 4.77287L119.662 4.88457L119.623 5.02947L119.568 5.154L119.369 5.1691L119.241 5.05891L119.194 4.95476L119.156 4.86645L119.103 5.00381L118.97 5.36457L118.784 5.35174L118.751 5.1774L118.653 4.94117L118.547 5.14419L118.506 5.24079L118.216 5.26042L118.141 4.95853L118.109 4.6023L118.093 4.34947L118.083 3.93966L118.076 3.514L118.072 3.21664L118.059 2.674L118.051 2.48457Z" fill="#750502"/>
<path fill-rule="evenodd" clip-rule="evenodd" d="M133.201 18.8273L133.087 21.4733L133.054 22.4643L133.004 24.5284L132.866 31.2228L131.835 31.2114L131.842 30.4462L131.85 28.5888L131.897 25.4869L131.913 24.5103L131.946 23.6446L132.011 21.5352L132.06 20.4967L132.142 18.7646L133.201 18.8273Z" fill="#750502"/>
<path d="M0.864258 13.5255C0.889016 13.4999 0.913774 13.4674 0.940079 13.4274C0.966384 13.3852 0.996558 13.3414 1.03292 13.2908L1.43601 13.0086C1.4863 12.9474 1.56212 12.872 1.66193 12.7769C1.76405 12.684 1.89016 12.5693 2.04026 12.435C2.05805 12.3957 2.08668 12.3497 2.12614 12.2984C2.16714 12.2478 2.21588 12.1965 2.27159 12.1452C2.32033 12.0991 2.36985 12.0561 2.41859 12.0161C2.46733 11.9738 2.51375 11.9338 2.55476 11.8954C2.60659 11.8403 2.65688 11.7874 2.70485 11.7354C2.75205 11.6825 2.80002 11.6297 2.84876 11.5806C2.90369 11.5316 2.96326 11.4916 3.02206 11.4629C3.08164 11.435 3.14585 11.4206 3.21548 11.4206C3.29285 11.4206 3.35165 11.4297 3.39111 11.4493C3.43212 11.4697 3.45378 11.4969 3.45687 11.5338C3.42128 11.6138 3.38492 11.6954 3.34701 11.7776L3.37796 11.8267C3.53192 11.764 3.65184 11.721 3.74004 11.6916C3.82747 11.6637 3.88317 11.6493 3.90793 11.6493C4.16479 11.6493 4.35435 11.7271 4.48355 11.8855C4.61121 12.044 4.67543 12.2848 4.67543 12.6025C4.67543 12.6644 4.66769 12.7361 4.65376 12.8169C4.63906 12.8969 4.61663 12.9867 4.58568 13.0833C4.55009 13.1904 4.51218 13.278 4.47272 13.3489C4.43094 13.4214 4.39381 13.4727 4.35976 13.5037C4.37369 13.5489 4.38994 13.5814 4.40618 13.6003C4.42398 13.6191 4.44719 13.6312 4.47427 13.6312C4.50289 13.6312 4.53075 13.6221 4.56169 13.6033C4.59109 13.5852 4.62823 13.5595 4.66924 13.5233C4.70328 13.6018 4.73732 13.6833 4.77136 13.7671C4.80463 13.8501 4.83867 13.9331 4.87349 14.0138C4.81082 14.0705 4.7497 14.1263 4.68858 14.1799C4.629 14.2327 4.56711 14.2855 4.50057 14.3346C4.42011 14.4018 4.34506 14.4516 4.27311 14.4818C4.20193 14.5112 4.12921 14.5271 4.06035 14.5271C3.97988 14.5271 3.91335 14.5074 3.86151 14.4667C3.80813 14.4289 3.76635 14.3723 3.73463 14.3014C3.6472 14.4191 3.5412 14.5271 3.41742 14.6244C3.2944 14.7225 3.15591 14.8033 3.00582 14.8674C2.91762 14.9104 2.8387 14.9437 2.76675 14.9655C2.69557 14.9889 2.62903 15.0018 2.57023 15.0018C2.55244 15.0018 2.51839 15.0071 2.46811 15.0221C2.41627 15.0365 2.37604 15.044 2.34432 15.044C2.14548 15.044 1.96521 14.958 1.80351 14.7867C1.64181 14.6161 1.56135 14.4267 1.56135 14.2161C1.56135 14.1316 1.58069 14.0176 1.62015 13.8772C1.65728 13.7369 1.67817 13.6554 1.67817 13.6297C1.67817 13.604 1.67121 13.5837 1.65496 13.5671C1.63872 13.552 1.61705 13.5437 1.5892 13.5437C1.57141 13.5437 1.52963 13.5708 1.46386 13.6237C1.39733 13.6765 1.30216 13.7527 1.18069 13.8523C1.16986 13.8674 1.15748 13.8886 1.14356 13.9157C1.12808 13.9452 1.10719 13.9754 1.07547 14.0116C1.04685 13.9308 1.0159 13.8478 0.98031 13.7648C0.944721 13.6855 0.904489 13.6033 0.864258 13.5255ZM3.38802 12.552C3.37022 12.555 3.34469 12.5731 3.31065 12.6078C3.27815 12.6403 3.24643 12.6825 3.21394 12.7331C3.16519 12.8154 3.10949 12.9029 3.04682 12.9988C3.00736 13.0425 2.96636 13.075 2.92303 13.0976C2.87816 13.121 2.82787 13.1376 2.77294 13.1482C2.73967 13.152 2.70098 13.1867 2.66385 13.2523C2.62362 13.318 2.58648 13.4138 2.54702 13.5376C2.50911 13.6478 2.48048 13.7414 2.46269 13.8199C2.44644 13.8976 2.43793 13.9633 2.43793 14.0176C2.43793 14.1157 2.46114 14.1905 2.51143 14.2418C2.56017 14.2908 2.63522 14.3165 2.73735 14.3165C2.89827 14.3165 3.04527 14.2712 3.17989 14.1799C3.31452 14.0886 3.4414 13.952 3.56132 13.7716C3.61625 13.7052 3.66886 13.641 3.71915 13.5791C3.74546 13.5595 3.76867 13.5248 3.78646 13.4757C3.80271 13.4282 3.82051 13.3678 3.8383 13.2969L3.93346 12.9927C3.90097 12.8871 3.87079 12.8025 3.84372 12.7399C3.81586 12.6795 3.78878 12.641 3.76016 12.6267C3.74236 12.6146 3.70445 12.6048 3.64411 12.592C3.58453 12.5791 3.49943 12.5663 3.38802 12.552ZM4.65841 13.5255C4.71411 13.6433 4.76053 13.7399 4.79457 13.8184C4.83016 13.8969 4.85337 13.9633 4.86807 14.0161C4.88896 13.9912 4.90753 13.9655 4.92533 13.9399C4.94312 13.912 4.95782 13.8855 4.96865 13.8561C5.06846 13.758 5.15511 13.6704 5.22552 13.5957C5.29515 13.521 5.35395 13.4554 5.40424 13.3988C5.47774 13.2954 5.54195 13.2214 5.59921 13.1731C5.65801 13.1248 5.70907 13.1006 5.75007 13.1006C5.77483 13.1006 5.79495 13.1082 5.81042 13.1248C5.82512 13.1406 5.8344 13.161 5.8344 13.1867C5.8344 13.3399 5.77096 13.6018 5.64795 13.9731C5.52416 14.3421 5.46149 14.5874 5.46149 14.7044C5.46149 14.7535 5.48779 14.7912 5.54195 14.8169C5.59766 14.841 5.67657 14.8531 5.78257 14.8531C5.81584 14.8531 5.89553 14.7927 6.02086 14.675C6.14465 14.555 6.31099 14.3708 6.52221 14.124C6.65451 13.9754 6.78294 13.8252 6.91292 13.678C7.03981 13.5316 7.16514 13.3852 7.28738 13.2425C7.40034 13.158 7.48081 13.0923 7.5311 13.0471C7.58293 12.9995 7.62935 12.9535 7.67113 12.9082C7.70982 12.872 7.74386 12.8455 7.77326 12.8297C7.80343 12.8138 7.82974 12.8063 7.85527 12.8063C7.88235 12.8063 7.90711 12.8169 7.92877 12.8388C7.94811 12.8584 7.95894 12.8893 7.95894 12.9278C7.92877 13.1512 7.90169 13.3308 7.88389 13.4659C7.86455 13.601 7.84985 13.6916 7.83902 13.7384C7.83593 13.7731 7.81968 13.835 7.79028 13.924C7.7632 14.0131 7.72606 14.1316 7.68119 14.2825C7.6456 14.3995 7.61852 14.5014 7.59686 14.5882C7.57519 14.675 7.56436 14.7444 7.56436 14.7995C7.56436 14.8448 7.57133 14.8848 7.58525 14.9195C7.59995 14.952 7.62084 14.9738 7.64869 14.9844C7.73612 14.9957 7.80575 15.001 7.85914 15.001C7.96281 15.001 8.22896 14.7278 8.65139 14.1821C9.07382 13.6365 9.37711 13.3655 9.5597 13.3655C9.69586 13.3655 9.89315 13.524 10.1485 13.8418C10.4061 14.1603 10.656 14.3188 10.8974 14.3188C10.9709 14.3188 11.0568 14.2931 11.1543 14.2425C11.2525 14.1897 11.3655 14.115 11.4908 14.0146C11.4351 13.8621 11.367 13.6984 11.2866 13.524C11.2688 13.5384 11.251 13.5497 11.2347 13.5588C11.2169 13.5678 11.1991 13.5716 11.1813 13.5716C11.1009 13.5716 11.0073 13.5029 10.902 13.3625C10.7945 13.2221 10.673 13.0093 10.5369 12.7255C10.5152 12.6825 10.4788 12.6327 10.4254 12.5731C10.3736 12.515 10.3071 12.4493 10.2266 12.3784C10.2088 12.3663 10.191 12.3527 10.1748 12.3429C10.157 12.3316 10.1392 12.3263 10.1214 12.3263C10.0247 12.3263 9.9241 12.3467 9.82275 12.3889C9.72217 12.4289 9.62159 12.4893 9.52333 12.5671C9.42972 12.638 9.34229 12.7082 9.2626 12.7746C9.18214 12.8418 9.1009 12.9089 9.02044 12.9761C8.97169 13.0478 8.92914 13.1074 8.89123 13.1527C8.85642 13.198 8.82315 13.2335 8.79452 13.2599C8.75352 13.238 8.73263 13.2154 8.73263 13.1912C8.73263 13.1701 8.73417 13.1452 8.73804 13.1203C8.74191 13.0969 8.75119 13.0659 8.76357 13.0312C8.84017 12.8448 8.89587 12.6531 8.92605 12.4523C8.95854 12.2516 8.97479 12.0433 8.97479 11.8267C8.97479 11.6772 8.95003 11.564 8.90361 11.4878C8.85719 11.4108 8.78214 11.3723 8.68079 11.3723C8.58563 11.3723 8.45874 11.4312 8.30323 11.5459C8.1454 11.6621 7.96126 11.8365 7.7516 12.0712C7.50634 12.3452 7.30905 12.558 7.15895 12.7104C7.00808 12.8629 6.90673 12.952 6.85412 12.9776C6.82936 12.9776 6.81312 12.9708 6.80306 12.9603C6.79145 12.9467 6.78604 12.9271 6.78604 12.9037C6.8077 12.8146 6.83323 12.7218 6.86573 12.6274C6.89435 12.5052 6.91602 12.3874 6.93226 12.2727C6.94619 12.158 6.95547 12.0508 6.95547 11.9504C6.95547 11.8342 6.93226 11.7437 6.88739 11.6818C6.84097 11.6199 6.77056 11.5889 6.67772 11.5889C6.52221 11.6516 6.38295 11.7074 6.25684 11.7588C6.1315 11.8893 6.02086 12.0055 5.92725 12.1059C5.83286 12.2086 5.75162 12.2901 5.68586 12.3527C5.55665 12.475 5.41894 12.6108 5.27348 12.7655C5.12803 12.9203 4.98026 13.0961 4.82552 13.2901C4.78993 13.3406 4.75976 13.3844 4.73036 13.4267C4.7025 13.4674 4.67929 13.4999 4.65841 13.5255ZM15.8142 14.0025C15.777 14.0516 15.7298 14.1029 15.678 14.1535C15.6254 14.2063 15.5704 14.2591 15.5147 14.3112C15.4822 14.3384 15.4412 14.3655 15.3894 14.3912C15.336 14.4146 15.2911 14.4425 15.2517 14.4704C15.2029 14.5097 15.1596 14.5512 15.124 14.5965C15.0861 14.641 15.0443 14.678 14.9995 14.712C14.9267 14.7648 14.8532 14.8154 14.7813 14.8644C14.7101 14.9157 14.6474 14.9572 14.5956 14.9935C14.5739 15.0463 14.5538 15.1006 14.5337 15.155C14.5167 15.2093 14.4966 15.2644 14.4803 15.3165C14.4587 15.3821 14.4308 15.4471 14.396 15.5172C14.3596 15.5859 14.3333 15.6523 14.3117 15.7112C14.2939 15.7588 14.2807 15.8063 14.2722 15.8546C14.2629 15.9059 14.2521 15.9512 14.2382 15.9935C14.1948 16.112 14.1484 16.2244 14.0927 16.3323C14.0386 16.441 13.9929 16.5429 13.955 16.6388C13.9124 16.7354 13.8761 16.8282 13.8444 16.921C13.8134 17.0138 13.7778 17.1014 13.7407 17.1829C13.7113 17.2433 13.678 17.3029 13.637 17.361C13.5976 17.4191 13.562 17.4735 13.5295 17.5225C13.4885 17.598 13.449 17.6667 13.4111 17.7301C13.3755 17.7957 13.3422 17.8516 13.3097 17.9014C13.2788 17.9504 13.2502 17.9995 13.2239 18.0448C13.1968 18.0923 13.1689 18.1301 13.1388 18.1633C13.1094 18.1942 13.0738 18.2199 13.0328 18.2395C12.991 18.2591 12.9569 18.2742 12.9322 18.2855C12.8695 18.318 12.8084 18.3278 12.7511 18.3142C12.6939 18.3021 12.6382 18.2689 12.5871 18.2169C12.5508 18.1806 12.5275 18.124 12.5152 18.0455C12.5043 17.9671 12.5028 17.8742 12.5136 17.7693C12.5245 17.6584 12.5492 17.5323 12.5887 17.3912C12.6297 17.2493 12.68 17.0984 12.7388 16.9384C12.7906 16.7889 12.8533 16.6395 12.9275 16.4908C13.0003 16.3414 13.0776 16.1957 13.1589 16.0538C13.254 15.8863 13.3538 15.7263 13.4575 15.5716C13.5635 15.4169 13.6687 15.275 13.7724 15.1474C13.7832 15.1112 13.8064 15.0704 13.8444 15.0237C13.8799 14.9784 13.9047 14.9323 13.9194 14.8855C13.9372 14.8221 13.9449 14.7527 13.9426 14.678C13.9411 14.604 13.9465 14.5323 13.9573 14.4652C13.9689 14.4018 13.9859 14.3376 14.0107 14.2765C14.0378 14.2138 14.0563 14.155 14.0664 14.0984C14.0741 14.0538 14.0741 14.0101 14.0664 13.9671C14.0594 13.9218 14.0556 13.884 14.0556 13.8523C14.0625 13.7965 14.061 13.7323 14.0502 13.6652C13.9712 13.6584 13.9194 13.6599 13.8977 13.6705C13.8707 13.6855 13.8482 13.7104 13.8281 13.7482C13.8088 13.7852 13.7794 13.8184 13.7422 13.8471C13.7128 13.8682 13.6796 13.8886 13.6386 13.9104C13.5991 13.9323 13.5635 13.9557 13.531 13.9791C13.4931 14.0086 13.4575 14.0403 13.4235 14.0757C13.391 14.1097 13.3562 14.1429 13.3167 14.1716C13.268 14.2063 13.2161 14.2448 13.162 14.2863C13.1086 14.3263 13.0544 14.364 13.001 14.401C12.9639 14.4206 12.919 14.4448 12.8649 14.4697C12.813 14.4938 12.7682 14.5172 12.7287 14.5391C12.6629 14.5814 12.6018 14.6221 12.5484 14.6652C12.4951 14.7044 12.437 14.7354 12.3782 14.758C12.3241 14.7791 12.2722 14.7995 12.2165 14.8206C12.1631 14.838 12.1129 14.8486 12.068 14.8486C12.0123 14.8486 11.9581 14.8357 11.9071 14.8146C11.8568 14.7904 11.8158 14.7603 11.7848 14.7203C11.7562 14.6923 11.7337 14.6546 11.7136 14.6055C11.6935 14.558 11.685 14.5037 11.685 14.4433C11.685 14.3829 11.6896 14.3104 11.7028 14.2267C11.716 14.1444 11.7368 14.0523 11.7693 13.9527C11.7864 13.8954 11.8103 13.835 11.839 13.7708C11.8691 13.7074 11.8993 13.6418 11.9318 13.5754C11.8436 13.632 11.7616 13.7112 11.685 13.8169C11.6076 13.9203 11.5303 14.001 11.4537 14.0531L11.244 13.5671C11.2819 13.5293 11.3252 13.4863 11.3701 13.4455C11.4165 13.4033 11.4637 13.3618 11.5117 13.3233C11.6208 13.2237 11.7384 13.121 11.866 13.0138C11.9937 12.9059 12.1206 12.8063 12.2459 12.7097C12.4246 12.5746 12.6057 12.444 12.7898 12.315C12.9724 12.1882 13.1504 12.0727 13.3221 11.9693C13.49 11.8659 13.6502 11.7746 13.8018 11.6923C13.955 11.6108 14.0912 11.5489 14.2088 11.5044C14.2931 11.4735 14.3697 11.4501 14.4393 11.4372C14.509 11.4259 14.567 11.4244 14.608 11.4357C14.6505 11.4471 14.6939 11.4576 14.738 11.4704C14.7852 11.4833 14.8207 11.4991 14.8494 11.521C14.8741 11.5429 14.8989 11.5769 14.9252 11.6267C14.9515 11.6772 14.9647 11.7142 14.9647 11.7391C14.9647 11.7769 14.9538 11.8199 14.9337 11.8652C14.912 11.9089 14.8741 11.9527 14.8177 11.9957C14.7975 12.0123 14.7689 12.0327 14.7372 12.0508C14.7031 12.0704 14.6668 12.0871 14.6296 12.1014C14.5863 12.1195 14.5376 12.1293 14.485 12.1293C14.4308 12.1293 14.3805 12.1399 14.3356 12.1603C14.2088 12.2214 14.0811 12.3021 13.9527 12.4055C13.8235 12.5089 13.6997 12.6078 13.5852 12.7044C13.4869 12.7821 13.3918 12.8644 13.2981 12.9497C13.2053 13.035 13.1225 13.1157 13.049 13.1897C12.9794 13.2644 12.9167 13.3369 12.8595 13.4086C12.8038 13.4795 12.7604 13.5406 12.7287 13.5942C12.6962 13.6523 12.6792 13.7021 12.6722 13.7467C12.6645 13.7912 12.6738 13.8237 12.697 13.8455C12.7689 13.8818 12.8169 13.8961 12.8455 13.8931C12.8649 13.8916 12.8889 13.8772 12.9136 13.8508C12.9368 13.8259 12.9655 13.8033 12.9964 13.7821C13.0173 13.7708 13.0498 13.7588 13.0908 13.7421C13.1341 13.7263 13.1658 13.7097 13.1906 13.6916C13.2502 13.6493 13.3059 13.5972 13.3593 13.5369C13.4119 13.4765 13.4707 13.4184 13.5372 13.3595C13.5999 13.3074 13.6749 13.2471 13.7608 13.1799C13.8467 13.1135 13.9326 13.0486 14.0208 12.9874C14.0796 12.9489 14.1422 12.9089 14.2072 12.8712C14.2714 12.8312 14.3326 12.801 14.3883 12.7754C14.4362 12.7557 14.4834 12.7376 14.5275 12.7225C14.5708 12.7082 14.6088 12.7006 14.6405 12.7006C14.6923 12.7006 14.7372 12.7165 14.7728 12.7512C14.8107 12.7859 14.837 12.8297 14.8548 12.8818C14.8741 12.9354 14.8888 12.995 14.8942 13.0621C14.8989 13.1308 14.9012 13.2018 14.9012 13.2765C14.9012 13.3399 14.8973 13.4055 14.8904 13.475C14.8826 13.5437 14.8741 13.6116 14.8648 13.675C14.8509 13.7746 14.8324 13.8735 14.8115 13.9678C14.7921 14.0637 14.7705 14.152 14.7488 14.2304C14.7813 14.2078 14.813 14.1844 14.8494 14.1572C14.8826 14.1316 14.9175 14.1082 14.9492 14.0863C14.9832 14.0606 15.0196 14.0282 15.0529 13.9889C15.0884 13.9467 15.1209 13.9135 15.1534 13.8908C15.1906 13.8614 15.2308 13.838 15.2679 13.8176C15.3074 13.7972 15.3399 13.7769 15.3685 13.7557C15.4204 13.7142 15.4668 13.6697 15.5078 13.6267C15.5472 13.5806 15.5797 13.5376 15.6045 13.4954L15.8142 14.0025ZM21.5178 13.9799L21.2973 13.5104C21.2524 13.5633 21.2021 13.6161 21.1503 13.6652C21.0984 13.7142 21.045 13.7618 20.9924 13.8033C20.9545 13.8327 20.9174 13.8637 20.8795 13.8969C20.8439 13.9308 20.8052 13.9588 20.7619 13.9799C20.724 14.0025 20.683 14.0161 20.6419 14.0259C20.5994 14.035 20.563 14.0448 20.5305 14.0554C20.5104 14.0584 20.488 14.0735 20.4625 14.0976C20.4392 14.1225 20.416 14.1354 20.3951 14.1354C20.3681 14.1391 20.3418 14.1323 20.3162 14.1135C20.293 14.0961 20.2698 14.0863 20.2481 14.0825C20.2071 14.072 20.1746 14.0425 20.1514 13.9935C20.1274 13.9459 20.1174 13.8893 20.1174 13.8259C20.1174 13.7769 20.1213 13.7203 20.1298 13.6591C20.1391 13.595 20.1514 13.5354 20.1692 13.475C20.187 13.4123 20.2079 13.3489 20.2319 13.2803C20.2574 13.2086 20.2806 13.1437 20.3 13.0795C20.3139 13.0252 20.3216 12.9761 20.3216 12.9323C20.3216 12.8886 20.3286 12.8448 20.3425 12.8018C20.3503 12.7852 20.3828 12.7391 20.4431 12.6682C20.4741 12.5723 20.5004 12.478 20.5236 12.3867C20.5468 12.2938 20.563 12.2086 20.5739 12.1301C20.5808 12.0478 20.5793 11.9731 20.5677 11.9067C20.5568 11.8388 20.5352 11.7844 20.505 11.7406C20.4833 11.715 20.4586 11.6946 20.4284 11.6772C20.399 11.6591 20.3634 11.6463 20.3209 11.6395C20.2907 11.635 20.2512 11.6395 20.2025 11.6486C20.1561 11.6569 20.1035 11.6704 20.0485 11.6878C19.9928 11.7097 19.9302 11.7369 19.8613 11.7701C19.7932 11.804 19.7236 11.8403 19.654 11.8795C19.5944 11.912 19.5333 11.9482 19.4729 11.9889C19.4126 12.0304 19.353 12.072 19.2981 12.1142C19.2315 12.1618 19.165 12.2093 19.0992 12.2614C19.0327 12.3127 18.9685 12.3595 18.9089 12.4018C18.8284 12.4674 18.7526 12.5278 18.6814 12.5874C18.6095 12.6463 18.5437 12.7006 18.4841 12.7497C18.4416 12.7821 18.4037 12.8146 18.3658 12.8516C18.3302 12.8863 18.2946 12.9172 18.2636 12.9406C18.2636 12.8659 18.235 12.8259 18.1778 12.8184C18.119 12.8116 18.0578 12.8237 17.9913 12.8569C17.9232 12.8878 17.859 12.9301 17.7963 12.9784C17.7337 13.0274 17.6996 13.0697 17.6981 13.1006C17.6911 13.1655 17.6795 13.2267 17.6656 13.284C17.6509 13.3444 17.6439 13.3988 17.6439 13.4538C17.6439 13.4961 17.6401 13.5399 17.6315 13.5814C17.6223 13.6252 17.6223 13.6652 17.6284 13.7052C17.6315 13.7361 17.6455 13.7671 17.6671 13.7942C17.6911 13.8237 17.7027 13.8486 17.7066 13.8682C17.7213 13.9233 17.7445 13.9489 17.7747 13.9489C17.8072 13.9489 17.8428 13.9414 17.8807 13.9286C17.9163 13.9142 17.9518 13.8991 17.9913 13.8855C18.0292 13.8705 18.0648 13.8727 18.095 13.8908C18.1058 13.9444 18.1128 13.9965 18.1166 14.0463C18.1205 14.0946 18.1213 14.1444 18.1213 14.1889C18.1213 14.2221 18.1252 14.2591 18.1329 14.3021C18.1399 14.3437 18.1399 14.3821 18.1329 14.4131C18.1252 14.4455 18.1089 14.475 18.0841 14.5021C18.0609 14.5271 18.0393 14.5512 18.0215 14.5723C17.9843 14.6267 17.9317 14.6697 17.8691 14.7021C17.8072 14.7331 17.7623 14.7497 17.7329 14.7497C17.6811 14.7497 17.6331 14.7459 17.5913 14.7384C17.548 14.7308 17.5124 14.7225 17.4799 14.7112C17.4281 14.6908 17.3863 14.6614 17.3577 14.6267C17.3275 14.5912 17.302 14.5504 17.2811 14.5037C17.247 14.4327 17.2254 14.3603 17.2176 14.2848C17.2107 14.2101 17.2068 14.1452 17.2068 14.0886C17.2068 14.0063 17.2107 13.921 17.2176 13.8342C17.2254 13.7467 17.2339 13.6561 17.2447 13.5595C17.2532 13.472 17.2772 13.3814 17.3089 13.2901C17.3422 13.201 17.3731 13.0976 17.4002 12.9852C17.4149 12.924 17.4373 12.8667 17.4722 12.8138C17.5062 12.761 17.5333 12.6991 17.5526 12.6282C17.5635 12.5957 17.589 12.5557 17.6269 12.5037C17.6656 12.4546 17.6911 12.4123 17.7004 12.3814C17.7182 12.3308 17.7399 12.2886 17.7662 12.2523C17.7932 12.2184 17.8242 12.1821 17.8582 12.1474C17.876 12.1293 17.9101 12.0946 17.9604 12.0395C18.0122 11.9874 18.0424 11.9482 18.0532 11.9293C18.1337 11.8471 18.1731 11.7882 18.1731 11.7588V11.5708C18.1731 11.5512 18.1553 11.5203 18.1213 11.4772C18.0857 11.4372 18.0571 11.401 18.0323 11.3686C18.0037 11.3263 17.9464 11.241 17.8582 11.112C17.8312 11.0448 17.7925 10.9995 17.7437 10.9738C17.695 10.9482 17.6447 10.9776 17.5967 11.0591C17.5758 11.1014 17.5271 11.161 17.4513 11.2357C17.3762 11.3104 17.3275 11.3686 17.3027 11.4101C17.2563 11.4886 17.196 11.5754 17.1163 11.672C17.0374 11.7686 16.9716 11.8516 16.9198 11.9233C16.8981 11.9497 16.8904 11.9912 16.8981 12.0448C16.9051 12.0976 16.8981 12.1384 16.8787 12.1633C16.8246 12.2259 16.7751 12.2871 16.7287 12.3437C16.6815 12.4018 16.635 12.4554 16.5886 12.5082C16.4996 12.6154 16.4083 12.718 16.3201 12.8161C16.2304 12.9127 16.1437 13.0048 16.0602 13.0908C16.0107 13.1391 15.9619 13.1889 15.9101 13.2395C15.8598 13.2886 15.8134 13.3323 15.7724 13.3731C15.7221 13.4146 15.6757 13.4561 15.6323 13.4984C15.5898 13.5384 15.5519 13.5693 15.5194 13.5904L15.7337 14.0772C15.7662 14.0516 15.808 14.0093 15.8575 13.9512C15.9078 13.8931 15.9666 13.8312 16.0331 13.7678C16.078 13.724 16.1314 13.6818 16.1909 13.6418C16.2497 13.6025 16.3024 13.5588 16.3488 13.5112C16.4223 13.4403 16.4942 13.3678 16.5639 13.2946C16.6335 13.2221 16.6938 13.1542 16.7464 13.0908C16.6946 13.2486 16.6474 13.3905 16.608 13.5112C16.567 13.6312 16.5368 13.7406 16.5151 13.8372C16.4842 13.964 16.4617 14.0848 16.4478 14.1935C16.4347 14.3044 16.4285 14.4267 16.4285 14.561C16.4285 14.6471 16.437 14.7301 16.4532 14.8101C16.471 14.8901 16.5004 14.9633 16.5376 15.0305C16.57 15.0938 16.6111 15.1542 16.6629 15.2086C16.7163 15.2652 16.772 15.3142 16.8308 15.3557C16.8811 15.3927 16.9368 15.4252 16.9994 15.4538C17.0621 15.4855 17.1248 15.5104 17.1874 15.5323C17.2447 15.5467 17.3035 15.558 17.3669 15.5686C17.4296 15.5799 17.4931 15.5852 17.5542 15.5852C17.6671 15.5852 17.7762 15.5618 17.8838 15.5165C17.9898 15.4704 18.0865 15.4055 18.1739 15.3233C18.2265 15.278 18.2814 15.2289 18.3395 15.1746C18.3983 15.1218 18.4455 15.0614 18.4841 14.9942C18.4911 14.9799 18.4911 14.9572 18.4857 14.9271C18.4803 14.8954 18.4818 14.8742 18.4896 14.8599C18.5112 14.8071 18.536 14.7542 18.5654 14.7029C18.5956 14.6516 18.6164 14.5935 18.6311 14.5301C18.642 14.475 18.6474 14.4154 18.6474 14.3459C18.6474 14.2765 18.6474 14.2131 18.6474 14.1572C18.6474 14.0599 18.6358 13.9603 18.618 13.8584C18.5986 13.755 18.5685 13.6493 18.5251 13.5437C18.512 13.5112 18.4965 13.4772 18.4787 13.4365C18.4609 13.398 18.4408 13.3595 18.4207 13.324C18.4408 13.3037 18.4694 13.2765 18.505 13.2418C18.5391 13.2071 18.5785 13.1731 18.6195 13.1384C18.6366 13.1233 18.6605 13.1006 18.6907 13.0697C18.7193 13.0365 18.7441 13.0146 18.7665 13.0003C18.7843 12.9897 18.8006 12.9844 18.813 12.9844C18.8269 12.9844 18.8431 12.9784 18.8617 12.9686C18.8849 12.9497 18.9228 12.9188 18.9716 12.875C19.0211 12.8297 19.0574 12.8003 19.083 12.7859C19.1131 12.7655 19.1364 12.7588 19.1472 12.7655C19.1603 12.7723 19.1812 12.7708 19.2083 12.7603C19.2601 12.7346 19.3089 12.715 19.353 12.7021C19.3963 12.6878 19.4288 12.6863 19.4497 12.6969C19.4837 12.7135 19.5093 12.7459 19.5232 12.7897C19.5379 12.8335 19.534 12.9142 19.5124 13.0259C19.5015 13.0886 19.4814 13.161 19.4551 13.2486C19.4265 13.3346 19.394 13.4372 19.3553 13.5535C19.3329 13.6161 19.3135 13.6795 19.2919 13.7459C19.2702 13.8131 19.254 13.881 19.24 13.9489C19.2222 14.0229 19.2068 14.0999 19.1905 14.1761C19.1743 14.2523 19.1665 14.3233 19.1665 14.3927C19.1665 14.4493 19.1681 14.5052 19.1743 14.5618C19.1797 14.6206 19.189 14.6712 19.2029 14.7165C19.2246 14.7784 19.2547 14.8312 19.2942 14.8765C19.3352 14.924 19.3886 14.9565 19.4551 14.9776C19.5503 15.0093 19.6485 15.0221 19.7507 15.0138C19.8543 15.0093 19.9588 14.9889 20.064 14.9565C20.1715 14.9255 20.2806 14.881 20.3882 14.8259C20.4973 14.7708 20.6009 14.7135 20.7031 14.6523C20.7843 14.604 20.864 14.5489 20.9468 14.4871C21.0288 14.4267 21.1062 14.3686 21.1758 14.312C21.2563 14.2471 21.3267 14.1844 21.387 14.1248C21.4497 14.0644 21.4922 14.0161 21.5178 13.9799Z" fill="#750502"/>
<path d="M21.2881 13.5255C21.3941 13.4583 21.4962 13.3926 21.5976 13.3308C21.6981 13.2689 21.7979 13.2047 21.897 13.1383C22.0811 13.0168 22.2211 12.9149 22.3148 12.8289C22.4061 12.7428 22.4525 12.6794 22.4525 12.6372C22.4525 12.57 22.42 12.4613 22.3542 12.3134C22.2869 12.1662 22.2544 12.0538 22.2544 11.9753C22.2544 11.8591 22.2753 11.7519 22.321 11.653C22.3635 11.5564 22.4355 11.4658 22.5322 11.3843C22.5817 11.3383 22.6235 11.3043 22.6606 11.2802C22.6962 11.256 22.7287 11.2455 22.7519 11.2455C22.8153 11.2455 22.8687 11.2787 22.9097 11.3421C22.9523 11.4055 22.9832 11.5006 23.0049 11.6243C23.0335 11.7625 23.0621 11.8704 23.0939 11.9458C23.124 12.0228 23.155 12.0681 23.1836 12.0832C23.2246 12.0651 23.2656 12.0432 23.309 12.0153C23.3507 11.9904 23.3948 11.9647 23.4389 11.9391C23.4985 11.8681 23.5828 11.7821 23.6919 11.6809C23.7995 11.5791 23.9318 11.4575 24.0896 11.3157C24.2691 11.1557 24.4176 11.0334 24.5345 10.9519C24.6505 10.8681 24.7349 10.8191 24.7828 10.804C24.8153 10.804 24.8478 10.8047 24.8834 10.8092C24.8664 10.8092 24.8679 10.8077 24.8857 10.8055C24.9051 10.8047 24.9352 10.8047 24.9786 10.8047C25.0234 10.7979 25.0683 10.8138 25.1109 10.856C25.1557 10.896 25.1952 10.9609 25.2292 11.0508C25.2648 11.1247 25.2904 11.1926 25.3089 11.256C25.3259 11.3179 25.3352 11.3738 25.3352 11.4289C25.3352 11.5602 25.3244 11.6711 25.3027 11.7617C25.2834 11.853 25.2486 11.9202 25.2045 11.967C25.165 12.0311 25.1093 12.1096 25.0358 12.204C24.9623 12.2983 24.8726 12.4055 24.7666 12.5262C24.4494 12.85 24.2095 13.0975 24.0486 13.2704C23.8877 13.4409 23.8064 13.5398 23.8064 13.5594C23.8064 13.6409 23.8637 13.7391 23.9805 13.85C24.095 13.9625 24.1987 14.0175 24.29 14.0175C24.4586 13.9987 24.6111 13.9745 24.7472 13.9489C24.8377 13.8923 24.9314 13.8281 25.0296 13.7557C25.1279 13.6847 25.2285 13.6085 25.3345 13.5262C25.3716 13.6183 25.4118 13.7066 25.449 13.7881C25.4884 13.8696 25.5186 13.9466 25.5441 14.0168C25.5186 14.0349 25.4884 14.0621 25.449 14.1028C25.4118 14.1406 25.3631 14.1836 25.3081 14.2296C25.2741 14.2658 25.2114 14.3096 25.1217 14.3609C25.0319 14.4115 24.9136 14.4674 24.7673 14.5277C24.7186 14.5534 24.6668 14.5806 24.6095 14.6115C24.5538 14.6409 24.502 14.6696 24.454 14.693C24.389 14.7255 24.3302 14.7511 24.2714 14.7685C24.2142 14.7858 24.1585 14.7949 24.1012 14.7949C24.0014 14.7949 23.9171 14.7858 23.8521 14.7685C23.7879 14.7519 23.7376 14.73 23.7035 14.7043L23.1619 14.1602L23.124 14.1458L23.0993 14.1602C23.0637 14.1926 23.0204 14.2319 22.967 14.2749C22.9151 14.3202 22.8571 14.3768 22.7944 14.444C22.7627 14.4825 22.7287 14.5217 22.6923 14.564C22.6552 14.604 22.6157 14.6477 22.5739 14.693C22.5167 14.7187 22.4502 14.7511 22.3736 14.7926C22.2962 14.8326 22.2064 14.8817 22.1005 14.9383H22.054C22.0184 14.9383 21.9914 14.9315 21.972 14.9157C21.9519 14.8991 21.9426 14.8734 21.9426 14.8372C21.9426 14.7594 22.1074 14.57 22.4393 14.2696C22.7705 13.9692 22.936 13.7753 22.936 13.6817C22.9035 13.5889 22.8602 13.4908 22.8068 13.3851C22.7542 13.2817 22.6854 13.1692 22.6049 13.047L22.5368 13.0689C22.5151 13.0908 22.4896 13.1179 22.4571 13.1511C22.4269 13.1851 22.3883 13.2236 22.3426 13.2651C22.29 13.3285 22.2235 13.4017 22.1407 13.4817C22.0579 13.5617 21.9581 13.6583 21.8374 13.7708C21.7964 13.7926 21.7461 13.8236 21.6896 13.8651C21.6316 13.9043 21.5674 13.9557 21.4978 14.016C21.4831 13.9632 21.4598 13.896 21.4243 13.8183C21.3902 13.7398 21.3438 13.6432 21.2881 13.5255ZM24.3263 11.6183C24.3062 11.6183 24.283 11.6251 24.2614 11.6357C24.2381 11.6492 24.2134 11.6711 24.184 11.7036C24.1538 11.7398 24.1128 11.7798 24.0648 11.8258C24.0393 11.8357 24.0115 11.8508 23.9766 11.8696C23.9441 11.887 23.907 11.9074 23.8637 11.933C23.801 11.9926 23.7236 12.0674 23.6308 12.1564C23.5372 12.2455 23.4265 12.3466 23.2973 12.4598V12.4968C23.2904 12.5323 23.2958 12.5745 23.3136 12.6258C23.3314 12.6741 23.3546 12.733 23.3871 12.8009C23.4211 12.8817 23.4529 12.9428 23.4823 12.9806C23.5093 13.0168 23.5356 13.0349 23.5589 13.0349C23.6896 12.9715 23.8668 12.7655 24.0942 12.4183C24.3217 12.0689 24.4362 11.8357 24.4362 11.7194C24.4362 11.687 24.4269 11.6628 24.4091 11.6455C24.3921 11.6274 24.3658 11.6183 24.3263 11.6183ZM28.016 13.5255L28.0632 13.484C28.0663 13.4432 28.0919 13.3979 28.136 13.3451C28.1824 13.2908 28.2474 13.2289 28.3309 13.1579C28.3828 13.1194 28.4385 13.0825 28.4957 13.047C28.553 13.0123 28.6087 12.9715 28.6605 12.9308C28.881 12.7383 29.0938 12.5541 29.3019 12.376C29.4203 12.2704 29.5402 12.1775 29.6586 12.1006C29.7769 12.0243 29.8891 11.9647 29.9951 11.9172C30.0686 11.8213 30.2048 11.7247 30.4075 11.6243C30.6079 11.524 30.7711 11.4749 30.898 11.4749C30.9468 11.4749 30.9862 11.49 31.0164 11.5172C31.045 11.5466 31.0636 11.5821 31.0698 11.6243V11.9172C31.0698 12.0206 31.0412 12.1119 30.9839 12.1919C30.9266 12.2719 30.8392 12.3466 30.7247 12.4138C30.6473 12.4485 30.57 12.4885 30.4934 12.53C30.4168 12.5738 30.3394 12.6108 30.2628 12.6485C30.2342 12.6832 30.1607 12.7504 30.0385 12.8462C29.9185 12.9451 29.7553 13.0757 29.5479 13.2394C29.4543 13.3141 29.3754 13.3806 29.3127 13.4394C29.2485 13.4983 29.2052 13.5451 29.1804 13.5798C29.1472 13.6462 29.1193 13.7232 29.1 13.8032C29.0806 13.8862 29.0714 13.9798 29.0714 14.087C29.0714 14.1692 29.0845 14.2379 29.1069 14.2968C29.1325 14.3572 29.1704 14.404 29.2183 14.4387C29.2524 14.4643 29.3004 14.4877 29.3623 14.5134C29.4249 14.5391 29.5 14.5625 29.5913 14.5881C29.6431 14.5662 29.7127 14.5466 29.7994 14.5255C29.8853 14.5081 29.9804 14.4802 30.0841 14.4492C30.204 14.3783 30.3263 14.3036 30.4493 14.2258C30.5746 14.1458 30.6969 14.0651 30.8199 13.9836C30.8377 13.9745 30.8593 13.9617 30.8841 13.9489C30.9112 13.9383 30.9375 13.9179 30.9669 13.8945C31.0001 13.847 31.0489 13.7941 31.11 13.7323C31.1727 13.6719 31.2462 13.6032 31.3344 13.5255C31.4744 13.8349 31.544 13.9987 31.544 14.016C31.4148 14.124 31.2825 14.2326 31.1502 14.3436C31.0179 14.4568 30.8648 14.5474 30.693 14.6191C30.6381 14.6666 30.5916 14.7081 30.5514 14.7481C30.3758 14.9262 30.1731 15.0598 29.9402 15.1504C29.7073 15.2409 29.4427 15.287 29.1456 15.287C29.0791 15.287 29.0187 15.2817 28.9669 15.2704C28.9151 15.2598 28.8702 15.2462 28.8369 15.2281C28.7309 15.1572 28.6435 15.0938 28.5677 15.0402C28.4926 14.9843 28.4261 14.93 28.3743 14.8787C28.3224 14.8266 28.283 14.7768 28.2598 14.7315C28.2273 14.6824 28.2064 14.6206 28.194 14.5496C28.1816 14.4794 28.1762 14.3919 28.1762 14.2892C28.1762 14.2606 28.1847 14.2145 28.2017 14.1496C28.2195 14.0855 28.228 14.0417 28.228 14.016C28.2033 13.9383 28.1746 13.8583 28.1383 13.776C28.1019 13.6945 28.0617 13.6108 28.016 13.5255ZM31.3282 13.5255C31.37 13.604 31.4086 13.6855 31.4435 13.7692C31.4791 13.8523 31.5092 13.9353 31.5379 14.016C31.5703 13.9798 31.592 13.9489 31.6059 13.9202C31.6206 13.893 31.633 13.8711 31.6431 13.8568C31.7653 13.7572 31.8597 13.6809 31.9262 13.6281C31.992 13.5753 32.0338 13.5481 32.0524 13.5481C32.081 13.5481 32.1019 13.5572 32.1181 13.5715C32.1344 13.5881 32.1413 13.6077 32.1413 13.6341C32.1413 13.6598 32.122 13.7413 32.0841 13.8817C32.0446 14.0221 32.0245 14.136 32.0245 14.2206C32.0245 14.4311 32.1057 14.6206 32.2667 14.7911C32.4284 14.9625 32.6094 15.0485 32.8082 15.0485C32.8407 15.0485 32.8802 15.0402 32.9313 15.0266C32.9815 15.0115 33.0156 15.0062 33.0334 15.0062C33.093 15.0062 33.1587 14.9934 33.2307 14.97C33.3026 14.9481 33.3808 14.9149 33.469 14.8719C33.6198 14.8077 33.7576 14.7277 33.8813 14.6289C34.0051 14.5315 34.1104 14.4236 34.1986 14.3058C34.231 14.3768 34.2721 14.4326 34.3262 14.4711C34.378 14.5119 34.4438 14.5315 34.5251 14.5315C34.5947 14.5315 34.6666 14.5157 34.7378 14.4862C34.8105 14.4553 34.8848 14.4062 34.966 14.3391C35.0326 14.29 35.0953 14.2372 35.1541 14.1843C35.2152 14.1315 35.2755 14.0749 35.3382 14.0183C35.3049 13.9375 35.2709 13.8545 35.2368 13.7715C35.2028 13.6877 35.1688 13.6055 35.1347 13.5277C35.0937 13.564 35.0558 13.5896 35.0272 13.6077C34.997 13.6258 34.9676 13.6357 34.939 13.6357C34.9119 13.6357 34.8895 13.6236 34.8709 13.6047C34.8546 13.5858 34.8384 13.5534 34.8245 13.5081C34.8585 13.4772 34.8964 13.4258 34.9374 13.3534C34.9769 13.2825 35.0148 13.1949 35.0504 13.0877C35.0806 12.9911 35.1038 12.9013 35.1185 12.8213C35.1332 12.7406 35.1394 12.6681 35.1394 12.607C35.1394 12.2892 35.0751 12.0485 34.9483 11.89C34.8191 11.7315 34.6287 11.6538 34.3726 11.6538C34.3479 11.6538 34.2922 11.6681 34.204 11.696C34.1158 11.7255 33.9959 11.7685 33.8419 11.8311L33.8109 11.7821C33.8488 11.7006 33.8844 11.6183 33.9208 11.5383C33.9169 11.5013 33.8953 11.4741 33.855 11.4538C33.8156 11.4341 33.7568 11.4251 33.6794 11.4251C33.6098 11.4251 33.5456 11.4394 33.486 11.4674C33.4272 11.4968 33.3684 11.536 33.3127 11.5851C33.2639 11.6334 33.216 11.687 33.1696 11.7398C33.1208 11.7926 33.0713 11.8455 33.0187 11.8998C32.9777 11.9383 32.9313 11.9783 32.8825 12.0206C32.8338 12.0606 32.7843 12.1036 32.7355 12.1496C32.6798 12.2002 32.6318 12.2515 32.5908 12.3028C32.5514 12.3534 32.5228 12.3994 32.505 12.4394C32.3541 12.5738 32.2288 12.6892 32.1274 12.7813C32.0268 12.8757 31.951 12.9519 31.9015 13.013L31.4968 13.2908C31.4613 13.3413 31.4311 13.3851 31.4032 13.4274C31.3785 13.4674 31.3529 13.4998 31.3282 13.5255ZM33.8527 12.5519C33.9634 12.5662 34.0492 12.5791 34.108 12.5919C34.1692 12.6047 34.2071 12.6145 34.2241 12.6266C34.2535 12.6409 34.2806 12.6794 34.3084 12.7406C34.3347 12.8032 34.3664 12.8877 34.3974 12.9934L34.303 13.2975C34.2852 13.3685 34.2674 13.4289 34.2512 13.4764C34.2334 13.5255 34.2102 13.5602 34.1831 13.5798C34.1328 13.6417 34.081 13.7058 34.0252 13.7723C33.9053 13.9526 33.7784 14.0892 33.6438 14.1806C33.5092 14.2719 33.3622 14.3172 33.2013 14.3172C33.0999 14.3172 33.0241 14.2915 32.9761 14.2425C32.9258 14.1911 32.9026 14.1164 32.9026 14.0183C32.9026 13.964 32.9111 13.8983 32.9274 13.8206C32.9452 13.7421 32.9746 13.6492 33.0117 13.5383C33.0512 13.4138 33.0891 13.3179 33.1278 13.253C33.1657 13.1874 33.2036 13.1526 33.2376 13.1489C33.2933 13.1383 33.3429 13.1217 33.3885 13.0983C33.4311 13.0757 33.4721 13.0432 33.5115 12.9994C33.5742 12.9036 33.6299 12.816 33.6779 12.7338C33.7104 12.6832 33.7421 12.6409 33.7746 12.6085C33.8094 12.5738 33.8342 12.5557 33.8527 12.5519ZM37.8093 13.5255C37.8511 13.4764 37.9022 13.416 37.9618 13.3451C38.0206 13.2741 38.0964 13.1889 38.1877 13.0908C38.2217 12.9911 38.2542 12.8674 38.2844 12.7194C38.3153 12.5723 38.3401 12.3994 38.3602 12.2009C38.385 11.9972 38.412 11.8213 38.4422 11.6696C38.4708 11.5187 38.4995 11.3964 38.5227 11.3036C38.6805 10.8032 38.8035 10.416 38.8902 10.1391C38.9776 9.86509 39.0302 9.70056 39.0418 9.65226C39.1586 9.32773 39.2809 9.04019 39.407 8.78585C39.5347 8.53151 39.6639 8.31113 39.7923 8.1217C39.8248 8.08773 39.8565 8.04924 39.8921 8.00773C39.9285 7.96698 39.9671 7.92396 40.0128 7.87641C40.1428 7.81603 40.2635 7.75792 40.3764 7.70207C40.4391 7.67264 40.5018 7.64924 40.566 7.63264C40.6325 7.61453 40.6952 7.60547 40.7578 7.60547C40.8561 7.60547 40.9319 7.65226 40.9838 7.74736C41.0371 7.83943 41.0627 7.98207 41.0627 8.17151C41.0627 8.28773 41.048 8.41981 41.0163 8.56245C40.9838 8.7066 40.9412 8.86358 40.8855 9.03415C40.8012 9.27566 40.737 9.46887 40.6905 9.61226C40.6457 9.75641 40.617 9.84698 40.6062 9.88094C40.5938 9.95566 40.5598 10.0508 40.5079 10.1632C40.4546 10.2779 40.3842 10.416 40.2983 10.5798C40.1892 10.7889 40.1049 10.9511 40.0422 11.0651C39.9811 11.1791 39.9455 11.2455 39.9347 11.2681C39.9114 11.2938 39.8859 11.3187 39.8588 11.3443C39.8318 11.3715 39.8054 11.3979 39.7784 11.4274V11.5496C39.7606 11.5934 39.7428 11.6228 39.725 11.6409C39.6654 11.7579 39.5873 11.9043 39.4867 12.0779C39.3869 12.2515 39.2623 12.4508 39.1161 12.6749C39.0318 12.7926 38.9691 12.8968 38.9273 12.9843C38.8848 13.0734 38.8646 13.1496 38.8646 13.2138V13.6824C38.8809 13.776 38.9002 13.8666 38.9219 13.9572C38.9436 14.0485 38.9629 14.1353 38.9846 14.2221C39.0024 14.336 39.0341 14.4213 39.0844 14.4802C39.1331 14.5383 39.188 14.5692 39.2523 14.5692C39.3931 14.5692 39.5091 14.5345 39.6004 14.4636C39.694 14.3941 39.7629 14.2892 39.8085 14.1474C39.7141 14.1096 39.6414 14.0636 39.5904 14.0108C39.5401 13.9602 39.5145 13.9051 39.5145 13.8492C39.5323 13.8123 39.547 13.7738 39.5594 13.7308C39.5718 13.6892 39.5849 13.6447 39.5989 13.5979C39.6027 13.5723 39.6082 13.5489 39.6167 13.5232C39.626 13.4975 39.6306 13.4658 39.6345 13.4266C39.7954 13.1277 39.9424 12.9043 40.077 12.7534C40.2093 12.6025 40.3277 12.5262 40.4329 12.5262C40.4584 12.5262 40.4971 12.5292 40.5528 12.5383C40.6101 12.5474 40.6511 12.5534 40.6805 12.5534C40.7006 12.5534 40.7339 12.5458 40.7787 12.5345C40.8252 12.5217 40.8569 12.5172 40.8793 12.5172C40.9381 12.5172 40.9807 12.5368 41.0047 12.5768C41.0294 12.6191 41.0418 12.6726 41.0418 12.7443C41.0418 12.8975 40.9969 13.0628 40.911 13.2394C40.8236 13.4175 40.7787 13.5179 40.7787 13.5428C40.7787 13.5632 40.7934 13.5874 40.8221 13.6123C40.8414 13.6055 40.8654 13.5941 40.8863 13.5798C40.9103 13.5655 40.9312 13.5489 40.9528 13.527C40.9667 13.5723 40.9884 13.6274 41.0186 13.687C41.0472 13.7466 41.0797 13.8168 41.1153 13.8945C41.1315 13.9202 41.1439 13.9421 41.1509 13.9617C41.1578 13.9813 41.1617 14.0009 41.1617 14.0183C41.0147 14.1715 40.8855 14.29 40.7733 14.3715C40.6619 14.4538 40.5667 14.4975 40.4902 14.5043C40.4654 14.5043 40.436 14.5028 40.4004 14.5006C40.3664 14.4991 40.323 14.4968 40.2751 14.4938C40.2263 14.5541 40.1675 14.6228 40.0994 14.7006C40.0314 14.7783 39.954 14.8719 39.8697 14.9791C39.8364 15.0047 39.7907 15.0372 39.7397 15.0772C39.6878 15.1187 39.6267 15.17 39.5602 15.2296C39.4596 15.3323 39.3598 15.4085 39.2592 15.4553C39.1594 15.5043 39.0596 15.5285 38.9567 15.5285C38.9118 15.5285 38.867 15.5232 38.8244 15.5104C38.7795 15.4983 38.7292 15.4741 38.6735 15.4379C38.6325 15.416 38.5877 15.3874 38.5412 15.3504C38.4925 15.3126 38.4407 15.2689 38.385 15.2198C38.3153 15.0032 38.265 14.8009 38.2325 14.616C38.2024 14.4319 38.1853 14.2553 38.1853 14.0877C38.1853 14.0583 38.1823 14.0349 38.1768 14.0168C38.1714 13.9972 38.1637 13.9806 38.1529 13.9655L38.1072 13.9496L38.0693 13.9655L38.0175 14.0183C37.9881 13.9406 37.9579 13.8606 37.9215 13.7783C37.8898 13.6945 37.8503 13.6108 37.8093 13.5255ZM40.2387 9.19339C40.2387 9.17528 40.2372 9.16019 40.231 9.14736C40.2263 9.13528 40.2163 9.12396 40.2023 9.11339C40.1807 9.10887 40.1559 9.13302 40.1288 9.18585C40.1002 9.23641 40.0747 9.31113 40.0499 9.40622C40.0352 9.47717 40.0035 9.56094 39.9548 9.65754C39.9068 9.75415 39.8441 9.86736 39.7668 9.99943C39.701 10.1119 39.6345 10.2387 39.5718 10.3798C39.5091 10.5202 39.4465 10.6726 39.3838 10.8357C39.3025 11.0274 39.2437 11.1964 39.2043 11.3413C39.1664 11.487 39.1463 11.604 39.1463 11.693L39.1579 11.7421C39.1849 11.727 39.2314 11.6583 39.2956 11.5323C39.3614 11.4092 39.4457 11.2289 39.5517 10.9941C39.6484 10.7889 39.7219 10.6266 39.7683 10.5096C39.8155 10.3911 39.8457 10.3134 39.8542 10.2749C39.8828 10.1783 39.9169 10.0681 39.954 9.93905C39.9934 9.81151 40.036 9.66887 40.0847 9.51264C40.1203 9.45302 40.1513 9.40019 40.1753 9.35792C40.1962 9.32849 40.2124 9.30132 40.224 9.27264C40.2325 9.24396 40.2387 9.2183 40.2387 9.19339ZM45.5849 13.927L45.3806 13.4364C45.3481 13.4651 45.3156 13.4923 45.2839 13.5217C45.2499 13.5511 45.2174 13.5768 45.1872 13.6017C45.133 13.6394 45.0835 13.6757 45.0371 13.7089C44.9907 13.7398 44.9458 13.7655 44.9025 13.7836C44.8398 13.8153 44.7787 13.8364 44.716 13.8485C44.6549 13.8613 44.5976 13.8636 44.5458 13.8515C44.5009 13.8447 44.4561 13.8281 44.412 13.8062C44.3686 13.7828 44.3276 13.7519 44.2897 13.7119C44.2541 13.6809 44.2178 13.6394 44.1783 13.5896C44.1404 13.5406 44.1048 13.4862 44.0746 13.4304C44.0421 13.3775 44.0127 13.3247 43.9872 13.2734C43.9625 13.2228 43.9346 13.1685 43.9114 13.1096C43.9741 13.0221 44.0259 12.9587 44.0692 12.9187C44.1102 12.8809 44.1566 12.8168 44.2108 12.7315C44.241 12.6824 44.2843 12.6077 44.3392 12.5074C44.3942 12.4092 44.4352 12.3368 44.4615 12.2892C44.4824 12.2583 44.5009 12.2221 44.5149 12.1836C44.528 12.1436 44.5435 12.1089 44.5613 12.0764C44.61 11.9941 44.6642 11.9179 44.7214 11.8447C44.7802 11.7723 44.8212 11.7066 44.8506 11.65C44.8831 11.5934 44.9079 11.5406 44.928 11.4953C44.9458 11.4477 44.9582 11.4115 44.9613 11.3828C44.9814 11.2477 44.969 11.1466 44.9218 11.0772C44.8738 11.0077 44.8166 10.9677 44.7462 10.9572C44.682 10.9458 44.6147 10.9572 44.5404 10.9896C44.4661 11.0206 44.4143 11.0696 44.3826 11.1383C44.3408 11.2296 44.2441 11.4115 44.0924 11.6802C43.94 11.9519 43.752 12.2794 43.5284 12.6613C43.4874 12.6583 43.4379 12.6704 43.3822 12.696C43.3265 12.7247 43.2669 12.7692 43.2027 12.8334C43.1539 12.8825 43.1153 12.9338 43.0866 12.9828C43.0565 13.0334 43.0371 13.0802 43.0263 13.1262C43.0186 13.1557 43.0085 13.1919 42.9938 13.2387C42.9791 13.284 42.9745 13.3247 42.9745 13.3557C42.9745 13.3775 42.9884 13.4062 43.0209 13.4447C43.051 13.4817 43.0704 13.5119 43.0781 13.5383C43.0572 13.5723 43.0333 13.6032 43.0085 13.6311C42.9814 13.6591 42.9528 13.6915 42.9211 13.7292C42.8723 13.7911 42.8228 13.8636 42.7725 13.9481C42.7207 14.0326 42.6774 14.1081 42.6379 14.1715C42.5752 14.2794 42.5273 14.3353 42.4948 14.3406C42.46 14.3458 42.4538 14.2953 42.4692 14.1874C42.4731 14.1391 42.4801 14.084 42.4894 14.0258C42.4963 13.9677 42.5072 13.9074 42.518 13.8477C42.5288 13.7934 42.5412 13.7368 42.559 13.6764C42.5768 13.616 42.593 13.5602 42.6077 13.5058C42.6278 13.4236 42.6511 13.3421 42.6774 13.2575C42.7044 13.1738 42.7276 13.0945 42.7493 13.016C42.7687 12.9413 42.7903 12.8666 42.8128 12.7934C42.8336 12.7209 42.8499 12.6553 42.8638 12.5934C42.8746 12.5443 42.8801 12.4953 42.8816 12.444C42.8832 12.3957 42.8909 12.3496 42.9017 12.3051C42.9141 12.2674 42.9373 12.2266 42.9659 12.1851C42.9969 12.1451 43.0131 12.1051 43.0162 12.0651C43.0193 12.0236 43.0193 11.976 43.0147 11.9255C43.0093 11.8726 43.0039 11.8304 43 11.7994C42.993 11.7564 42.9768 11.7209 42.9482 11.6923C42.9195 11.6643 42.894 11.6432 42.8692 11.6289C42.7331 11.5474 42.617 11.5708 42.5195 11.7021C42.4244 11.8304 42.2456 12.053 41.9872 12.364C41.7319 12.6689 41.5184 12.9202 41.3443 13.1187C41.1725 13.3157 41.0186 13.4734 40.8863 13.5896L41.0905 14.0764C41.212 13.9798 41.3126 13.8817 41.3892 13.7798C41.4665 13.6794 41.5416 13.5775 41.6159 13.4794C41.6747 13.3972 41.7304 13.3232 41.7838 13.2553C41.8356 13.1858 41.8696 13.1594 41.8874 13.17C41.9052 13.1806 41.9014 13.2311 41.8766 13.3247C41.8534 13.4153 41.8224 13.5247 41.7884 13.6485C41.7559 13.7443 41.7242 13.847 41.6901 13.9519C41.6576 14.0591 41.6306 14.1579 41.6089 14.2455C41.5803 14.367 41.5578 14.493 41.5377 14.6236C41.5199 14.7572 41.5215 14.8772 41.5462 14.9874C41.5694 15.0998 41.6105 15.1926 41.67 15.2643C41.7281 15.3353 41.8186 15.3843 41.9462 15.413C41.9694 15.413 42.0282 15.3806 42.1211 15.3164C42.2132 15.253 42.3168 15.1617 42.4329 15.0455C42.4747 14.9979 42.5133 14.9451 42.5513 14.8832C42.5868 14.8206 42.6302 14.7632 42.6797 14.7089C42.7354 14.6485 42.7764 14.607 42.8019 14.5828C42.8282 14.5609 42.8692 14.5141 42.9257 14.4425C42.9683 14.3896 43.0077 14.3368 43.0472 14.2847C43.0851 14.2334 43.1245 14.1791 43.1679 14.1225C43.1888 14.0938 43.2104 14.0636 43.236 14.0357C43.2607 14.004 43.2824 13.9753 43.3033 13.9466C43.359 14.0206 43.4108 14.0847 43.458 14.1353C43.506 14.1881 43.5493 14.2357 43.5864 14.2772C43.646 14.3406 43.7087 14.3994 43.7729 14.4538C43.8371 14.5066 43.9052 14.5481 43.9748 14.5813C44.0267 14.607 44.0847 14.6258 44.145 14.6432C44.2062 14.6583 44.2688 14.6674 44.3315 14.6674C44.3694 14.6674 44.4143 14.6621 44.4622 14.6508C44.5125 14.6402 44.5621 14.6236 44.6147 14.604C44.6665 14.5858 44.7222 14.5617 44.7787 14.5353C44.8383 14.5051 44.8932 14.4741 44.9512 14.444C45.0247 14.4025 45.1013 14.3496 45.1841 14.2877C45.2661 14.2243 45.3427 14.1602 45.4162 14.093C45.4448 14.0674 45.4742 14.0409 45.5044 14.013C45.533 13.9836 45.5601 13.9564 45.5849 13.927ZM45.3179 13.5255C45.3984 13.4394 45.5222 13.3375 45.6878 13.2183C45.8541 13.096 45.9779 12.9979 46.0584 12.9194C46.1102 12.856 46.1783 12.7775 46.2626 12.6885C46.3469 12.5979 46.4467 12.4908 46.562 12.3647C46.6309 12.3006 46.6997 12.2515 46.7663 12.2153C46.832 12.1806 46.8986 12.1624 46.9667 12.1624C47.0487 12.1624 47.1152 12.1843 47.1616 12.2251C47.2104 12.2696 47.2328 12.3368 47.2328 12.4281C47.2328 12.5677 47.1817 12.7911 47.0758 13.1013C46.9698 13.4092 46.9179 13.6432 46.9179 13.8032C46.9179 13.8402 46.9264 13.8636 46.9404 13.8787C46.9566 13.893 46.9744 13.8998 46.9961 13.8998L47.0224 13.8953C47.0889 13.853 47.1663 13.7987 47.2552 13.733C47.345 13.6658 47.4456 13.5858 47.5562 13.4885C47.6475 13.404 47.7605 13.293 47.8951 13.1541C48.0313 13.016 48.1883 12.856 48.3701 12.6741C48.4413 12.6175 48.5202 12.5451 48.61 12.4553C48.6997 12.367 48.7995 12.2613 48.9109 12.136C48.9574 12.0711 49.0208 12.0228 49.1028 11.9866C49.1848 11.9526 49.2854 11.9338 49.4053 11.9338C49.4842 11.9338 49.5454 11.9481 49.5864 11.9798C49.6258 12.0085 49.6452 12.0545 49.6452 12.1157C49.6452 12.1398 49.6436 12.1632 49.6382 12.1866C49.6336 12.2108 49.6274 12.2319 49.6258 12.253C49.6003 12.3594 49.5632 12.49 49.5144 12.6455C49.4657 12.7994 49.4053 12.9813 49.3357 13.1911C49.2761 13.3247 49.2158 13.4809 49.1492 13.6643C49.085 13.8462 49.0169 14.0485 48.9434 14.2681L48.979 14.3157C49.0525 14.2809 49.1616 14.1964 49.3086 14.0628C49.4533 13.93 49.6367 13.7496 49.8564 13.527L50.066 14.0175C50.0374 14.0477 50.0034 14.0809 49.9639 14.1217C49.9229 14.1632 49.8711 14.2077 49.8038 14.253C49.4301 14.5217 49.1074 14.7896 48.8405 15.0553C48.5736 15.3194 48.3601 15.5813 48.2022 15.8417C47.9678 16.2326 47.7728 16.5511 47.6189 16.7949C47.4626 17.0417 47.3496 17.2138 47.28 17.3134C47.0378 17.6357 46.8088 17.8764 46.5914 18.0326C46.374 18.1889 46.1636 18.2681 45.9578 18.2681C45.8804 18.2681 45.8239 18.2515 45.7899 18.2206C45.7535 18.1881 45.7357 18.1375 45.7357 18.0711C45.7357 18.0341 45.745 17.9911 45.762 17.9368C45.7806 17.884 45.8108 17.8274 45.8572 17.7677C45.9237 17.6711 45.9849 17.57 46.0398 17.4689L46.1976 17.3292C46.2123 17.2832 46.2193 17.2508 46.2193 17.2349C46.2332 17.2168 46.2526 17.1949 46.2781 17.1715C46.3052 17.1458 46.3361 17.1164 46.3717 17.0855C46.3949 17.0221 46.4615 16.9141 46.569 16.767C46.675 16.6198 46.8251 16.4304 47.017 16.1994C47.1609 16.0304 47.2908 15.8779 47.4115 15.7451C47.5291 15.6115 47.632 15.4998 47.7164 15.4062C47.7287 15.3768 47.745 15.3443 47.7605 15.3043C47.7752 15.2658 47.7899 15.2258 47.7999 15.1881C47.8448 15.0945 47.8951 14.9843 47.9485 14.8508C48.0019 14.7202 48.0684 14.5655 48.1458 14.3874C48.1798 14.2855 48.21 14.167 48.2355 14.0341C48.2587 13.8998 48.2819 13.7564 48.3036 13.5994C48.2966 13.5851 48.2912 13.567 48.2889 13.5428C48.2873 13.5187 48.2804 13.487 48.2657 13.4447C48.2022 13.4779 48.1349 13.5247 48.0599 13.5889C47.9841 13.6523 47.902 13.727 47.8146 13.8123C47.7001 13.9647 47.5817 14.0923 47.4634 14.1941C47.345 14.2945 47.2266 14.3723 47.1121 14.4251C47.0347 14.5783 46.9365 14.6908 46.815 14.764C46.6951 14.8364 46.5558 14.8734 46.3972 14.8734C46.2827 14.8734 46.1945 14.8455 46.1357 14.7911C46.0762 14.7345 46.046 14.6508 46.046 14.536C46.046 14.5164 46.0475 14.4892 46.0529 14.4568C46.0584 14.4251 46.0669 14.3874 46.0777 14.3451C46.0638 14.3089 46.0452 14.2606 46.0243 14.1957C46.039 14.136 46.0514 14.0674 46.0622 13.9926C46.0622 13.887 46.0529 13.8062 46.039 13.7541C46.0228 13.6991 45.998 13.6741 45.9616 13.6741L45.9408 13.684C45.9036 13.7126 45.8495 13.7549 45.7798 13.813C45.7094 13.8696 45.6251 13.9391 45.5268 14.0198C45.509 13.9738 45.4874 13.9179 45.4611 13.8538C45.4363 13.7911 45.4092 13.7157 45.3806 13.6311C45.3729 13.6092 45.3644 13.5889 45.3535 13.57C45.345 13.5511 45.3326 13.536 45.3179 13.5255Z" fill="#750502"/>
<path d="M49.8525 13.5255L49.899 13.484C49.9028 13.4432 49.9284 13.3979 49.9725 13.3451C50.0189 13.2908 50.0839 13.2289 50.1682 13.1579C50.2193 13.1194 50.275 13.0825 50.3322 13.047C50.3903 13.0123 50.4452 12.9715 50.497 12.9308C50.7175 12.7383 50.9311 12.5541 51.1392 12.376C51.2568 12.2704 51.3775 12.1775 51.4951 12.1006C51.6127 12.0243 51.7256 11.9647 51.8316 11.9172C51.9051 11.8213 52.0413 11.7247 52.2432 11.6243C52.4444 11.524 52.6069 11.4749 52.7345 11.4749C52.7833 11.4749 52.8219 11.49 52.8521 11.5172C52.8815 11.5466 52.8993 11.5821 52.9055 11.6243V11.9172C52.9055 12.0206 52.8769 12.1119 52.8196 12.1919C52.7624 12.2719 52.6742 12.3466 52.5604 12.4138C52.4831 12.4485 52.4065 12.4885 52.3291 12.53C52.2525 12.5738 52.1751 12.6108 52.0985 12.6485C52.0691 12.6832 51.9964 12.7504 51.875 12.8462C51.7543 12.9451 51.591 13.0757 51.3837 13.2394C51.2908 13.3141 51.2111 13.3806 51.1492 13.4394C51.085 13.4983 51.0417 13.5451 51.0169 13.5798C50.9829 13.6462 50.9558 13.7232 50.9365 13.8032C50.9164 13.8862 50.9078 13.9798 50.9078 14.087C50.9078 14.1692 50.921 14.2379 50.9434 14.2968C50.969 14.3572 51.0061 14.404 51.0548 14.4387C51.0881 14.4643 51.1369 14.4877 51.198 14.5134C51.2606 14.5391 51.3365 14.5625 51.427 14.5881C51.4796 14.5662 51.55 14.5466 51.6351 14.5255C51.721 14.5081 51.8162 14.4802 51.9198 14.4492C52.0397 14.3783 52.1612 14.3036 52.285 14.2258C52.4111 14.1458 52.5326 14.0651 52.6564 13.9836C52.6742 13.9745 52.6958 13.9617 52.7206 13.9489C52.7477 13.9383 52.7747 13.9179 52.8026 13.8945C52.8366 13.847 52.8846 13.7941 52.9465 13.7323C53.0092 13.6719 53.0827 13.6032 53.1701 13.5255C53.3094 13.8349 53.3798 13.9987 53.3798 14.016C53.2506 14.124 53.1175 14.2326 52.9852 14.3436C52.8521 14.4568 52.6997 14.5474 52.5279 14.6191C52.473 14.6666 52.4258 14.7081 52.3864 14.7481C52.2107 14.9262 52.0088 15.0598 51.7751 15.1504C51.5415 15.2409 51.2769 15.287 50.9798 15.287C50.914 15.287 50.8521 15.2817 50.8011 15.2704C50.7492 15.2598 50.7044 15.2462 50.6703 15.2281C50.5643 15.1572 50.4769 15.0938 50.4019 15.0402C50.326 14.9843 50.2595 14.93 50.2084 14.8787C50.1566 14.8266 50.1171 14.7768 50.0939 14.7315C50.0614 14.6824 50.0398 14.6206 50.0274 14.5496C50.0142 14.4794 50.0096 14.3919 50.0096 14.2892C50.0096 14.2606 50.0181 14.2145 50.0344 14.1496C50.0529 14.0855 50.0622 14.0417 50.0622 14.016C50.0367 13.9383 50.008 13.8583 49.9725 13.776C49.9376 13.6945 49.8974 13.6108 49.8525 13.5255ZM53.1639 13.5255C53.2049 13.604 53.2444 13.6855 53.2784 13.7692C53.314 13.8523 53.345 13.9353 53.3736 14.016C53.4061 13.9798 53.427 13.9489 53.4417 13.9202C53.4556 13.893 53.4687 13.8711 53.4796 13.8568C53.601 13.7572 53.6962 13.6809 53.762 13.6281C53.8285 13.5753 53.8695 13.5481 53.8873 13.5481C53.9167 13.5481 53.9376 13.5572 53.9538 13.5715C53.9701 13.5881 53.9771 13.6077 53.9771 13.6341C53.9771 13.6598 53.9577 13.7413 53.9198 13.8817C53.8803 14.0221 53.8602 14.136 53.8602 14.2206C53.8602 14.4311 53.9407 14.6206 54.1024 14.7911C54.2633 14.9624 54.4444 15.0485 54.644 15.0485C54.6765 15.0485 54.7151 15.0402 54.767 15.0266C54.8173 15.0115 54.8505 15.0062 54.8691 15.0062C54.9279 15.0062 54.9944 14.9934 55.0656 14.97C55.1376 14.9481 55.2165 14.9149 55.3047 14.8719C55.4548 14.8077 55.5925 14.7277 55.7163 14.6289C55.8401 14.5315 55.9453 14.4236 56.0335 14.3058C56.066 14.3768 56.107 14.4326 56.1612 14.4711C56.2122 14.5119 56.2795 14.5315 56.36 14.5315C56.4296 14.5315 56.5016 14.5157 56.5735 14.4862C56.6447 14.4553 56.7198 14.4062 56.8002 14.3391C56.866 14.29 56.9294 14.2372 56.9882 14.1843C57.0501 14.1315 57.1105 14.0749 57.1731 14.0183C57.1391 13.9375 57.1051 13.8545 57.071 13.7715C57.037 13.6877 57.0029 13.6055 56.9689 13.5277C56.9279 13.564 56.89 13.5896 56.8606 13.6077C56.8304 13.6258 56.8018 13.6357 56.7731 13.6357C56.7461 13.6357 56.7236 13.6236 56.7051 13.6047C56.6888 13.5858 56.6726 13.5534 56.6586 13.5081C56.6927 13.4772 56.7298 13.4258 56.7716 13.3534C56.8111 13.2825 56.849 13.1949 56.8846 13.0877C56.9163 12.9911 56.9387 12.9013 56.9526 12.8213C56.9666 12.7406 56.9743 12.6681 56.9743 12.607C56.9743 12.2892 56.9101 12.0485 56.7824 11.89C56.6532 11.7315 56.4637 11.6538 56.2076 11.6538C56.1821 11.6538 56.1263 11.6681 56.0397 11.696C55.9515 11.7255 55.8316 11.7685 55.6776 11.8311L55.6474 11.7821C55.6846 11.7006 55.7209 11.6183 55.7573 11.5383C55.7534 11.5013 55.7318 11.4741 55.6908 11.4538C55.6521 11.4341 55.5925 11.4251 55.5159 11.4251C55.4455 11.4251 55.3805 11.4394 55.3225 11.4674C55.2637 11.4968 55.2041 11.536 55.1484 11.5851C55.1004 11.6334 55.0517 11.687 55.0053 11.7398C54.9565 11.7926 54.9062 11.8455 54.8544 11.8998C54.8134 11.9383 54.767 11.9783 54.7182 12.0206C54.6703 12.0606 54.62 12.1036 54.572 12.1496C54.5163 12.2002 54.4683 12.2515 54.4266 12.3028C54.3879 12.3534 54.3585 12.3994 54.3407 12.4394C54.1906 12.5738 54.0645 12.6892 53.9631 12.7813C53.8625 12.8757 53.7875 12.9519 53.7372 13.013L53.3341 13.2953C53.2985 13.3458 53.2684 13.3896 53.2413 13.4319C53.2142 13.4674 53.1894 13.4998 53.1639 13.5255ZM55.6884 12.5519C55.7998 12.5662 55.885 12.5791 55.9445 12.5919C56.0057 12.6047 56.0428 12.6145 56.0606 12.6266C56.0892 12.6409 56.1155 12.6794 56.1441 12.7406C56.1712 12.8032 56.2014 12.8877 56.2339 12.9934L56.1395 13.2975C56.1217 13.3685 56.1039 13.4289 56.0877 13.4764C56.0699 13.5255 56.0467 13.5602 56.0196 13.5798C55.9693 13.6417 55.9175 13.7058 55.8617 13.7723C55.7418 13.9526 55.6149 14.0892 55.4803 14.1806C55.3457 14.2719 55.1995 14.3172 55.0385 14.3172C54.9364 14.3172 54.8614 14.2915 54.8126 14.2425C54.7631 14.1911 54.7391 14.1164 54.7391 14.0183C54.7391 13.964 54.7476 13.8983 54.7647 13.8206C54.7825 13.7421 54.8119 13.6492 54.849 13.5383C54.8885 13.4138 54.9264 13.3179 54.9658 13.253C55.003 13.1874 55.0409 13.1526 55.0749 13.1489C55.1306 13.1383 55.1809 13.1217 55.2258 13.0983C55.2683 13.0757 55.3093 13.0432 55.3496 12.9994C55.4122 12.9036 55.4672 12.816 55.5159 12.7338C55.5476 12.6832 55.5801 12.6409 55.6126 12.6085C55.6451 12.5738 55.6699 12.5557 55.6884 12.5519ZM62.4032 13.9428C62.3414 14.0055 62.2748 14.0681 62.2067 14.1255C62.1386 14.1858 62.0706 14.2402 62.0033 14.2892C61.8996 14.364 61.7959 14.4349 61.693 14.5006C61.5909 14.5662 61.4903 14.6153 61.3967 14.6477C61.2907 14.6817 61.1924 14.7021 61.0996 14.7043C61.0067 14.7058 60.9348 14.6915 60.883 14.6651C60.8187 14.6319 60.7762 14.5843 60.7507 14.5225C60.7274 14.4606 60.7143 14.3919 60.7143 14.3172C60.7143 14.2319 60.7251 14.1413 60.7483 14.0409C60.7715 13.9406 60.7979 13.8462 60.8288 13.7534C60.8443 13.7021 60.8628 13.6492 60.8884 13.5896C60.9116 13.5323 60.9348 13.4734 60.9565 13.4168C60.9975 13.3111 61.0331 13.2153 61.0601 13.1292C61.0888 13.044 61.0926 12.9972 61.071 12.9858C61.0532 12.9783 61.0168 12.9987 60.9619 13.044C60.9038 13.0915 60.8396 13.1534 60.7661 13.2311C60.7027 13.2983 60.6323 13.3775 60.5549 13.4658C60.476 13.5534 60.3955 13.6462 60.3151 13.7428C60.2524 13.8175 60.1828 13.9021 60.1054 14.0002C60.028 14.0945 59.953 14.1889 59.8795 14.2817C59.8485 14.3164 59.8199 14.3625 59.799 14.4183C59.7758 14.4726 59.7503 14.5164 59.7217 14.5474C59.666 14.6221 59.6102 14.6817 59.5545 14.7255C59.4973 14.77 59.4601 14.804 59.4385 14.8289C59.3758 14.8998 59.2946 14.9126 59.1948 14.8658C59.0942 14.8198 59.0486 14.7587 59.0547 14.6794C59.0547 14.6583 59.0462 14.6357 59.03 14.6108C59.0122 14.5851 59.0029 14.5594 59.0029 14.5308C59.0068 14.4779 59.023 14.4183 59.0493 14.3549C59.0787 14.2908 59.0927 14.2289 59.0927 14.1692C59.0927 14.1104 59.0981 14.0508 59.1089 13.9874C59.1174 13.924 59.1228 13.8598 59.1228 13.7964C59.1306 13.7111 59.136 13.6258 59.1391 13.5406C59.1429 13.4545 59.1445 13.373 59.1445 13.2945C59.1476 13.2274 59.1445 13.1617 59.1344 13.0983C59.1228 13.0349 59.1174 12.9723 59.1174 12.9104C59.1174 12.8206 59.1267 12.7375 59.1429 12.656C59.1569 12.5738 59.1662 12.5081 59.1662 12.4568C59.1662 12.4304 59.1553 12.4153 59.1375 12.4153C59.1174 12.4153 59.0996 12.4372 59.0818 12.4787C59.0679 12.5209 59.0594 12.5783 59.0555 12.6515C59.0516 12.724 59.0408 12.7911 59.0191 12.8515C58.9805 12.9549 58.9371 13.0643 58.8907 13.1821C58.8443 13.2983 58.7956 13.4168 58.7476 13.5338C58.7151 13.6085 58.6811 13.6847 58.647 13.7632C58.6114 13.8417 58.5789 13.9179 58.5464 13.9926C58.5194 14.0492 58.4814 14.1021 58.4335 14.1496C58.3871 14.1987 58.353 14.2477 58.3321 14.2968C58.3035 14.3496 58.2834 14.41 58.2702 14.4726C58.2602 14.5368 58.2385 14.5934 58.2114 14.6424C58.1766 14.7074 58.1379 14.7753 58.0985 14.8477C58.0567 14.9209 58.0196 14.9843 57.9855 15.0364C57.9422 15.0998 57.8973 15.1549 57.8455 15.1964C57.796 15.2409 57.7488 15.2772 57.7078 15.3096C57.6652 15.3413 57.6079 15.3572 57.536 15.3572C57.4648 15.3572 57.4083 15.3572 57.3658 15.3572C57.3325 15.3572 57.2962 15.3534 57.2621 15.3451C57.2265 15.336 57.194 15.3194 57.1623 15.2991C57.1298 15.2779 57.1012 15.25 57.0726 15.216C57.0463 15.1836 57.0215 15.1391 56.9998 15.087C56.9882 15.0613 56.9728 15.0289 56.9472 14.9904C56.9225 14.9511 56.9047 14.9051 56.8962 14.8515C56.8815 14.7972 56.8722 14.7353 56.8691 14.6651C56.866 14.5934 56.8637 14.5141 56.8637 14.4243C56.8637 14.3579 56.8691 14.2809 56.8799 14.1949C56.8915 14.1096 56.9 14.0206 56.9054 13.924C56.9093 13.8636 56.9171 13.8002 56.9271 13.7315C56.9379 13.6643 56.948 13.5949 56.9596 13.524C56.9704 13.4636 57.0416 13.4455 57.177 13.4666C57.3124 13.49 57.3758 13.5141 57.3681 13.5406C57.3681 13.5624 57.3666 13.5896 57.3627 13.6258C57.3596 13.6606 57.3581 13.6998 57.3581 13.7421C57.3581 13.8055 57.3627 13.8779 57.372 13.9602C57.3805 14.0424 57.3913 14.1149 57.406 14.1806C57.4238 14.2402 57.4455 14.2915 57.4702 14.3323C57.4973 14.3715 57.529 14.3941 57.5685 14.3941C57.6134 14.3941 57.6567 14.3798 57.6992 14.3504C57.7403 14.3232 57.7836 14.2847 57.8246 14.2394C57.854 14.207 57.8826 14.1647 57.9143 14.1134C57.9445 14.0628 57.9755 14.0077 58.0041 13.9519C58.0234 13.9074 58.0435 13.8591 58.0575 13.8024C58.0737 13.7443 58.0938 13.6885 58.1186 13.6319C58.1441 13.5775 58.1673 13.5247 58.1921 13.4674C58.2168 13.4138 58.2385 13.3587 58.2602 13.3058C58.2671 13.284 58.2818 13.2598 58.3058 13.2311C58.3283 13.2017 58.343 13.176 58.3499 13.1511C58.3607 13.1209 58.3677 13.0855 58.3739 13.053C58.3785 13.0191 58.3863 12.9881 58.3971 12.9602C58.411 12.9202 58.4226 12.8802 58.4296 12.8364C58.4366 12.7941 58.4435 12.7511 58.4544 12.7096C58.4652 12.6689 58.4838 12.6296 58.5101 12.5889C58.5371 12.5489 58.5549 12.5104 58.5658 12.4749C58.5766 12.4424 58.5905 12.4145 58.6122 12.3896C58.6339 12.364 58.6501 12.3368 58.6609 12.3036C58.6702 12.2726 58.6772 12.2349 58.6787 12.1934C58.6803 12.1496 58.6841 12.1134 58.6919 12.0809C58.7066 12.0281 58.7228 11.973 58.7422 11.9187C58.7615 11.8643 58.7778 11.8092 58.7917 11.7549C58.8064 11.7058 58.8195 11.6568 58.8327 11.6092C58.8474 11.5617 58.8598 11.5172 58.8706 11.4726C58.8776 11.4492 58.9062 11.4183 58.958 11.3821C59.0114 11.3474 59.0656 11.3126 59.1205 11.2817C59.1638 11.2598 59.2102 11.2364 59.266 11.213C59.3193 11.1874 59.3735 11.1655 59.4253 11.1489C59.4772 11.1308 59.5344 11.1172 59.5955 11.1111C59.6567 11.1036 59.7101 11.1036 59.7565 11.1111C59.8021 11.1172 59.8416 11.1345 59.8764 11.1579C59.9104 11.1836 59.9306 11.2183 59.9344 11.2598C59.9375 11.3126 59.9398 11.3745 59.9398 11.444C59.9398 11.5134 59.9398 11.5836 59.9398 11.6553C59.9398 11.7187 59.9429 11.7858 59.9522 11.8575C59.9607 11.9292 59.9669 11.9994 59.9669 12.0704C59.9669 12.1632 59.9654 12.2319 59.963 12.2794C59.9615 12.3247 59.9592 12.3904 59.9561 12.4757C59.9483 12.5715 59.9398 12.6628 59.9275 12.7466C59.9143 12.8326 59.9073 12.9089 59.9073 12.976C59.9073 13.0764 59.9182 13.1911 59.9398 13.3187C60.0381 13.2515 60.1186 13.1813 60.1812 13.1111C60.1921 13.0968 60.2091 13.0832 60.2331 13.0764C60.2586 13.0674 60.2803 13.0515 60.2957 13.0304C60.3104 13.016 60.3236 12.9949 60.3352 12.964C60.3476 12.933 60.3623 12.9096 60.3801 12.8908C60.4017 12.8711 60.4288 12.85 60.4621 12.8304C60.4946 12.8108 60.5216 12.7904 60.5425 12.7685C60.5642 12.7436 60.5797 12.7141 60.5928 12.6779C60.6052 12.6432 60.6215 12.6138 60.6431 12.5926C60.6733 12.5541 60.705 12.5157 60.7398 12.4779C60.7723 12.4417 60.8095 12.4017 60.8528 12.3587C60.9085 12.2938 60.9642 12.2372 61.0207 12.1851C61.0764 12.1345 61.1305 12.0734 61.1824 12.007C61.252 11.9217 61.3077 11.85 61.3487 11.7934C61.3882 11.7375 61.433 11.6779 61.4818 11.6115C61.4957 11.5919 61.553 11.5753 61.6489 11.564C61.7479 11.5534 61.8299 11.5534 61.8965 11.564C61.9592 11.5753 62.0125 11.5987 62.0559 11.6334C62.1007 11.6696 62.1092 11.7187 62.0845 11.7828C62.0729 11.8153 62.0559 11.8681 62.0311 11.9428C62.0033 12.0175 61.9715 12.1028 61.9328 12.1972C61.9197 12.2372 61.9003 12.2862 61.8787 12.3451C61.8555 12.4032 61.833 12.4606 61.8129 12.5172C61.7905 12.5813 61.7696 12.647 61.7464 12.7126C61.7255 12.7775 61.7069 12.8326 61.6976 12.8734C61.6682 12.9557 61.6443 13.0379 61.6211 13.1194C61.5978 13.2017 61.58 13.2779 61.5646 13.3489C61.5452 13.4734 61.5344 13.5783 61.5367 13.6674C61.5383 13.7564 61.5599 13.8108 61.6025 13.8326C61.6288 13.847 61.676 13.8402 61.7417 13.8108C61.806 13.7836 61.8756 13.7398 61.953 13.684C61.9932 13.6523 62.0319 13.6168 62.0744 13.5806C62.1162 13.5421 62.1541 13.5036 62.1897 13.4651L62.4032 13.9428Z" fill="#750502"/>
</svg>
