<svg width="133" height="43" viewBox="0 0 133 43" fill="none" xmlns="http://www.w3.org/2000/svg">
<g clip-path="url(#clip0_300_4102)">
<path fill-rule="evenodd" clip-rule="evenodd" d="M127.899 24.3169H126.721L125.734 25.7179V24.3169H124.724V27.821H125.734V26.3897L126.679 27.821H127.933L126.593 26.0132L127.899 24.3169ZM119.467 24.3169H120.476V27.8249H119.467V24.3169ZM112.968 25.1576H113.726V27.821H114.731V25.1576H115.489V24.3169H112.968V25.1576ZM108.536 25.7412C108.459 25.7026 108.378 25.6729 108.295 25.6526C108.232 25.6255 108.165 25.6074 108.097 25.599C108.078 25.5876 108.048 25.5837 108.018 25.5797C107.992 25.5683 107.965 25.5644 107.932 25.553C107.871 25.5346 107.815 25.5032 107.767 25.4608C107.743 25.4387 107.725 25.412 107.712 25.3823C107.699 25.3526 107.692 25.3205 107.692 25.2879C107.699 25.2691 107.699 25.2458 107.699 25.2265C107.707 25.1958 107.714 25.1769 107.718 25.1576C107.74 25.1101 107.775 25.0702 107.819 25.0427C107.871 25.0041 107.932 24.9887 108.018 24.9887C108.119 25.0001 108.206 25.0194 108.277 25.058C108.371 25.1037 108.442 25.1537 108.524 25.2116C108.543 25.2265 108.558 25.2423 108.577 25.2572C108.596 25.2765 108.611 25.2879 108.622 25.2958H108.667L109.012 24.5587C109.005 24.5512 109.001 24.5512 109.001 24.5512L108.986 24.5398C108.772 24.3902 108.573 24.2981 108.385 24.2673C108.248 24.2347 108.107 24.2166 107.965 24.2134H107.92C107.527 24.2173 107.23 24.3209 107.024 24.5205C106.924 24.6172 106.845 24.7339 106.792 24.8634C106.739 24.9929 106.713 25.1322 106.716 25.2726C106.716 25.5604 106.776 25.7754 106.9 25.9215C107.031 26.0633 107.174 26.1708 107.32 26.2396C107.38 26.2704 107.44 26.2897 107.5 26.309C107.568 26.3318 107.621 26.3471 107.673 26.359C107.68 26.3665 107.692 26.3665 107.699 26.3665C107.707 26.3692 107.716 26.3705 107.725 26.3704C107.856 26.4086 107.965 26.4546 108.052 26.5047C108.146 26.5582 108.187 26.6503 108.187 26.7811V26.8425C108.182 26.8667 108.173 26.89 108.161 26.9114C108.144 26.9571 108.114 26.9962 108.074 27.0229C108.026 27.065 107.962 27.0803 107.875 27.0803H107.834C107.815 27.0689 107.808 27.0689 107.796 27.0689C107.674 27.0476 107.557 27.002 107.451 26.9347C107.342 26.8695 107.239 26.7937 107.144 26.7083L107.099 26.6622C107.083 26.6466 107.068 26.6299 107.054 26.6122H107.001L106.551 27.3607C106.705 27.4836 106.836 27.5871 106.956 27.66C107.087 27.7403 107.207 27.7942 107.327 27.8363C107.414 27.8671 107.493 27.8864 107.575 27.8978C107.662 27.9171 107.74 27.921 107.834 27.921L107.879 27.9166C108.225 27.9166 108.524 27.8289 108.776 27.6446C109.042 27.4603 109.17 27.1685 109.17 26.7697C109.162 26.4625 109.099 26.2396 108.971 26.0865C108.832 25.929 108.694 25.814 108.536 25.7408L108.536 25.7412ZM101.56 24.3169H102.566V27.8249H101.56L101.56 24.3169Z" fill="#5DA729"/>
<path d="M96.6734 26.4121C96.685 26.4007 96.6923 26.4007 96.6923 26.4007C96.8724 26.3314 97.0187 26.2203 97.1578 26.0668C97.3041 25.9018 97.3714 25.6714 97.3714 25.3647C97.3714 25.0804 97.3113 24.8689 97.1839 24.7272C97.0722 24.5918 96.9308 24.4854 96.7712 24.4165C96.6546 24.3654 96.5302 24.3355 96.4035 24.3283C96.3311 24.3201 96.2584 24.315 96.1856 24.313H94.7148V27.8206H95.7278V26.746L96.4074 27.821H97.6194L96.6549 26.42C96.6661 26.4121 96.6734 26.4121 96.6734 26.4121ZM96.3658 25.4678V25.5258C96.3528 25.6169 96.3166 25.7028 96.2606 25.775C96.1894 25.8557 96.0732 25.8904 95.9157 25.8904H95.7278V25.0844H95.9157C96.0732 25.0879 96.1894 25.1225 96.2534 25.1954C96.315 25.2617 96.3544 25.3464 96.3658 25.4371V25.4678Z" fill="#5DA729"/>
<path fill-rule="evenodd" clip-rule="evenodd" d="M89.4913 26.3814C89.4913 26.4235 89.4914 26.4661 89.4836 26.5235C89.4763 26.5771 89.4686 26.6345 89.4575 26.6925C89.4237 26.789 89.3713 26.8776 89.3034 26.9531C89.2283 27.0378 89.1232 27.0799 88.9696 27.0799C88.8118 27.076 88.7032 27.0338 88.632 26.9531C88.5664 26.8772 88.5165 26.7886 88.4853 26.6925C88.4666 26.638 88.4553 26.5812 88.4518 26.5235C88.4441 26.4621 88.4441 26.42 88.4441 26.3814V24.313H87.4346V26.4007C87.4423 26.9342 87.5736 27.3142 87.8589 27.556C88.1403 27.8017 88.5041 27.9202 88.9435 27.9202L88.9881 27.9167C89.4424 27.9167 89.8063 27.7938 90.0804 27.556C90.3653 27.3063 90.5009 26.9224 90.5009 26.4007V24.313H89.4913V26.3814Z" fill="#5DA729"/>
<path d="M81.5293 24.2134H81.4766C80.8648 24.2173 80.4031 24.4056 80.0994 24.7737C79.7879 25.1462 79.6416 25.5758 79.6416 26.0672C79.6416 26.5621 79.7952 26.9961 80.1067 27.3642C80.4259 27.7328 80.8832 27.9206 81.4766 27.9206L81.5289 27.9171C82.148 27.9131 82.6024 27.7249 82.9061 27.3603C83.2119 27.0027 83.3777 26.5422 83.3716 26.0672C83.3639 25.5758 83.2137 25.1458 82.9061 24.7737C82.5946 24.4016 82.1334 24.2134 81.5293 24.2134ZM82.133 26.7539C82.0056 26.9118 81.867 27.004 81.7052 27.0457C81.671 27.0584 81.6358 27.0687 81.6001 27.0764C81.5589 27.0803 81.5289 27.0803 81.4954 27.0803C81.4538 27.0764 81.4204 27.0764 81.3826 27.0689C81.3487 27.0575 81.3114 27.0496 81.2775 27.0382C81.1239 26.9882 80.9922 26.8921 80.8648 26.7425C80.7373 26.5889 80.6773 26.3625 80.6773 26.0668C80.6773 25.768 80.7373 25.5451 80.8648 25.3954C80.9999 25.2419 81.1312 25.1383 81.2775 25.0962C81.3187 25.0808 81.3487 25.0694 81.3903 25.0655C81.4354 25.0541 81.4688 25.0541 81.5027 25.0541C81.5439 25.058 81.5701 25.058 81.604 25.0655C81.6452 25.0769 81.6752 25.0808 81.7091 25.0883C81.8704 25.1383 82.0094 25.2344 82.1369 25.384C82.272 25.5376 82.3359 25.764 82.3359 26.0633C82.3282 26.3779 82.2608 26.6038 82.133 26.7539Z" fill="#5DA729"/>
<path fill-rule="evenodd" clip-rule="evenodd" d="M73.2959 25.1574H74.0458V27.8207H75.0592V25.1574H75.81V24.3167H73.2959V25.1574ZM47.4063 19.6692C47.8307 19.5428 48.3258 19.796 48.69 19.9838C48.2623 18.8529 48.2623 17.5996 48.69 16.4688H0V21.6191H46.3033C46.3033 20.7363 46.3634 20.0452 47.4063 19.6692Z" fill="#5DA729"/>
<path fill-rule="evenodd" clip-rule="evenodd" d="M47.8907 25.1956C47.1588 24.6279 46.4792 23.8144 46.2994 22.8087H0V27.8327H53.4179L52.9267 26.827C50.1607 26.3895 49.1855 26.2627 47.8907 25.1956ZM49.1851 14.5189C47.4063 13.3254 45.8717 11.8823 44.5846 10.1246H0V15.2749H48.9976L49.1851 14.5189ZM41.4475 3.78076H0V8.86968H43.7853C42.7385 7.35766 42.0031 5.59992 41.4475 3.78076Z" fill="#0061A3"/>
<path d="M66.6118 9.30708C66.1205 9.18071 65.6288 9.18071 65.2011 9.18071C64.7695 9.61817 64.4018 9.99815 64.0341 10.497H63.7862C63.7862 9.86739 63.8462 9.49136 63.9063 8.92754C63.7261 8.10966 63.2348 8.10966 62.6831 7.54539C62.4952 6.29049 61.0845 5.97589 61.272 4.59463C61.3922 3.96498 62.1314 4.52881 62.623 4.15322C63.2945 3.90356 63.8501 5.15845 64.4018 4.15322C64.4619 4.09179 64.2817 3.90356 64.2817 3.71576L64.6494 3.58895C65.0771 1.70441 62.8067 2.39548 61.9473 1.51662C62.0752 0.764117 61.3359 0.952351 60.9683 0.576321C60.7803 0.576321 60.9082 0.261719 60.6602 0.261719C60.2887 0.388086 59.7936 0.388086 59.6172 1.01378C59.5572 0.637749 59.1856 0.510943 59.0054 0.449515C58.9454 0.764117 59.3131 1.01378 59.1256 1.45519C58.2662 1.52057 57.7746 2.2112 57.4669 2.83689L57.4069 2.77546C57.2867 3.52752 56.5475 4.03036 56.5475 4.8478C56.735 5.1624 56.9791 4.59814 57.2867 4.78637C56.9152 4.97461 56.735 5.22778 56.5475 5.53843C56.4274 5.91841 56.4274 6.2295 56.5475 6.54411C56.9113 6.4173 57.2867 5.91446 57.5909 5.79205C57.4631 6.42125 57.0993 6.7319 56.7316 7.23474L56.6715 8.17503C56.3 7.92581 55.8722 7.54583 55.568 7.10837C55.1364 6.85476 54.9489 6.29093 54.5813 5.78766C52.9265 3.71576 50.4686 5.28526 48.5697 5.09702C46.1714 4.65606 43.9014 3.84213 42.1865 1.95802C42.1865 2.58723 42.374 3.08612 42.6782 3.71576C42.9257 4.59463 43.5972 5.28526 44.3368 5.7881C43.7851 5.91446 43.4101 5.47349 42.9854 5.28526V5.40812C43.2816 6.21114 43.7424 6.94004 44.3368 7.54583C44.8881 8.29789 45.8676 8.04867 46.4794 8.48613C46.2319 8.80073 45.7475 8.67392 45.3159 8.67392C45.7475 9.55279 46.6073 10.2439 47.4662 10.2439C47.7142 10.3088 48.0179 9.9942 48.078 10.3702C48.0179 10.8116 47.4662 10.7463 47.1586 10.7463C47.4662 11.3759 48.078 11.9397 48.6297 12.3811C50.1005 12.4426 51.1439 14.2003 52.615 13.26C53.2942 13.9511 54.0257 12.9454 54.7649 13.0108C54.7649 13.1376 54.5774 13.26 54.5774 13.3254C53.658 13.64 52.7424 14.0774 52.4949 15.0831C52.4949 15.9006 51.6956 15.3977 51.3279 15.5245C50.4012 15.586 49.9765 16.5302 49.6693 17.4091C49.2377 18.9171 50.5282 20.2335 49.3651 21.3006C48.9935 21.4884 48.6259 21.3006 48.3183 21.0509C48.3783 21.4923 48.4984 21.8069 48.8022 21.9912C49.1737 22.118 49.7289 21.9298 49.9057 21.6766C49.9057 21.9258 49.7255 22.0526 49.5976 22.3058C48.9262 22.6204 48.3745 21.9912 47.8789 21.7415C47.8789 22.3058 48.2543 22.494 48.4307 22.8736C48.6782 23.1886 48.063 23.0622 48.063 23.1886C48.9824 24.1329 50.2133 25.0117 51.4965 24.6318C52.0483 24.5049 52.4159 23.8178 52.7274 23.311C52.8475 22.0561 52.8475 20.6749 52.1757 19.6078C51.684 18.9786 51.684 18.0997 51.4965 17.4091C51.684 17.0326 51.9882 16.5912 52.4159 16.5302C52.6 17.1555 52.8475 17.7237 53.2826 18.1611C53.5906 19.1014 54.7542 19.4814 54.6263 20.4831C54.1986 21.4884 53.2826 22.3672 53.4027 23.4343C54.1419 24.3132 54.7542 25.4452 54.9339 26.7001C55.4857 26.7001 55.3055 27.4522 55.4857 27.7058C55.9773 27.8936 56.5325 27.7058 56.9641 27.7058C56.7166 26.7001 55.9173 26.2622 55.4857 25.4452C55.4256 25.257 55.3055 24.881 55.4857 24.7546C55.8572 24.9424 56.345 25.257 56.345 25.8213C56.8367 25.7598 56.7166 26.5119 56.8367 26.8269C57.0842 27.0762 57.388 27.579 57.7557 27.3908C57.8835 27.203 57.8235 27.1415 57.8235 27.0147C58.1311 26.0095 57.2717 25.6335 57.1443 24.9424C56.5325 24.3132 55.7933 24.1903 55.3093 23.3729C55.0013 22.9969 55.4895 22.8086 55.7971 22.4287C57.1477 21.362 57.5793 19.4775 57.5793 17.8465C58.3113 16.5916 59.9699 16.338 60.9533 15.0831C61.6848 14.3925 62.1164 13.4522 62.6119 12.6962L62.7921 12.884C63.7149 12.9454 64.4503 11.7519 65.1895 11.1877C65.3096 11.3759 65.4976 11.5637 65.6812 11.8787C65.8614 12.1933 65.6138 12.6962 65.8614 12.9454C66.0489 13.26 65.7413 13.5097 65.6812 13.7589C65.9214 14.2617 66.2256 14.8909 66.7207 15.0796C66.9082 14.3885 66.7808 13.7589 66.8482 13.0722V12.884C66.9683 11.9402 65.9892 11.4413 66.0489 10.497C66.7808 9.74497 67.7075 10.5624 68.4394 10.7463C68.6269 10.8731 68.5669 11.1877 68.5669 11.3759C69.2387 11.3759 69.7905 11.0613 70.2856 10.497C70.0981 10.3702 69.8544 10.2474 69.6742 10.121C68.7548 9.30708 67.5878 10.0596 66.6118 9.30708ZM48.9373 12.0055C49.3012 11.9441 49.5491 11.4413 49.8568 11.6905C49.6766 11.9437 49.305 11.9441 48.9373 12.0055ZM57.0993 8.55107C57.5909 8.67787 58.1461 8.98852 58.6978 9.0539C58.1461 9.0539 57.403 8.86611 57.0993 8.55107Z" fill="#0061A3"/>
<path fill-rule="evenodd" clip-rule="evenodd" d="M106.818 11.0342H100.378V15.2407H102.663C102.686 16.4689 101.939 17.4359 100.9 17.4359C99.41 17.4359 98.5357 15.425 98.5357 12.9688C98.5357 10.7464 99.1737 8.47438 100.919 8.47438C101.643 8.47438 102.33 8.91974 102.581 9.78325L106.315 8.60513C105.669 5.62672 103.804 3.1709 100.768 3.1709C96.1829 3.1709 94.3779 8.10976 94.3779 12.9951C94.3779 18.5333 96.7869 22.563 100.813 22.563C104.735 22.563 106.81 18.6641 106.81 13.2294V11.0342H106.818ZM128.71 15.9735C128.71 12.888 127.551 11.5331 126.072 10.7464C124.856 10.0939 124 10.0939 124 8.99652C124 7.97549 124.789 7.92591 125.227 7.92591C125.993 7.92591 127.07 8.21375 127.776 8.50158V3.8997C126.845 3.42802 125.577 3.1709 124.432 3.1709C121.715 3.1709 119.865 5.54994 119.865 9.54543C119.865 13.5444 122.09 14.3807 123.081 14.8221C123.787 15.16 124.56 15.4746 124.56 16.4689C124.56 17.0173 124.327 17.647 123.336 17.647C122.357 17.647 120.908 16.9406 120.076 16.4456V21.4885C121.178 22.1716 122.593 22.5635 123.835 22.5635C127.239 22.5635 128.71 19.3701 128.71 15.9735Z" fill="#0061A3"/>
<path d="M115.41 22.0066H119.872L116.011 3.71582H111.218L107.331 22.0066H111.796L112.236 19.3393H114.971L115.41 22.0066ZM112.855 14.7686L113.601 10.1171L114.356 14.7681H112.854L112.855 14.7686ZM83.3175 10.0136C83.3175 7.42698 82.4247 3.71582 78.563 3.71582H73.291V22.0066H77.6517V16.3381H78.5634C82.4062 16.3381 83.3179 12.6269 83.3179 10.0136H83.3175ZM78.1318 11.5831H77.6513V8.47434H78.1318C78.5256 8.47434 79.1709 8.57833 79.1709 10.0175C79.1709 11.4523 78.5668 11.5831 78.1318 11.5831Z" fill="#0061A3"/>
<path fill-rule="evenodd" clip-rule="evenodd" d="M85.2104 22.0067H92.8467V16.7027H89.5706V14.9534H92.5202V10.5625H89.5706V9.01935H92.8467V3.71631H85.21V22.0071L85.2104 22.0067Z" fill="#0061A3"/>
<path d="M-0.000976562 33.3853H128.429V42.9971H-0.000976562V33.3853Z" fill="#EF7C15"/>
<path d="M19.0954 37.3799H21.7511V35.2207H22.3329V40.5312H21.7511V37.9323H19.0954V40.5312H18.5137V35.2207H19.0954V37.3799ZM24.9311 37.1465C25.4413 37.1465 25.8643 37.3356 26.2019 37.7147C26.4937 38.0416 26.6395 38.4321 26.6395 38.8858C26.6395 39.415 26.4503 39.8507 26.0724 40.1929C25.7532 40.4829 25.3687 40.6286 24.92 40.6286C24.6106 40.6286 24.3215 40.5483 24.0525 40.3873C23.7831 40.2263 23.5641 39.9903 23.4209 39.7067C23.2874 39.4451 23.2196 39.1537 23.2236 38.8586C23.2236 38.3759 23.4008 37.9622 23.7556 37.6173C24.0804 37.3036 24.4721 37.1465 24.9311 37.1465ZM24.9273 37.6599C24.5574 37.6599 24.2627 37.8025 24.0448 38.0881C23.8749 38.3114 23.7899 38.5721 23.7899 38.87C23.7899 39.2517 23.9032 39.5571 24.1288 39.7884C24.3416 40.006 24.6042 40.1152 24.9161 40.1152C25.2967 40.1152 25.5983 39.9735 25.8214 39.6909C25.9887 39.4755 26.0724 39.2083 26.0724 38.8897C26.0724 38.5159 25.9582 38.2149 25.73 37.9867C25.5146 37.7691 25.2469 37.6603 24.9277 37.6603L24.9273 37.6599ZM27.4118 40.5312V37.2211H28.7847C29.206 37.2211 29.5003 37.2913 29.6677 37.4308C29.8453 37.5844 29.9337 37.7981 29.9337 38.0727C29.9337 38.3843 29.7929 38.6138 29.5115 38.7616C29.9148 38.9117 30.1164 39.1916 30.1164 39.6019C30.1164 39.9731 29.9706 40.2346 29.6788 40.3877C29.4965 40.4834 29.2481 40.5316 28.9332 40.5316L27.4118 40.5312ZM27.967 38.6445H28.7015C29.1502 38.6445 29.3746 38.4676 29.3746 38.1153C29.3746 37.7985 29.1743 37.6405 28.7736 37.6405H27.967V38.6445ZM27.967 40.1073H28.8268C29.0704 40.1073 29.2489 40.0722 29.363 40.002C29.4952 39.9187 29.5613 39.7822 29.5613 39.5896C29.5613 39.2188 29.3025 39.0337 28.7847 39.0337H27.967V40.1073ZM33.35 37.2206H33.9056V40.5312H33.35V40.0722C33.0454 40.4434 32.6739 40.6286 32.2354 40.6286C31.7536 40.6286 31.3615 40.4399 31.0599 40.0643C30.8037 39.748 30.6759 39.35 30.6759 38.87C30.6759 38.3123 30.8471 37.8727 31.1894 37.551C31.4697 37.2834 31.8404 37.1372 32.2238 37.143C32.67 37.143 33.0459 37.3255 33.35 37.6914V37.2206ZM32.3075 37.6563C31.993 37.6563 31.7322 37.7792 31.5241 38.0258C31.3366 38.2491 31.2426 38.5256 31.2426 38.8546C31.2426 39.2513 31.3555 39.5681 31.5811 39.8037C31.7789 40.0117 32.0196 40.1152 32.3041 40.1152C32.6516 40.1152 32.9304 39.9775 33.1407 39.7028C33.3054 39.4869 33.3882 39.2109 33.3882 38.8739C33.3882 38.4773 33.275 38.1719 33.0493 37.9595C32.8365 37.7577 32.5894 37.6563 32.3075 37.6563ZM36.6025 40.5312V39.2903H36.5571L35.3549 40.5312H34.6513L35.9637 39.2241C35.5729 39.2162 35.2893 39.1596 35.1112 39.053C34.825 38.8818 34.6813 38.6116 34.6813 38.2439C34.6813 37.8547 34.8225 37.5708 35.1039 37.3918C35.2283 37.3137 35.3729 37.2632 35.5372 37.2399C35.6316 37.2268 35.7745 37.2206 35.9676 37.2206H37.1658V40.5312H36.6025ZM36.6025 38.8546V37.6678H36.0281C35.7393 37.6678 35.539 37.7129 35.4274 37.8038C35.3056 37.8999 35.2446 38.0438 35.2446 38.236C35.2446 38.4641 35.3219 38.6309 35.4763 38.7379C35.5909 38.8156 35.7732 38.8546 36.0246 38.8546H36.6025ZM40.1215 40.5312V37.2211H41.4948C41.9161 37.2211 42.21 37.2913 42.3773 37.4308C42.5554 37.5844 42.6437 37.7981 42.6437 38.0727C42.6437 38.3843 42.503 38.6138 42.2216 38.7616C42.6249 38.9117 42.8265 39.1916 42.8265 39.6019C42.8265 39.9731 42.6806 40.2346 42.3889 40.3877C42.2061 40.4834 41.9577 40.5316 41.6432 40.5316L40.1215 40.5312ZM40.677 38.6445H41.4111C41.8603 38.6445 42.0847 38.4676 42.0847 38.1153C42.0847 37.7985 41.8839 37.6405 41.4836 37.6405H40.677V38.6445ZM40.677 40.1073H41.5368C41.7801 40.1073 41.959 40.0722 42.0731 40.002C42.2053 39.9187 42.2709 39.7822 42.2709 39.5896C42.2709 39.2188 42.0122 39.0337 41.4948 39.0337H40.677V40.1073ZM43.6138 40.5312V37.2211H44.1694V38.4036H44.9034C45.3067 38.4036 45.6045 38.4681 45.7976 38.598C46.0636 38.7796 46.1966 39.0666 46.1966 39.458C46.1966 39.8858 46.0421 40.1872 45.7332 40.3605C45.5303 40.4746 45.266 40.5316 44.9416 40.5316L43.6138 40.5312ZM44.1694 40.0762H44.843C45.1167 40.0762 45.317 40.0371 45.4436 39.9595C45.5933 39.866 45.668 39.7028 45.668 39.4694C45.668 39.2179 45.5796 39.0468 45.402 38.956C45.2801 38.8933 45.0965 38.8621 44.8502 38.8621H44.1694V40.0762ZM46.6989 40.5312V37.2211H47.2696V40.5316L46.6989 40.5312ZM50.7657 37.4615V38.2088C50.5958 38.0139 50.4474 37.8819 50.3208 37.8117C50.145 37.7117 49.9471 37.6596 49.7459 37.6603C49.4014 37.6603 49.1195 37.7906 48.9016 38.053C48.7042 38.2864 48.6051 38.565 48.6051 38.8897C48.6051 39.2298 48.7115 39.5181 48.9248 39.7572C49.1376 39.9928 49.4087 40.1113 49.7386 40.1113C49.9926 40.1113 50.2256 40.0349 50.4388 39.8818C50.5298 39.8138 50.6452 39.6975 50.785 39.5317V40.282C50.4397 40.5137 50.0973 40.6286 49.7575 40.6286C49.2049 40.6286 48.7622 40.4224 48.4301 40.0099C48.1735 39.6989 48.0345 39.3041 48.0384 38.8972C48.0384 38.3992 48.2121 37.9753 48.5592 37.6248C48.8763 37.3062 49.2774 37.1465 49.7614 37.1465C50.1166 37.1465 50.4513 37.2518 50.7657 37.4615ZM53.0409 37.1465C53.5506 37.1465 53.974 37.3356 54.3113 37.7147C54.603 38.0416 54.7489 38.4321 54.7489 38.8858C54.7489 39.415 54.5601 39.8507 54.1821 40.1929C53.8625 40.4829 53.4785 40.6286 53.0293 40.6286C52.7204 40.6286 52.4308 40.5483 52.1618 40.3873C51.8924 40.2263 51.6734 39.9903 51.5303 39.7067C51.3968 39.4451 51.329 39.1537 51.3329 38.8586C51.3329 38.3759 51.5101 37.9622 51.8649 37.6173C52.1897 37.3036 52.5818 37.1465 53.0409 37.1465ZM53.0366 37.6599C52.6668 37.6599 52.3725 37.8025 52.1545 38.0881C51.9842 38.3114 51.8997 38.5721 51.8997 38.87C51.8997 39.2517 52.0125 39.5571 52.2382 39.7884C52.451 40.006 52.7136 40.1152 53.0255 40.1152C53.406 40.1152 53.7076 39.9735 53.9307 39.6909C54.098 39.4755 54.1821 39.2083 54.1821 38.8897C54.1821 38.5159 54.068 38.2149 53.8398 37.9867C53.624 37.7691 53.3567 37.6603 53.037 37.6603L53.0366 37.6599ZM55.9888 40.5312V37.7573H55.0535V37.2211H57.4878V37.7577H56.5521V40.5316L55.9888 40.5312ZM60.4705 37.2206H61.0256V40.5312H60.4705V40.0722C60.1658 40.4434 59.7943 40.6286 59.3558 40.6286C58.8736 40.6286 58.4819 40.4399 58.1803 40.0643C57.9241 39.748 57.7959 39.35 57.7959 38.87C57.7959 38.3123 57.9675 37.8727 58.3094 37.551C58.5898 37.2833 58.9607 37.1371 59.3442 37.143C59.7904 37.143 60.1663 37.3255 60.4705 37.6914V37.2206ZM59.4279 37.6563C59.1134 37.6563 58.8526 37.7792 58.6445 38.0258C58.457 38.2491 58.363 38.5256 58.363 38.8546C58.363 39.2513 58.4759 39.5681 58.7016 39.8037C58.8989 40.0117 59.14 40.1152 59.424 40.1152C59.7716 40.1152 60.0504 39.9775 60.2611 39.7028C60.4258 39.4869 60.5086 39.2109 60.5086 38.8739C60.5086 38.4773 60.3954 38.1719 60.1697 37.9595C59.9569 37.7577 59.7098 37.6563 59.4279 37.6563ZM63.9739 40.5312V37.2211H65.3473C65.7686 37.2211 66.0625 37.2913 66.2302 37.4308C66.4078 37.5844 66.4962 37.7981 66.4962 38.0727C66.4962 38.3843 66.3555 38.6138 66.074 38.7616C66.4773 38.9117 66.679 39.1916 66.679 39.6019C66.679 39.9731 66.5331 40.2346 66.2414 40.3877C66.059 40.4834 65.8106 40.5316 65.4957 40.5316L63.9739 40.5312ZM64.5295 38.6445H65.2636C65.7128 38.6445 65.9372 38.4676 65.9372 38.1153C65.9372 37.7985 65.7368 37.6405 65.3361 37.6405H64.5295V38.6445ZM64.5295 40.1073H65.3893C65.6326 40.1073 65.8115 40.0722 65.9256 40.002C66.0577 39.9187 66.1234 39.7822 66.1234 39.5896C66.1234 39.2188 65.8647 39.0337 65.3473 39.0337H64.5295V40.1073ZM69.9126 37.2206H70.4678V40.5312H69.9126V40.0722C69.608 40.4434 69.2364 40.6286 68.798 40.6286C68.3157 40.6286 67.924 40.4399 67.6224 40.0643C67.3663 39.748 67.238 39.35 67.238 38.87C67.238 38.3123 67.4096 37.8727 67.7516 37.551C68.032 37.2833 68.4028 37.1371 68.7864 37.143C69.2326 37.143 69.608 37.3255 69.9126 37.6914V37.2206ZM68.87 37.6563C68.5556 37.6563 68.2947 37.7792 68.0866 38.0258C67.8991 38.2491 67.8052 38.5256 67.8052 38.8546C67.8052 39.2513 67.918 39.5681 68.1437 39.8037C68.341 40.0117 68.5822 40.1152 68.8662 40.1152C69.2137 40.1152 69.4926 39.9775 69.7032 39.7028C69.868 39.4869 69.9504 39.2109 69.9504 38.8739C69.9504 38.4773 69.8375 38.1719 69.6118 37.9595C69.399 37.7577 69.1515 37.6563 68.87 37.6563ZM71.4683 40.5312V37.2211H72.0316V40.0029H73.2526V37.2211H73.8043V40.0029H75.0254V37.2211H75.5883V40.5316L71.4683 40.5312ZM79.4689 38.9946H76.9462C76.9569 39.2201 77.0023 39.411 77.0834 39.5663C77.1678 39.7329 77.2957 39.8723 77.4528 39.9692C77.61 40.066 77.7902 40.1164 77.9737 40.1148C78.2474 40.1148 78.4769 40.0231 78.6623 39.8388C78.7511 39.7533 78.8536 39.6133 78.9703 39.4185L79.438 39.687C79.3093 39.9182 79.1758 40.0955 79.039 40.2201C78.7395 40.4922 78.3783 40.6286 77.9548 40.6286C77.4374 40.6286 77.0264 40.4364 76.7222 40.0529C76.4811 39.7471 76.3605 39.3619 76.3605 38.8972C76.3605 38.3606 76.5141 37.9301 76.8209 37.6054C77.11 37.2996 77.479 37.1465 77.9278 37.1465C78.3341 37.1465 78.6773 37.2764 78.9592 37.5357C79.2985 37.8472 79.4689 38.2996 79.4689 38.8933V38.9946ZM78.8828 38.5163C78.8547 38.3498 78.7911 38.1916 78.6966 38.053C78.5061 37.7906 78.2526 37.6603 77.9355 37.6603C77.6034 37.6603 77.3383 37.8064 77.1405 38.0999C77.0593 38.2256 77.005 38.3673 76.9809 38.5159L78.8828 38.5163ZM80.2411 40.5312V37.2211H82.2533V37.7498H80.7963V40.5316L80.2411 40.5312ZM84.3113 37.1465C84.8215 37.1465 85.2449 37.3356 85.5821 37.7147C85.8739 38.0416 86.0198 38.4321 86.0198 38.8858C86.0198 39.415 85.8305 39.8507 85.453 40.1929C85.1334 40.4829 84.7494 40.6286 84.3002 40.6286C83.9909 40.6286 83.7017 40.5483 83.4327 40.3873C83.1633 40.2263 82.9443 39.9903 82.8011 39.7067C82.6676 39.4451 82.5998 39.1537 82.6038 38.8586C82.6038 38.3759 82.781 37.9622 83.1358 37.6173C83.4606 37.3036 83.8523 37.1465 84.3113 37.1465ZM84.3079 37.6599C83.9377 37.6599 83.6429 37.8025 83.425 38.0881C83.2551 38.3114 83.1701 38.5721 83.1701 38.87C83.1701 39.2517 83.2834 39.5571 83.5091 39.7884C83.7219 40.006 83.9844 40.1152 84.2963 40.1152C84.6769 40.1152 84.9785 39.9735 85.2016 39.6909C85.3689 39.4755 85.453 39.2083 85.453 38.8897C85.453 38.5159 85.3389 38.2149 85.1106 37.9867C84.8948 37.7691 84.6271 37.6599 84.3079 37.6599ZM90.2157 37.1465C90.7254 37.1465 91.1488 37.3356 91.4865 37.7147C91.7782 38.0416 91.9241 38.4321 91.9241 38.8858C91.9241 39.415 91.7349 39.8507 91.3569 40.1929C91.0373 40.4829 90.6533 40.6286 90.2041 40.6286C89.8952 40.6286 89.606 40.5483 89.337 40.3873C89.0677 40.2263 88.8486 39.9903 88.7055 39.7067C88.5718 39.4452 88.5039 39.1537 88.5077 38.8586C88.5077 38.3759 88.6853 37.9622 89.0401 37.6173C89.3645 37.3036 89.7566 37.1465 90.2157 37.1465ZM90.2118 37.6599C89.8416 37.6599 89.5473 37.8025 89.3293 38.0881C89.1594 38.3114 89.0745 38.5721 89.0745 38.87C89.0745 39.2517 89.1873 39.5571 89.4134 39.7884C89.6262 40.006 89.8883 40.1152 90.2007 40.1152C90.5808 40.1152 90.8828 39.9735 91.1059 39.6909C91.2733 39.4755 91.3569 39.2083 91.3569 38.8897C91.3569 38.5159 91.2428 38.2149 91.0145 37.9867C90.7987 37.7691 90.5315 37.6603 90.2123 37.6603L90.2118 37.6599ZM93.164 40.5312V37.7573H92.2283V37.2211H94.663V37.7577H93.7269V40.5316L93.164 40.5312ZM97.7023 40.5312H95.1539V41.4066H94.621V40.0025H94.7617C94.9213 40.0025 95.0663 39.9222 95.195 39.7612C95.3551 39.5641 95.4645 39.2149 95.5224 38.7147C95.558 38.4009 95.5863 37.9029 95.6065 37.2206H97.8773V40.0025H98.2352V41.4066H97.7023V40.5312ZM97.3067 40.002V37.7494H96.1235C96.1162 37.8661 96.1007 38.1346 96.078 38.555C96.048 39.0815 95.9626 39.4676 95.8231 39.7142C95.7674 39.8134 95.6901 39.909 95.5915 40.002H97.3067ZM98.9199 40.5312V37.2211H99.4751V38.4036H100.21C100.613 38.4036 100.911 38.4681 101.103 38.598C101.37 38.7796 101.503 39.0666 101.503 39.458C101.503 39.8858 101.348 40.1872 101.039 40.3605C100.836 40.4746 100.572 40.5316 100.247 40.5316L98.9199 40.5312ZM99.4751 40.0762H100.149C100.422 40.0762 100.623 40.0371 100.749 39.9595C100.899 39.866 100.974 39.7028 100.974 39.4694C100.974 39.2179 100.885 39.0468 100.708 38.956C100.586 38.8933 100.402 38.8621 100.156 38.8621H99.4751V40.0762ZM102.005 40.5312V37.2211H102.576V40.5316L102.005 40.5312ZM104.47 38.7651L103.29 37.2206H103.968L104.813 38.3487L105.657 37.2206H106.346L105.159 38.7651L106.506 40.5312H105.836L104.813 39.1815L103.782 40.5312H103.089L104.47 38.7651ZM109.484 37.2206H110.04V40.5312H109.484V40.0722C109.18 40.4434 108.808 40.6286 108.369 40.6286C107.888 40.6286 107.496 40.4399 107.194 40.0643C106.938 39.748 106.81 39.35 106.81 38.87C106.81 38.3123 106.981 37.8727 107.323 37.551C107.604 37.2833 107.975 37.1371 108.358 37.143C108.804 37.143 109.18 37.3255 109.484 37.6914V37.2206ZM108.441 37.6563C108.127 37.6563 107.867 37.7792 107.658 38.0258C107.471 38.2491 107.377 38.5256 107.377 38.8546C107.377 39.2513 107.489 39.5681 107.715 39.8037C107.913 40.0117 108.154 40.1152 108.438 40.1152C108.785 40.1152 109.064 39.9775 109.275 39.7028C109.44 39.4869 109.522 39.2109 109.522 38.8739C109.522 38.4773 109.409 38.1719 109.183 37.9595C108.97 37.7577 108.723 37.6563 108.442 37.6563H108.441Z" fill="white"/>
</g>
<defs>
<clipPath id="clip0_300_4102">
<rect width="133" height="43" fill="white"/>
</clipPath>
</defs>
</svg>
