<?xml version="1.0" encoding="UTF-8"?>
<svg version="1.1" xmlns="http://www.w3.org/2000/svg" width="544" height="447">
<path d="M0 0 C6.32702984 6.32702984 4.37847318 23.39662957 4.38076782 32.04098511 C4.37886444 32.85246002 4.37696106 33.66393494 4.375 34.5 C4.37478851 35.33427521 4.37457703 36.16855042 4.37435913 37.02810669 C4.34073516 50.34495133 3.53527761 63.09225813 0 76 C-0.29680664 77.09006348 -0.29680664 77.09006348 -0.59960938 78.20214844 C-4.87090722 93.30374357 -12.90647374 107.74036585 -26 117 C-26.66 117 -27.32 117 -28 117 C-26.51586319 111.08949025 -24.78776486 105.30431737 -22.79418945 99.5480957 C-17.75841994 84.97640853 -14.75457765 70.46160774 -15 55 C-15.52464844 55.71285156 -16.04929687 56.42570312 -16.58984375 57.16015625 C-19.32066576 60.37783469 -22.24048426 62.85938787 -25.5625 65.4375 C-26.18527832 65.9219458 -26.80805664 66.4063916 -27.44970703 66.90551758 C-32.69087037 70.90386855 -38.08892612 74.07997685 -44 77 C-45.12019531 77.60070312 -46.24039062 78.20140625 -47.39453125 78.8203125 C-64.89552563 88.10523526 -83.92308379 94.13774032 -102.70947266 100.25341797 C-124.01541797 107.197948 -145.67840218 114.5820199 -164.9453125 126.1875 C-167.74507288 127.8487389 -170.57560975 129.2634491 -173.5 130.6875 C-181.04921655 134.74212373 -186.95844526 141.01996626 -193 147 C-193.89074219 147.87398437 -194.78148437 148.74796875 -195.69921875 149.6484375 C-202.50985141 156.60938972 -206.94107594 164.19079669 -211 173 C-211.73476563 174.58941406 -211.73476563 174.58941406 -212.484375 176.2109375 C-213.66978078 178.80151529 -214.84200722 181.39707817 -216 184 C-218.41474557 181.77589224 -219.99217793 179.52822845 -221.625 176.6875 C-224.20769982 172.2969103 -226.87909944 167.97705112 -229.625 163.6875 C-229.99705566 163.10121826 -230.36911133 162.51493652 -230.75244141 161.91088867 C-232.47940215 159.22147913 -234.25433407 156.68754491 -236.2734375 154.20703125 C-238 152 -238 152 -238 150 C-238.86818359 149.64421875 -238.86818359 149.64421875 -239.75390625 149.28125 C-242.48064967 147.72582071 -243.94193489 145.92072389 -245.9375 143.5 C-260.73902219 126.65353067 -281.68199938 116.08077993 -304 114 C-315.99831721 113.36978536 -327.23364596 114.68801464 -339 117 C-338.27296875 117.57363281 -337.5459375 118.14726563 -336.796875 118.73828125 C-323.38635157 129.58282464 -310.52820724 141.61363103 -302.54296875 157.0703125 C-300.91242028 160.16629061 -299.11856354 163.12832661 -297.3125 166.125 C-291.1984187 176.5714472 -286.73217252 187.88450792 -282 199 C-281.35333753 200.49239252 -280.70626202 201.9846062 -280.05859375 203.4765625 C-276.53228195 211.70996021 -273.56517688 220.08190444 -270.6875 228.5625 C-266.70839267 240.26406074 -262.2024025 251.65223663 -257.29589844 262.99365234 C-255.98418296 266.03669387 -254.69819612 269.08976191 -253.4140625 272.14453125 C-244.21132551 293.80753597 -233.3500704 314.59560582 -220 334 C-219.52884766 334.69351562 -219.05769531 335.38703125 -218.57226562 336.1015625 C-206.67091387 353.58115189 -206.67091387 353.58115189 -192.625 369.32421875 C-191 371 -191 371 -191 373 C-190.01 373.33 -189.02 373.66 -188 374 C-188 374.66 -188 375.32 -188 376 C-187.45601562 376.21527344 -186.91203125 376.43054688 -186.3515625 376.65234375 C-183.19070887 378.46379641 -180.87236204 380.95496023 -178.375 383.5625 C-175.03597098 387.22714016 -175.03597098 387.22714016 -171 390 C-171 390.66 -171 391.32 -171 392 C-170.34 392 -169.68 392 -169 392 C-169.4125 391.47792969 -169.825 390.95585937 -170.25 390.41796875 C-172.18135044 387.95635915 -174.09388489 385.48120486 -176 383 C-176.64839844 382.15695312 -177.29679688 381.31390625 -177.96484375 380.4453125 C-203.13797414 346.8479068 -215.05162202 304.22530018 -209.69140625 262.52734375 C-205.2922092 231.83786326 -189.16214352 203.82379373 -164.3046875 185.1171875 C-160.65874208 182.53203318 -156.87549491 180.22269637 -153 178 C-152.31695801 177.60683594 -151.63391602 177.21367187 -150.93017578 176.80859375 C-120.94442902 159.82599918 -87.92306986 148.2253426 -55.859375 135.85546875 C-15.24065706 121.534022 -15.24065706 121.534022 19.65625 97.27734375 C21 96 21 96 23 96 C23.28617187 95.42765625 23.57234375 94.8553125 23.8671875 94.265625 C25.578125 90.84375 27.2890625 87.421875 29 84 C34.56123617 89.56123617 32.17099147 104.11336394 32.18554688 111.7109375 C32.18546631 112.60264648 32.18538574 113.49435547 32.18530273 114.41308594 C32.18747851 117.09847128 32.2056606 119.78343751 32.22460938 122.46875 C32.26079015 133.46536666 31.59009597 144.12001575 30 155 C29.86456787 155.9580957 29.72913574 156.91619141 29.58959961 157.90332031 C24.76977242 189.81175715 11.789825 222.43465129 -12 245 C-7.58634848 246.56175361 -3.20763873 247.6738863 1.375 248.625 C2.62023437 248.88539063 3.86546875 249.14578125 5.1484375 249.4140625 C6.08945312 249.60742188 7.03046875 249.80078125 8 250 C6.18732927 261.10579952 -7.16978495 269.79645337 -15.625 275.9375 C-52.07708814 301.76279527 -96.06910211 311.01039297 -140 312 C-140.33 311.34 -140.66 310.68 -141 310 C-140.41549072 309.87584717 -139.83098145 309.75169434 -139.22875977 309.6237793 C-125.52013912 306.65465536 -112.17872211 302.97371513 -98.875 298.5625 C-98.19406281 298.33992523 -97.51312561 298.11735046 -96.81155396 297.88803101 C-86.8409534 294.61420343 -77.4073876 290.64616661 -68 286 C-67.08895508 285.55068115 -66.17791016 285.1013623 -65.23925781 284.63842773 C-44.47622502 274.78468939 -44.47622502 274.78468939 -29 259 C-29.60062256 258.88930176 -30.20124512 258.77860352 -30.82006836 258.66455078 C-33.52764062 258.16034054 -36.23250685 257.6428602 -38.9375 257.125 C-39.88302734 256.95097656 -40.82855469 256.77695312 -41.80273438 256.59765625 C-43.15141602 256.33662109 -43.15141602 256.33662109 -44.52734375 256.0703125 C-45.35999756 255.91320801 -46.19265137 255.75610352 -47.05053711 255.59423828 C-47.69385986 255.39813965 -48.33718262 255.20204102 -49 255 C-49.33 254.34 -49.66 253.68 -50 253 C-48.96552734 252.29037109 -48.96552734 252.29037109 -47.91015625 251.56640625 C-16.66081201 229.57612697 -2.11314958 190.97821688 4.63720703 154.5625 C5.8783635 147.39268401 6.98463413 140.20508724 8 133 C6.89785156 133.70125 5.79570312 134.4025 4.66015625 135.125 C-20.51356903 150.95633286 -48.19636442 160.23604431 -76.0625 170.1875 C-103.1510668 179.86505685 -103.1510668 179.86505685 -129.18017578 192.04736328 C-130.95318779 192.97549487 -132.74015114 193.87682034 -134.52734375 194.77734375 C-141.72212761 198.4796771 -147.96244303 202.60968531 -154 208 C-154.75925781 208.67675781 -155.51851562 209.35351562 -156.30078125 210.05078125 C-172.36329823 225.22555981 -182.88166838 247.88192816 -184.17700195 270.02587891 C-184.96061033 310.9545875 -173.07543376 349.01912511 -147 381 C-146.30519531 381.89847656 -145.61039063 382.79695313 -144.89453125 383.72265625 C-134.04893797 397.53908746 -121.83169639 408.66606201 -107 418 C-105.84089517 418.74700702 -104.68203033 419.49438662 -103.5234375 420.2421875 C-82.84254094 433.32199081 -60.89706022 440.33317085 -37 445 C-37.33 445.66 -37.66 446.32 -38 447 C-99.20101859 445.66519043 -152.43598493 430.84062596 -199.5625 390.625 C-200.13403809 390.13741211 -200.70557617 389.64982422 -201.29443359 389.14746094 C-206.82460309 384.37639861 -211.85466606 379.16749019 -216.8125 373.8125 C-217.31458984 373.27947266 -217.81667969 372.74644531 -218.33398438 372.19726562 C-222 368.23198342 -222 368.23198342 -222 366 C-222.66 366 -223.32 366 -224 366 C-225.60599962 364.11773202 -227.09158116 362.23425029 -228.5625 360.25 C-229.00795166 359.65799805 -229.45340332 359.06599609 -229.91235352 358.45605469 C-230.83492254 357.22901661 -231.75506734 356.0001523 -232.67285156 354.76953125 C-233.85810027 353.18919964 -235.06439311 351.62470169 -236.2734375 350.0625 C-242.70315025 341.70619462 -248.39175498 332.92136667 -254 324 C-254.5775 323.0821875 -255.155 322.164375 -255.75 321.21875 C-271.33597569 295.80683311 -282.78362384 267.88906982 -292.97265625 239.94921875 C-293.21242691 239.29188248 -293.45219757 238.6345462 -293.69923401 237.95729065 C-293.93859177 237.30099167 -294.17794952 236.64469269 -294.42456055 235.96850586 C-305.06971217 206.80252133 -317.68183429 177.56894503 -337 153 C-337.72832031 152.05769531 -338.45664062 151.11539063 -339.20703125 150.14453125 C-348.84700343 137.97550333 -361.29851281 127.47160614 -376 122 C-376.76828125 121.70351562 -377.5365625 121.40703125 -378.328125 121.1015625 C-380.21216489 120.38351932 -382.10515823 119.68903337 -384 119 C-379.36903204 108.18657229 -363.81285371 102.38518894 -353.51171875 98.078125 C-324.75434753 86.60718282 -293.87102425 84.80503299 -265 97 C-250.29900539 103.48666528 -236.97757019 113.35275562 -227 126 C-225.77568654 127.37932311 -224.54642029 128.75426428 -223.3125 130.125 C-220.55781473 133.26434853 -218.21225812 136.460387 -216 140 C-215.64808594 139.45472656 -215.29617187 138.90945312 -214.93359375 138.34765625 C-197.68952548 112.00880524 -174.49964037 97.05801516 -145 87 C-144.33544296 86.77201721 -143.67088593 86.54403442 -142.9861908 86.30914307 C-132.27332439 82.64377966 -121.49664115 79.32838979 -110.60232544 76.24728394 C-70.29835314 65.64274004 -70.29835314 65.64274004 -34 46 C-33.13503906 45.35289063 -32.27007812 44.70578125 -31.37890625 44.0390625 C-15.99170564 32.104265 -7.49854887 17.77517457 0 0 Z " fill="#FE7E25" transform="translate(384,0)"/>
<path d="M0 0 C0 0.66 0 1.32 0 2 C-0.81082031 2.09796875 -1.62164063 2.1959375 -2.45703125 2.296875 C-14.48960241 3.92176237 -23.82559339 7.4604438 -34 14 C-35.22396484 14.73476563 -35.22396484 14.73476563 -36.47265625 15.484375 C-48.22995442 22.64870149 -58.9209585 31.48857214 -69.625 40.11328125 C-96.27244998 61.28222589 -125.21811572 78.38601813 -158 88 C-158.70479492 88.21382324 -159.40958984 88.42764648 -160.13574219 88.64794922 C-191.86844739 98.07845962 -227.27500445 95.41550536 -257 81 C-257.90492188 80.57332031 -258.80984375 80.14664063 -259.7421875 79.70703125 C-265.74881426 76.66807023 -271.10954655 72.87771638 -276.5 68.875 C-277.19528809 68.3598584 -277.89057617 67.8447168 -278.60693359 67.31396484 C-281.90203776 64.8108518 -284.75909722 62.54809607 -287 59 C-282.25380346 60.48871382 -277.78184449 62.34917727 -273.25 64.375 C-271.81414061 65.00597926 -270.3779439 65.63619147 -268.94140625 66.265625 C-266.75693639 67.22463551 -264.57704728 68.19080574 -262.40234375 69.171875 C-256.95368647 71.51662346 -251.34438011 73.09409153 -245.625 74.625 C-244.85824951 74.83141113 -244.09149902 75.03782227 -243.30151367 75.25048828 C-207.46531242 84.51529218 -171.59478379 78.17778137 -139.92382812 59.79492188 C-122.5403771 49.44261507 -106.60579871 36.92903804 -91.00097656 24.09350586 C-32.07124948 -24.34910481 -32.07124948 -24.34910481 0 0 Z " fill="#FE6D29" transform="translate(533,314)"/>
<path d="M0 0 C1.72265625 1.453125 1.72265625 1.453125 2.9375 2.75 C2.9375 3.41 2.9375 4.07 2.9375 4.75 C1.86113281 4.71519531 0.78476562 4.68039062 -0.32421875 4.64453125 C-24.27009136 4.08732974 -44.48043363 13.95734214 -65.2265625 25.17578125 C-101.54287056 44.71856037 -140.3330267 58.96800407 -181.9375 59 C-182.72284119 59.00067474 -183.50818237 59.00134949 -184.31732178 59.00204468 C-195.84491694 58.98628976 -206.83330261 58.57163693 -218.0625 55.75 C-218.73200684 55.5943457 -219.40151367 55.43869141 -220.09130859 55.27832031 C-237.47997896 51.18157738 -254.5061237 43.46436487 -268.0625 31.75 C-268.91714844 31.02039063 -269.77179688 30.29078125 -270.65234375 29.5390625 C-276.68086352 24.24436871 -282.73095782 18.75082088 -288.0625 12.75 C-288.0625 12.09 -288.0625 11.43 -288.0625 10.75 C-288.7225 10.75 -289.3825 10.75 -290.0625 10.75 C-290.7225 9.43 -291.3825 8.11 -292.0625 6.75 C-288.70221214 7.76826905 -286.4794231 9.16020572 -283.9375 11.5 C-280.24919441 14.79627311 -276.24802784 16.96735688 -271.87890625 19.25 C-269.2407907 20.65504351 -266.72191178 22.16753801 -264.1875 23.75 C-232.89375947 42.61467247 -195.96830344 48.00586735 -160.62597656 39.41845703 C-145.45158064 35.46155265 -131.1686868 29.53135607 -117.0625 22.75 C-116.38445312 22.42418945 -115.70640625 22.09837891 -115.0078125 21.76269531 C-106.39074163 17.58826088 -97.92271462 13.12173984 -89.4375 8.6875 C-86.51013933 7.15926299 -83.58265749 5.63126042 -80.65478516 4.10400391 C-79.07780908 3.28031684 -77.50171913 2.45492642 -75.92724609 1.62646484 C-50.10056154 -11.93940445 -24.40249138 -20.08172832 0 0 Z " fill="#FE6A28" transform="translate(541.0625,376.25)"/>
<path d="M0 0 C0.99 0.99 0.99 0.99 2 2 C1.26136719 2.27972656 0.52273438 2.55945313 -0.23828125 2.84765625 C-20.67957775 10.92547482 -34.85413704 25.85751001 -48.69873047 42.44775391 C-50.30911573 44.36873505 -51.96189499 46.24958371 -53.625 48.125 C-55.52998304 50.2830605 -57.37856549 52.46546041 -59.1953125 54.69921875 C-64.96356708 61.76422155 -71.13077453 68.34493093 -77.5625 74.8125 C-78.34141602 75.60052002 -79.12033203 76.38854004 -79.92285156 77.20043945 C-85.31070253 82.56064016 -90.97160172 87.37602823 -97 92 C-97.59756104 92.46220947 -98.19512207 92.92441895 -98.81079102 93.40063477 C-118.09838781 108.10761179 -140.25924242 118.83305391 -164 124 C-165.48693359 124.33644531 -165.48693359 124.33644531 -167.00390625 124.6796875 C-196.99676498 130.38888877 -224.65040135 122.9224235 -251 109 C-251.66 108.67 -252.32 108.34 -253 108 C-252.505 107.01 -252.505 107.01 -252 106 C-251.351521 106.17128418 -250.70304199 106.34256836 -250.03491211 106.51904297 C-213.63883228 116.06354837 -176.09808296 119.06090893 -141.95117188 99.84716797 C-132.0294199 93.9712454 -123.14834598 87.1472519 -114.60327148 79.4284668 C-112.86401394 77.8788405 -111.08897811 76.37711879 -109.30859375 74.875 C-106.90214436 72.81902053 -104.719038 70.74925043 -102.6875 68.3125 C-99.90237298 65.03514696 -97.039944 61.85023677 -94.125 58.6875 C-89.69052172 53.82022729 -85.49606372 48.80506221 -81.36328125 43.68115234 C-78.51298181 40.16625944 -75.62834763 36.67942563 -72.75 33.1875 C-72.15928711 32.46997559 -71.56857422 31.75245117 -70.95996094 31.01318359 C-69.8326572 29.64440591 -68.70350366 28.27714903 -67.57226562 26.91162109 C-66.54962024 25.66824945 -65.53725925 24.41632266 -64.53710938 23.15478516 C-63.40048754 21.73483994 -62.20571079 20.3617691 -61 19 C-60.34 19 -59.68 19 -59 19 C-58.75894531 18.42765625 -58.51789063 17.8553125 -58.26953125 17.265625 C-52.60001073 7.14771145 -38.71245691 -0.96006739 -27.875 -4.0625 C-18.01103234 -6.05862486 -9.05817832 -4.23354013 0 0 Z " fill="#FE7028" transform="translate(497,257)"/>
<path d="M0 0 C3.36028786 1.01826905 5.5830769 2.41020572 8.125 4.75 C11.88815186 8.14015222 16.04715625 10.32418676 20.546875 12.60546875 C22.7894512 13.88030904 24.30261573 15.08195577 26 17 C24.35 17.66 22.7 18.32 21 19 C21.66 20.32 22.32 21.64 23 23 C19.8804428 21.61314777 17.74144201 19.99810509 15.328125 17.59375 C14.33232422 16.60181641 14.33232422 16.60181641 13.31640625 15.58984375 C12.63449219 14.90019531 11.95257813 14.21054687 11.25 13.5 C10.55261719 12.81035156 9.85523438 12.12070312 9.13671875 11.41015625 C8.47800781 10.74886719 7.81929688 10.08757812 7.140625 9.40625 C6.53766602 8.80103516 5.93470703 8.19582031 5.31347656 7.57226562 C4 6 4 6 4 4 C3.34 4 2.68 4 2 4 C1.34 2.68 0.68 1.36 0 0 Z " fill="#FD8A45" transform="translate(249,383)"/>
<path d="M0 0 C-0.99 0.66 -1.98 1.32 -3 2 C-3 2.33 -3 2.66 -3 3 C-5.64 3.33 -8.28 3.66 -11 4 C-3.74 3.67 3.52 3.34 11 3 C6.87122263 5.06438868 4.54228783 5.37773536 0.00390625 5.66796875 C-0.66665298 5.71190262 -1.33721222 5.75583649 -2.02809143 5.80110168 C-3.44237476 5.89169536 -4.85693802 5.97800815 -6.27172852 6.06030273 C-8.42748731 6.18691195 -10.58172901 6.3297231 -12.73632812 6.47460938 C-14.11452295 6.5608661 -15.49277694 6.64618367 -16.87109375 6.73046875 C-18.11818115 6.80676514 -19.36526855 6.88306152 -20.65014648 6.96166992 C-23.63769623 6.99585441 -26.11542933 6.72568462 -29 6 C-29 5.67 -29 5.34 -29 5 C-24.9203558 3.96402033 -20.83581059 2.94886146 -16.75 1.9375 C-15.01169922 1.49567383 -15.01169922 1.49567383 -13.23828125 1.04492188 C-12.12324219 0.77099609 -11.00820313 0.49707031 -9.859375 0.21484375 C-8.31975098 -0.17006226 -8.31975098 -0.17006226 -6.74902344 -0.56274414 C-4.0665548 -0.98941389 -2.53139144 -0.89234196 0 0 Z " fill="#FDA16B" transform="translate(272,305)"/>
<path d="M0 0 C8.18088206 0.5466488 16.01785939 2.17123868 24 4 C23.67 4.66 23.34 5.32 23 6 C19.52060949 5.85923111 16.04154941 5.71144333 12.5625 5.5625 C11.58861328 5.52318359 10.61472656 5.48386719 9.61132812 5.44335938 C3.69938401 5.18631833 -2.12645997 4.72280379 -8 4 C-8 3.67 -8 3.34 -8 3 C-6.865625 2.87625 -5.73125 2.7525 -4.5625 2.625 C-3.386875 2.41875 -2.21125 2.2125 -1 2 C-0.67 1.34 -0.34 0.68 0 0 Z " fill="#FD8A4C" transform="translate(323,441)"/>
<path d="M0 0 C8.25 1.98 16.5 3.96 25 6 C25 6.33 25 6.66 25 7 C18.56468498 9.02915338 13.69551338 9.85593999 7.5065918 6.63696289 C4.95302181 5.16586524 2.45796453 3.62542816 0 2 C0 1.34 0 0.68 0 0 Z " fill="#FE8F4D" transform="translate(244,363)"/>
<path d="M0 0 C4.46797338 1.39878802 8.63822079 3.13630772 12.875 5.125 C14.60363281 5.93324219 14.60363281 5.93324219 16.3671875 6.7578125 C17.23601562 7.16773438 18.10484375 7.57765625 19 8 C15.375 11 15.375 11 12 11 C9.58984375 9.35546875 9.58984375 9.35546875 6.9375 7.1875 C6.05964844 6.47980469 5.18179688 5.77210938 4.27734375 5.04296875 C2 3 2 3 0 0 Z " fill="#FC914E" transform="translate(246,373)"/>
<path d="M0 0 C2.95806284 3.67722491 5.87798007 7.38011126 8.75 11.125 C9.54921875 12.15882813 10.3484375 13.19265625 11.171875 14.2578125 C13 17 13 17 13 20 C8.82594762 17.84820403 6.73048544 15.65517914 4.25 11.6875 C3.36054688 10.30111328 3.36054688 10.30111328 2.453125 8.88671875 C0.93251792 5.86594286 0.37539659 3.34399328 0 0 Z " fill="#FE9850" transform="translate(164,335)"/>
<path d="M0 0 C3.625 0.375 3.625 0.375 7 1 C6.67 1.99 6.34 2.98 6 4 C-2.415 4.495 -2.415 4.495 -11 5 C-8 3 -8 3 -4.9375 2.5 C-1.88644627 2.27206546 -1.88644627 2.27206546 0 0 Z " fill="#FD711C" transform="translate(269,305)"/>
<path d="M0 0 C0 0.66 0 1.32 0 2 C-6.16626248 5.37399268 -12.17792193 7.34464282 -19 9 C-16.31655211 5.70262676 -12.7640499 4.38905413 -8.9375 2.8125 C-8.30005859 2.53986328 -7.66261719 2.26722656 -7.00585938 1.98632812 C-2.28148496 0 -2.28148496 0 0 0 Z " fill="#FD8B60" transform="translate(484,370)"/>
<path d="M0 0 C3.78786597 0.5260925 6.17152224 1.38103911 9 4 C9 4.66 9 5.32 9 6 C6.36 6 3.72 6 1 6 C0.67 4.02 0.34 2.04 0 0 Z " fill="#FE8154" transform="translate(524,310)"/>
<path d="M0 0 C5.28 1.32 10.56 2.64 16 4 C16 4.33 16 4.66 16 5 C15.21625 5.144375 14.4325 5.28875 13.625 5.4375 C11.03578982 5.87798925 11.03578982 5.87798925 9 7 C6.8359375 6.00390625 6.8359375 6.00390625 4.375 4.5625 C3.55773437 4.08941406 2.74046875 3.61632812 1.8984375 3.12890625 C1.27195313 2.75636719 0.64546875 2.38382812 0 2 C0 1.34 0 0.68 0 0 Z " fill="#FDA36F" transform="translate(244,363)"/>
<path d="M0 0 C0 0.66 0 1.32 0 2 C0.66 2 1.32 2 2 2 C2 3.32 2 4.64 2 6 C-0.3125 6.25 -0.3125 6.25 -3 6 C-4.8125 4 -4.8125 4 -6 2 C-2.25 0 -2.25 0 0 0 Z " fill="#FC6E1A" transform="translate(275,400)"/>
<path d="M0 0 C4.83290538 4.049191 6.3833652 7.96719209 8 14 C5.71813703 11.80061401 3.69964486 9.498574 1.75 7 C0.93789062 5.9790625 0.93789062 5.9790625 0.109375 4.9375 C-0.25671875 4.298125 -0.6228125 3.65875 -1 3 C-0.67 2.01 -0.34 1.02 0 0 Z " fill="#FFA964" transform="translate(149,152)"/>
<path d="M0 0 C0 0.66 0 1.32 0 2 C-1.87422152 2.48220263 -3.74941754 2.96061833 -5.625 3.4375 C-6.66914063 3.70433594 -7.71328125 3.97117187 -8.7890625 4.24609375 C-11.84891124 4.96452539 -14.8948051 5.51976716 -18 6 C-15.37972564 3.37972564 -12.42076703 2.51801127 -9 1.3125 C-8.03707031 0.95575195 -8.03707031 0.95575195 -7.0546875 0.59179688 C-2.2465087 -1.12325435 -2.2465087 -1.12325435 0 0 Z " fill="#FDAB74" transform="translate(323,62)"/>
<path d="M0 0 C0.33 0.66 0.66 1.32 1 2 C-0.98 4.64 -2.96 7.28 -5 10 C-6.32 9.67 -7.64 9.34 -9 9 C-6.03 6.03 -3.06 3.06 0 0 Z " fill="#FE965F" transform="translate(401,318)"/>
<path d="M0 0 C0 0.66 0 1.32 0 2 C-6.93 1.505 -6.93 1.505 -14 1 C-14 0.67 -14 0.34 -14 0 C-12.23243706 -0.39012425 -10.46075217 -0.7616098 -8.6875 -1.125 C-7.70136719 -1.33382813 -6.71523438 -1.54265625 -5.69921875 -1.7578125 C-3 -2 -3 -2 0 0 Z " fill="#FD8E64" transform="translate(544,379)"/>
<path d="M0 0 C2.03833424 1.2739589 4.03852126 2.61061923 6 4 C6 4.66 6 5.32 6 6 C4.02 6 2.04 6 0 6 C-1.125 2.25 -1.125 2.25 0 0 Z " fill="#FD6F38" transform="translate(535,372)"/>
<path d="M0 0 C0.66 0.33 1.32 0.66 2 1 C-3.0940919 7.70459519 -3.0940919 7.70459519 -6.875 8.9375 C-7.57625 8.958125 -8.2775 8.97875 -9 9 C-6.31941902 5.42589203 -3.57410797 2.68058098 0 0 Z " fill="#FD9D69" transform="translate(378,340)"/>
<path d="M0 0 C0.66 0.99 1.32 1.98 2 3 C1.02433888 4.16959987 0.044375 5.33561177 -0.9375 6.5 C-1.48277344 7.1496875 -2.02804687 7.799375 -2.58984375 8.46875 C-3.05519531 8.9740625 -3.52054687 9.479375 -4 10 C-4.33 10 -4.66 10 -5 10 C-5.3125 7.8125 -5.3125 7.8125 -5 5 C-2.5 2.1875 -2.5 2.1875 0 0 Z " fill="#FE7F3B" transform="translate(442,302)"/>
<path d="M0 0 C0.33 0.66 0.66 1.32 1 2 C0.67 2.99 0.34 3.98 0 5 C0.66 5 1.32 5 2 5 C1.67 5.99 1.34 6.98 1 8 C-2.0625 9.1875 -2.0625 9.1875 -5 10 C-3.35 6.7 -1.7 3.4 0 0 Z " fill="#FE8F51" transform="translate(370,211)"/>
<path d="M0 0 C5.28 0 10.56 0 16 0 C16 0.33 16 0.66 16 1 C14.75283203 1.19916016 14.75283203 1.19916016 13.48046875 1.40234375 C12.39378906 1.57894531 11.30710937 1.75554687 10.1875 1.9375 C9.10855469 2.11152344 8.02960937 2.28554687 6.91796875 2.46484375 C3.95066644 2.93871921 3.95066644 2.93871921 1 4 C0.67 2.68 0.34 1.36 0 0 Z " fill="#FEA961" transform="translate(41,114)"/>
<path d="M0 0 C2 2 2 2 2 5 C2.99 5.33 3.98 5.66 5 6 C5.33 6.99 5.66 7.98 6 9 C5.01 10.485 5.01 10.485 4 12 C3.13353333 10.56988027 2.28218171 9.13059381 1.4375 7.6875 C0.72400391 6.48673828 0.72400391 6.48673828 -0.00390625 5.26171875 C-1 3 -1 3 0 0 Z " fill="#FFA55B" transform="translate(62,171)"/>
<path d="M0 0 C1 4 1 4 0 6 C0.66 6 1.32 6 2 6 C2 6.99 2 7.98 2 9 C0.35 9.66 -1.3 10.32 -3 11 C-2.01 7.37 -1.02 3.74 0 0 Z " fill="#FE9D63" transform="translate(359,106)"/>
<path d="M0 0 C2.97 0.33 5.94 0.66 9 1 C6.09907498 2.93395001 5.10325263 3.30131941 1.8125 3.625 C0.554375 3.74875 -0.70375 3.8725 -2 4 C-1.34 3.67 -0.68 3.34 0 3 C0 2.01 0 1.02 0 0 Z " fill="#FE935A" transform="translate(362,401)"/>
<path d="M0 0 C3.93673644 1.31224548 6.22719294 2.91910327 9 6 C8.34 6 7.68 6 7 6 C6.67 6.66 6.34 7.32 6 8 C5.34 6.68 4.68 5.36 4 4 C3.34 4 2.68 4 2 4 C1.34 2.68 0.68 1.36 0 0 Z " fill="#FEAD7A" transform="translate(249,383)"/>
<path d="M0 0 C-2.98993096 1.66107276 -5.63299784 2.43883297 -9 3 C-10.093125 3.185625 -11.18625 3.37125 -12.3125 3.5625 C-13.199375 3.706875 -14.08625 3.85125 -15 4 C-10.85384107 0.35138015 -5.42017988 -2.16807195 0 0 Z " fill="#FE9467" transform="translate(499,306)"/>
<path d="M0 0 C-2.3129482 2.3129482 -3.47904875 2.49580975 -6.625 3.125 C-7.44226563 3.29257813 -8.25953125 3.46015625 -9.1015625 3.6328125 C-10.04128906 3.81457031 -10.04128906 3.81457031 -11 4 C-10.67 3.01 -10.34 2.02 -10 1 C-6.78548731 -0.60725635 -3.56387464 -0.05748185 0 0 Z " fill="#FE9C59" transform="translate(308,90)"/>
<path d="M0 0 C2.66735273 2.48952921 4.55746343 4.63408134 6 8 C5.01 8.33 4.02 8.66 3 9 C0.90250005 6.64031256 0.03094296 5.45383006 -0.1875 2.25 C-0.125625 1.5075 -0.06375 0.765 0 0 Z " fill="#FF9C56" transform="translate(158,327)"/>
<path d="M0 0 C0 3 0 3 -1.8125 5.1875 C-4 7 -4 7 -7 7 C-5.66667905 3.00003714 -3.5042173 2.16217663 0 0 Z " fill="#FE9B63" transform="translate(343,247)"/>
<path d="M0 0 C-1.24176695 0.70226141 -2.49385599 1.38629109 -3.75 2.0625 C-4.79414063 2.63677734 -4.79414063 2.63677734 -5.859375 3.22265625 C-8.36140628 4.1312406 -9.5332355 3.88336837 -12 3 C-7.72960125 0.1530675 -5.02025722 -1.50287955 0 0 Z " fill="#FE9D51" transform="translate(251,85)"/>
<path d="M0 0 C1.32 0.66 2.64 1.32 4 2 C2.02 3.32 0.04 4.64 -2 6 C-2.33 5.01 -2.66 4.02 -3 3 C-2.01 2.01 -1.02 1.02 0 0 Z " fill="#FE9757" transform="translate(348,68)"/>
<path d="M0 0 C1.32 0.66 2.64 1.32 4 2 C2.71349294 2.69710731 1.42059335 3.38242876 0.125 4.0625 C-0.95394531 4.63677734 -0.95394531 4.63677734 -2.0546875 5.22265625 C-2.69664062 5.47917969 -3.33859375 5.73570312 -4 6 C-4.66 5.67 -5.32 5.34 -6 5 C-5.67 4.34 -5.34 3.68 -5 3 C-3.68 3 -2.36 3 -1 3 C-0.67 2.01 -0.34 1.02 0 0 Z " fill="#FF945D" transform="translate(411,384)"/>
<path d="M0 0 C5.75 1.75 5.75 1.75 8 4 C7.67 4.66 7.34 5.32 7 6 C3.63279613 4.60667426 2.0140476 3.0210714 0 0 Z " fill="#FEB07E" transform="translate(246,373)"/>
<path d="M0 0 C0.33 1.32 0.66 2.64 1 4 C-0.65 5.32 -2.3 6.64 -4 8 C-4 4.09161134 -2.49432124 2.88405893 0 0 Z " fill="#FF9860" transform="translate(420,295)"/>
<path d="M0 0 C1.65 0 3.3 0 5 0 C5.33 1.32 5.66 2.64 6 4 C4.35 3.67 2.7 3.34 1 3 C0.67 2.01 0.34 1.02 0 0 Z " fill="#FD843A" transform="translate(254,368)"/>
</svg>
