<svg xmlns="http://www.w3.org/2000/svg" xmlns:xlink="http://www.w3.org/1999/xlink" version="1.1" width="256" height="256" viewBox="0 0 256 256" xml:space="preserve">

<defs>
</defs>
<g style="stroke: none; stroke-width: 0; stroke-dasharray: none; stroke-linecap: butt; stroke-linejoin: miter; stroke-miterlimit: 10; fill: none; fill-rule: nonzero; opacity: 1;" transform="translate(1.4065934065934016 1.4065934065934016) scale(2.81 2.81)" >
	<circle cx="45" cy="45" r="45" style="stroke: none; stroke-width: 1; stroke-dasharray: none; stroke-linecap: butt; stroke-linejoin: miter; stroke-miterlimit: 10; fill: rgb(255,124,26); fill-rule: nonzero; opacity: 1;" transform="  matrix(1 0 0 1 0 0) "/>
	<path d="M 51.307 54.316 l 4.638 -4.748 c 1.368 -1.401 3.451 -1.83 5.262 -1.085 l 7.596 3.127 c 2.236 0.92 3.438 3.36 2.806 5.694 l -1.748 6.456 c -1.545 5.708 -7.398 9.177 -13.114 7.662 c -7.527 -1.994 -16.045 -7.051 -23.581 -14.587 S 20.573 40.78 18.579 33.253 c -1.514 -5.716 1.955 -11.569 7.662 -13.114 l 6.456 -1.748 c 2.334 -0.632 4.773 0.571 5.694 2.806 l 3.127 7.596 c 0.745 1.811 0.316 3.893 -1.085 5.262 l -4.748 4.638 c 0.941 3.081 3.037 6.499 6.08 9.543 C 44.807 51.279 48.225 53.375 51.307 54.316 z" style="stroke: none; stroke-width: 1; stroke-dasharray: none; stroke-linecap: butt; stroke-linejoin: miter; stroke-miterlimit: 10; fill: rgb(255,255,255); fill-rule: nonzero; opacity: 1;" transform=" matrix(1 0 0 1 0 0) " stroke-linecap="round" />
</g>
</svg>