<svg width="38" height="37" viewBox="0 0 38 37" fill="#CFD4E4" xmlns="http://www.w3.org/2000/svg"><path d="m37.564 1.136-.867 6.536c-2.152-.158-3.78.262-4.882 1.26-1.103.997-1.811 2.362-2.126 4.095-.315 1.732-.394 3.649-.236 5.749h8.11v17.797H22.13v-20.16c0-5.512 1.338-9.66 4.016-12.442 2.73-2.835 6.536-3.78 11.419-2.835zm-22.129 0-.866 6.536c-2.153-.158-3.78.262-4.883 1.26-1.102.997-1.811 2.362-2.126 4.095-.315 1.732-.394 3.649-.236 5.749h8.111v17.797H0v-20.16c0-5.512 1.339-9.66 4.016-12.442 2.73-2.835 6.537-3.78 11.419-2.835z"></path></svg>